<mxfile host="Electron" modified="2024-02-19T13:51:57.596Z" agent="Mozilla/5.0 (Windows NT 10.0; Win64; x64) AppleWebKit/537.36 (KHTML, like Gecko) draw.io/23.0.2 Chrome/120.0.6099.109 Electron/28.1.0 Safari/537.36" etag="mIdTC6uVvqDpsoz-9AjB" version="23.0.2" type="device">
  <diagram name="Page-1" id="A6_5KYDL9JUv0O96ecat">
    <mxGraphModel dx="2586" dy="1037" grid="1" gridSize="10" guides="1" tooltips="1" connect="1" arrows="1" fold="1" page="1" pageScale="1" pageWidth="850" pageHeight="1100" math="0" shadow="0">
      <root>
        <mxCell id="0" />
        <mxCell id="1" parent="0" />
        <mxCell id="8jyKJ8MEoaGuotIZUo8H-47" value="Option #2 - Smarter load balancing with scripting" style="rounded=0;whiteSpace=wrap;html=1;align=left;verticalAlign=top;spacing=10;fontStyle=1;fontSize=20;" vertex="1" parent="1">
          <mxGeometry x="230" y="920" width="1020" height="170" as="geometry" />
        </mxCell>
        <mxCell id="8jyKJ8MEoaGuotIZUo8H-45" value="Option #1 - Simple setup, solves load balancing with some limitations" style="rounded=0;whiteSpace=wrap;html=1;align=left;verticalAlign=top;spacing=10;fontStyle=1;fontSize=20;" vertex="1" parent="1">
          <mxGeometry x="230" y="460" width="1020" height="410" as="geometry" />
        </mxCell>
        <mxCell id="8jyKJ8MEoaGuotIZUo8H-17" value="&lt;b&gt;Backends&lt;br&gt;&lt;/b&gt;" style="rounded=0;whiteSpace=wrap;html=1;fillColor=#f5f5f5;fontColor=#333333;strokeColor=#666666;verticalAlign=top;" vertex="1" parent="1">
          <mxGeometry x="480" y="620" width="480" height="230" as="geometry" />
        </mxCell>
        <mxCell id="8jyKJ8MEoaGuotIZUo8H-12" value="&lt;b&gt;&amp;lt;INBOUND POLICY&amp;gt;&lt;br&gt;&lt;/b&gt;" style="rounded=0;whiteSpace=wrap;html=1;fillColor=#f5f5f5;fontColor=#333333;strokeColor=#666666;verticalAlign=top;" vertex="1" parent="1">
          <mxGeometry x="480" y="530" width="480" height="90" as="geometry" />
        </mxCell>
        <mxCell id="8jyKJ8MEoaGuotIZUo8H-21" style="edgeStyle=orthogonalEdgeStyle;rounded=0;orthogonalLoop=1;jettySize=auto;html=1;entryX=0;entryY=0.5;entryDx=0;entryDy=0;" edge="1" parent="1" source="8jyKJ8MEoaGuotIZUo8H-29" target="8jyKJ8MEoaGuotIZUo8H-23">
          <mxGeometry relative="1" as="geometry">
            <mxPoint x="910" y="190" as="targetPoint" />
          </mxGeometry>
        </mxCell>
        <mxCell id="8jyKJ8MEoaGuotIZUo8H-22" style="edgeStyle=orthogonalEdgeStyle;rounded=0;orthogonalLoop=1;jettySize=auto;html=1;entryX=0;entryY=0.5;entryDx=0;entryDy=0;" edge="1" parent="1" source="8jyKJ8MEoaGuotIZUo8H-29" target="8jyKJ8MEoaGuotIZUo8H-24">
          <mxGeometry relative="1" as="geometry">
            <mxPoint x="870" y="350" as="targetPoint" />
          </mxGeometry>
        </mxCell>
        <mxCell id="8jyKJ8MEoaGuotIZUo8H-13" value="" style="shape=image;verticalLabelPosition=bottom;labelBackgroundColor=default;verticalAlign=top;aspect=fixed;imageAspect=0;image=data:image/png,iVBORw0KGgoAAAANSUhEUgAAAz8AAABtCAYAAACP+98iAAAAAXNSR0IArs4c6QAAAARnQU1BAACxjwv8YQUAAAAJcEhZcwAAEnQAABJ0Ad5mH3gAADEvSURBVHhe7Z1tbFzVue//Cee0EaGcoOQEO7XBBjVKRJoIaKj3mPABXQKOApQ0uMqtFMUxcdJPiPrara5EnKRfKltuD5+IHRznREXoJiG0QGNwdZFuXmZCKaQBR6SuwAG7sRNi4baAoCiZu9baa89e+2Vm9ozHL2P/f9LyzN57zXrba8br2c/LmpNMXkuCEEIIIYQQQmY4c/UrIYQQQgghhMxoKPwQQgghhBBCZgUUfgghhBBCCCGzAgo/hBBCCCGEkFkBhR9CCCGEEELIrGCcws8Ijm2di91z5uLgaX0qV4aO4pnxfH6yOd0u+rsNx4b0MSGEEEIIIaQooOaHEEIIIYQQMisYp/BTgnX7r6EleQ2bq/QpQgghhBBCCJmGRBB++tBhxdBxVh+SAKM9jbCsTjFShBBCCCGEkOlKZuHnci8arQYcwBZUr9LnFK6vj53CfWDOtIlrbYmUX4+TP51/j8rv5Nt6VNTiJ4GDRjnBeu3rzxz2fnLk8DaRtx1n9LHdHvuzWev0tX231aQvuCysqRMjdADbrEb0XtYnCSGEEEIIIdOK9MLP2U5Yj+5C/N5deDXRgBX6tI1r7taSaNPn0tBcjd3lA7hP5hVp+6F6DFh+oaUen3bOxcs4ZZeZPIXK7o3okIKTgwo0UI1PD13UeWRZwFvl+QZL6FKfPV7hlJemzvKNuClh16dSaH9XYHviFey+N4GWR6klI4QQQgghZDoSKvwoM64dBxDb+QoSbWuxUJ/Pj3qsHmzEnfqoxKrBAiF4XPEIP10YWy4EnyZLH1tYK4QkNO/XQtIIjnU2Aa2n8OTjJSqHpOTxX2B1HTDQGaYlioCnPAvfbRUv7w/rstw6o/kzLcTatjj2bQYO7IihsWdUnyeEEEIIIYRMBwLCT9+zMazfk8CWvXG014xP7FHU1eCuMv0+A5VrHMHHpqR8mfirhaShOP7aDSyoqFTXXEpwV40QkroHMKzP5IK/Tg+6zox5Qljxkzhe3WkhvudhWM/SC4gQQgghhJDpglf4udyL7oP6/VRTVokF+q3DTeWu1sfLeQx7NEnThIPd9AEihBBCCCFkmuAVfhavRXvC1lxI060p1VwMDWAM9VgUQWsELENppHwTj6M5UyaDiXasXawvEEIIIYQQQqaUUJ+fhTXtSOzdAhxsgNXUi6nwXjlzQkZV00JNWQzfkb49J4xgBIoRvNPTBbTGUj5FQXSeXCkrxU3i5dNB05tI+wGFMorephi2HUThTAYJIYQQQgghBSNU+FGsakDid7sQO7kL6yd7D5vT7Xi5GahMOIESSrCuoU1FjjMju40cfhpvdddj9SbHL6cSi4SQNNYTd4MWbF0i8qiDHLEDIIzVPp8KkX2mTZSF+oA5nr0X0sNoOWlh9+/i2O4JC04IIYQQQgiZDqQXfiTKDK5T7WFzygzfbO59o/a9scNGp90rJxOOVsfSn1dlnsfqwWveKGtVjSrMtJmvo3YZHknuw7qUyZsMwa1DVqs8S/DXmovZw3Gn4c6mi1hd14SXdX0qLPaeGn3VZbSnW+2FtI9mboQQQgghhExb5iST15L6PSGEEEIIIYTMWDJrfgghhBBCCCFkhkDhhxBCCCGEEDIroPBDCCGEEEIImRVQ+CGEEEIIIYTMCij8EEIIIYQQQmYFKeGnr+8cPv/8c31ECCGEEEIIITMLan4IIYQQQgghswIKP4QQQgghhJBZwQwTfhI4OGcunjk8oo9nCGc7YVmN6L2sjwkhhBBCCCE5Q81PEdAXPwBsrsPaxfoEIYQQQgghJGco/Ex3Lvei+yCwJbZCnyCEEEIIIYTkQ1ELP6M9jbCaejGqj2cio2+/jji2oHqVPqHpezY24/tOCCGEEEJIISla4Ucu/tfvSSB2/91YqM+ZjBzeht1z5urUjjP6vMsIjm11rtsp1Fdo6CieMfKElyU43W7kEaktoS+Mhz4ckX3c+UP49T4rfrgLsZO7sN7qFLkIIYQQQggh2ShC4WcUvU0xbJOmYHvjaK8JEX16nkZHTw22J6+hJXkRq+ua8PLWo0LccTnT9jSwR17XKdGGsdolXgFICj7lG4FDF918g5U47hNslKBlncfqQae8U6hsrh6/AHQ2jgOw8ODdIX1cvBbtiU5sETm2MRgCIYQQQgghWSky4acPHdbDaDm5BfsScWz3mYI5jEEIPvs3oEQdlWBdQxvQvRG9p9UJxZ1N+7CuTB9Iqn4shCTx2Z64KyQNDYiy6vEdyy5JUbYBTzZZ+kCSQG9tFxYc+oVRnoXNQphC834cG9Kn8iB7oIMV2J54BbvvTaDl0Rg6zurThBBCCCGEkADFI/xc7kWj1YAD9+7Cq4mGgBmYyYKamBZ8NGWVWCBePh3MFAK7BKXL9VsH9bkuvFW+Lb0QczqOAb+AJNGfvZKv8BM50MFCrG2LY99m4MCOGBp76AVECCGEEEJIGEUj/PS9uAtx/T5nykpxk36bIuDLMxcvN+trDlLLI03YlADk5PP6/IwMnhd/zes6lW/EmJ0lL1SgAyHobUyj3UpHfM+L9AEihBBCCCEkhKIRflb8JI6E9HFRTv45+rgMDeNT8XJTudbOaF+esdZTri+PSI+02pe9WNjs5JGmbGjCy4YAVFK+TPytN/x9vGlzlZ0vN3SggzTBHLx4faASWbRihBBCCCGEzFaKzOcnPx+XkUSP8t1ZpH1ynOPVm0zfnQhUNWoB6DyGHXO28Zq3hZEp0IEHxwfKwu7fpfeBIoQQQgghhBSd8CPJ0cdl6Cj+jy8gga2t6cJfE44PkB322m/2JqO4HTSCJEjOnGgSf5eh1AluULYB97UCA1YGv6CcGEXvb7IFOhA4PlCQwR/aM+clhBBCCCGEYE4yeS0p3/T1nUNlZQXmz5+vLhQDcpPT9W88iFfb1qbMw860BYWYykTQ/EwKNh1CKHKQeb57Qnz2/SNGpLiQ8uq81x385SnS5M2IFGoe3YWlezNrcuQ+R9s+3OXpOyGEEEIIISQ9RS38zETCBDpCCCGEEELI+ClCs7eZTC6BDgghhBBCCCG5QM0PIYQQQgghZFZAzQ8hhBBCCCFkVkDhhxBCCCGEEDIroPBDCCGEEEIImRVQ+CGEEEIIIYTMCij8EEIIIYQQQmYFFH7GTQIH58zFM4dH9PE0ZOgonhFt3D2nHWf0qemC3ER293Qfv9nC6Xb8cc429A/p41wR8+xtcS//KObZx/pUNj4W9/+PW49iVB9PKXm0nxQvI8dewr9veAENxy6Jo3P4tXj/7xtewkuX7euS053i3M/jmI2/TpH6fjmOBjFuvz6rj4uCS3jp5/JeF6bdapxS82iWc/YPaixm63eGhODMic5z4qCw3z3F2U5YViN6jd/tKFD4yYYWHA6e1sfTCCU4iIXjtPuRmcZjRmYfo4e3FU6g0QJSH+f2DGMRKpbK1xtQulidyJlogpItZE3/hfI5JF4DWjfFUKLPhDHyp0voXnorNq3SJ2YKRSnUETLduRmlt8nXeagoVSfGTV/8ALC5Dmtz/N2m8DMbKNuAJ5PX0JJsxJ361HThzibZrmt48vFM/2JJUSDm2d3iXt4j5tkt+lRRUeztJzlR8u0b1Ovyb9+sXonLyLF+NAuB0Moo1JzDC899ibr7bs8oIE0/bsZjv9yEr49uwlMFENqqGuyyOtdxHmHVA2osvv5lZqGZzCJK56NOvNSVLbKPC8nlXnQfBLbEVugT0Slq4We0pxFWU+/0MJkhhBBSpOgnkkvno8I+MYu5hMTxL4GHlqBKnwnl7EUhIM1Dzfe46CeERKOibJ74m7+G3WT07dcRxxZU+x5iKNnA6kSfPg5jTjJ5LSnf9PWdQ2VlBebPn68uTHf6no1hm5D4YjtfQXvNQn3WRpqDvdysDyStp9DSZOkDgTTLKt+ImxLXsNn4dVefe/8Itu/fgGF/GT4qU5+VPj/V+PTQRfwIT6OjtktdB9rwSEDTMoJjW5fgrW59iHqsHtyHdWX6UKDaANHeTcOqjWP6fKo+3XbnfIA6u/3qqYs/r3ktQPa2BfMAC0S/Ha1NYNx9uGMWzGte82KP74A+ymvMoiJNmsp78K3BrfhXeTW+EHUtEHXNe2EuRmRbxfjdLsbPmW3SX0WddxDz7B7fPLPLM8qQ+MpRSH8bq0kfSNpQEqKBCNTp4Kl7BP3iPo0Z91L2Y6nnXgpU+zbiqj60SZM3E/5ywvqnkSZoH6S+I5qQ/P5814l5drehHVTjIO75PeKem3VfL+75Cv297BPz5gt1NgxjfCO0P+24a+x6dZ0Z7q/bvijo+7g82E//eEiyjZkicM/D51ngPvnmtn19me+zdv+/StWbW/uD9yysbVHyFA5pyrbmw1sx+FNg546P4HylWlu01kCaRxnnAywVn/1lDDj2EsqfEwJFGuqeuF9rDqRZ3LsQP2bY9DfzM4tw4ugDAWFEte81fSBwy/HhtPOhlfi64Q59Mg3SRn/3Zzi09zE8lnaBIm3330DtbenLkz5VZp/D2hap/WnHeJ5uY9Qx023u14epz+tDgb89flL3XeDPa15T6HYjpE/22MBXv90P92dmPPc8W1+N+/eDv3vG1y1P54E9hz3fVn/f1Jy5oi8KMs6z7PchWh5BYG6Ej1kkAmX56/TfHwOzv7qc5b75oO6b/C3RY2nPgRtEe1di2Oyr/s3wjHdO45udcX83VR8voWbvUlzYIcfEHqvS3+rPhPWh4PShw2pA/86gDOBcOwALu3/XHm4SJ4Ufmd57773kZ5/9U72f3umT5Ov/qypZVVWV3Pvn4PXhQ/XJ/04Y5waPJP9LdHNX66nAOU8+kd5pFfnqjiSHjXPp8rrpVPK/ZfkypT57Mfn7Ol+dTj7jnGzrLtQnfz/o5NFtUOW1Jd/JkC+V19/eNCljXmeMPNdFH1q9+d9p9bUh0aba+l+HLrrnZMo6ZkbKlDekfHssvPlzGbOMSbTlT+Izf6qrT/5l8GLyL+Ieyvdvynsm2vKmuPYXXd4VUf57ZpvVZ2Hn9Z8T6U+pPpxKvheWzzNX7LrfFP35KHXuWvIj0U/POdUms2yZguXLtpptV0l/1tMHXx/zSaqNYh5dSXctrE++/IF8ehzNftp5vPlC+5k67603XcrUfpV0WzzjZqR0bQjre/bkzAOZjDJD7l2UMUt7Luvc03PKGJfwMbXzueVHb79zzvO9kOX5vyee8vMd1+gp0fF88t8ek+nF5NFL9rnh378ojl9PJsLy/uxklt/j95K/EuVt+/1wyDX3uqozVdZw8ujPgmXbbfO2I9HhttNMdpuD+cNSpH5cOpncJsr7Vcj/4FR7jTGTafj3rxvHup9mPbrMf+t4L/UZ55w7Xk7ZZj+MMUt9NnzMUunPrwfa50kZ++dLafOma4M+n7Gf6e5v2Dl/P/R4GOXb99/M54yjTMZ5NS5uX4KfM8+HzaWQvpnJuceeMRGf6TCPo7RfpJAxU+fS1Z0xiTp998ke62DfPUmNl28c0swH//fK/U6afYjS92Ce6Mm5795+5fzdVMcvJrf9TJZjlynfq+vZvluFSn/eK+SAp5Kvp60ns6xQZGZvUpp7GC0nt2BfIo7tPlWXpOTxfd6n/WUbcF+reG2OY0IjndWZWpUS3FVT76lz5PB+DKANjxhPT0se/wVW13XhrRcS+oyD1G64WqMSqwYL0IUr+UbhysKZFzZizNN+SQnWNXm1RHc2+TRBVT8W7QfGeiYisssIjnU2qSfOpj+QPWbAQKc/0EOhxqwLV5dvTWk+rnYvQ0nqnnXhX7q8hWKeeZ7gi3n2n3qeBRzrRR/cp9wWbpT53h92zTWlr4mpMRKjvrShTbw24R8px/oE/tEsn5j/2H3KLcZ/gRiLq2L8nbJGxTz7Qj4NN8pbKMZsgZhnY6l5NoJ+PbbRtRDjZOgoPhHtvz6R5Sl9WD4xPhWH6nG19nnf2EotlZtvobjn1xn3aCpw2vDPhDk7Q+5dTkjthqGNq4rhevHy1aCuI+qYDQ3gqhizb1nGt9o/904/j7Fu77jKObsiIeZj90YM5xXoIUv7jfno0ZzKeo3jj8Xv1FXxO1Vh/B7c0nRKlNWET5xokafbMWfO3LSpPa/2e58Al3zvZtThChIT6QzveXJ6Mx7btAjov4REKqLRJQx/KF58pmlVDSFPxwV2mwXZTNkKEejg7Luo7Q8+qS9Z90Dq2PEpOmE+HV4cw54n5gGv9aci7ql6RL6tqafSeizCxl+OWepp+M2w7hNl9X+OC/rM5OO0wbxvgssfoKdfjPH33Sf3p3/7kRrPPcbT96qGlWgV/dyfCo4R7Z6nxtbQDJSsi+HQ0i9R+1sZcctEakqMz69aIuoU/57+Ztdpz5sv0SPug0tEs8gQnH56tQLinja4x5HbP/y5mBs+s0sxhzrz0ojcgad8moqqH9wa0neTc/j17itobclT06SRGkNX63IHrIfEy4d/1+sb7Vf3RMy4x6KtLeI7YHxPIlPA7ybE2HTftjT1ue7+G4x79iUuDOu3E0T2QAcLsbYtjn2bgQM7Ymjs8TrIFI/wc7kXjVKNde8uvJpoQC7uTaUVQhCZYBbUeL84XkbwTk+XmOUxnxlcCUqXixexEDaXSqirwV25mB2NiwTeEwunzO1Ph27/RDAUx1+7RbsqKvUJBy1Ydg/A890q4Jhdv8ZYgNVVIqoh6Pw088xTXlTKKsUi2mBoGF/ptwGWl2oTqxGM6nnmXWSXYJ6eZ+rrL8b2n2Js82pXnowmesTCuw03ZvkvkS7fwvJl4u95fGkKNuKeL5y070lEymL4lk8gxem4MqH0CB25EJiDQihIXksJ1JHHTM0pIQSXpw9n/vEJaXq5DPP84xoQWHIgS/ujzUctQIrfKa+BQyW+Icf7gjaMrWqU1gxpU2M+q5SlYhGb9h/sxBAIIqCchs0FhfZReu1dHUI2C3JRKB3RsywMCxHo4PSbV7KMmV48h/hXOYttp58XhlzTHC/BaFHTMfBCybqlQpjwLqAdgc4dY1vgDLbfjkDYPeSYO0W55+kEE/3Z1KJaE7gHYmFtBm8Q82arWIx3H//A/VyI8BaNdP00yaH9+jtRu8Mbnr5gLP4PZFrenO58F83pHgBEJjiPVQANR/BI51cX+D2IRiG/mxLPHJhMf8kcAh2s+Ekcr+60EN/zMKxnXS+gohF++l7chbh+nxl73x25d4yTXD+cqWIAV6QhaXO1p10yZfKRmRTEovpT8XJTeYR/G0N2COvJbH/6dp3HcK5P+NU+NnIfFyPlvceM9D3wlhXwZckBtd+NWZ7HL0OgNUueJ/nqKb25aBzAv/Q885QlUiZ/lYwUdMyy8/kFOYZNGPHX6fGHms5orV13D0b1/FQCRaurTSw0kcdManmSUlMiBSAnX0gI8AwCf0rIKCRaI/WNTOOjhf+rtUu8fZxj+rbNLuQiaVA9jRWLYbmPxrhDaNsLn7onVmZ+kq0WZKY2xkRrJ277j+yCSIY8jubBfvru1X689EK2Bdx0wn6S7woPIWN8+e94X7x0P/dG6j7ayfR5scl+z6/ggvyMcd1JmXyZMlH1fa/WMe/w5rqfmaMr5tB+JdBL7ZgUgJx8f0C+uxA4+365KY1/j+TsH0R75uHQT/N5aBydkb99Jv6a/dPJ45sUlcJ+N6cSFejg3l3YmOscPNid2g+oaIQfKb0lEp3YcnIX1qfd0Eg7x0sTrqQdQlmm7YcmXvOTmUoskjYHradSbfIkj7nZJFNWipvEy6fZnuhKwUcsyMd8fXhE6sinhGUozXUxWdWIe0SbPcnvmB4J7XQtHduNsm7Pc57ZzvTS1Mho1+ARr+ZH/Ov8Uv7nMBe5AQd6+ym4Mh8y2pVK+fS1YGMWDVt7Js2kfHWqlGMghqlCaUkc0zdbYzGRWrbcxszWuqhr0pRNzafoeyBdF9DEFgCtkcporih+p74pXmSghGAfRXLM4ybE7G36UrLuMTu08NH7cUhqCcQCOm8BSJvEZI7epoWPtCZPaTQMOZJaICvTJlMwSOOAP43xCA9Ka+I31bI1DNKh3L6XvuTT1mW+54vs/aqkQ7y/HJnyGTdlCudor7Twlo+WTfcz8+I51/bbmip1TZqCCeFpTR4CkBMAQJqgufVJwSoM29zNa4o2Mdjh+KWZmtkuN+UWqr3A380pow9H9iQQu//uSOsQGRxtvcy/8xUhQ7jBD4rM52cFtidewe57E2h5NIYOv83v6biKClbZkI8wYZt/BYgqHGQkjXnbOFHmfH7zr5yxBbNsfjsjiR6MSb+aTREWcYUYs7IYviPaNXDC7w+VzoRwElFmTGJBK+bZ+IUAe3GcVTOQ8sXwLvq8Pjs+87Z06IWk14RJ+11MEKFma9pXxSQ03zgpaJmhY+fHQqn0t5Gmb2quZDf3Gw95908KtkoAcj97yxqv1ipFFNM9/b3IGT2mXwS+6yY+87Z0TITZW0RUCNesPib24s41ZYpG0FTKj9y7Ri+Gw8qW0Zmk8JDBRC67SYwggsmTPQ6upiCIqEP6wrx2MbBI9fbTEbR8C+HJEHwiLdQjsmql8leRwoOtNfGPcX5zIvyeF2aB6+UObHpinq29ChPeIqP7aZrQBRhH++UeQ0oA+gzDgbkno8fZWpPgxrW2QCd9xqJosxxzN9M/Kzu2yV/O5Gre5nzP0wiAhftuTiFn4yqK24N3Z1t9jaK3yY4KvWVvPBARrsiEH0kGJ6aySiwQL+aCWYZBDpi96cW5m88fTtlECwe1z6eCF+TDnZuOYEH3RnS0ZfoHnxslatHThOOOs29elGCdMtPxt20Ex9rcoAJ2XV34a8qRW4a9Tmf2Vogx0+1qrsZB41s4cvhpvCWEgEhC2ESh/XHMxZrU3uRn9qa1NWagBGlqFjB7i/B0XHCLmGfXiXv5QcZ5ZgddME3oPm5booRbr7apgGhtiBt0IYE+0UfU+bRlKoiDNMuKro3IiuPrEggskg96EW6aH4agAh/I+2A1jSPQQUQijtno4W3o8/1HC/j4OGXtNE0bxb2SJnSGgG4LXEZADjln8zZNtIVF+V1/2/NbJupNzWNtThjIM32wn9KaJlph6MVdLs7KYkGzUzk9m+Zo5/Drn/seWGnBJGwzQXvhIghZ1ChEHfvF4ixboAPHYT3TItHxc6nd4V2AjRz7Q6rPdp4rWGMKY4F+TsRCPip6of7cu+HjlRP2grL7+Lt4QSyyg2Osgzi89m4WrV20e65MBfs/QnkUX7CIKH8PsWh+4bdiHj3kOrnnhu5noG1CMOl0+xW1/VJb4xdklAAftoeMHidJ85v+cvU8M4UCJUSEmL1FMXfTgrNbT4YQ2dnQPlfNu6P5NaW+5+K7FRaQpXDfzalCCDS/yRboQOIER5OhrsODoxWh8GOTcmJ64233n3TZBjwpn2QavjXHKy6GmL1Z2DwohJFUvmrxfzadeZxYhO8/JZY8TXhZlymTuSCPhGxbUpRjtC3vshyqGlWbx2qXuOVtdQWWEbHYcc4rIUUKOPr4GXMBIcpp8YyHTE8DmwwNWqCuJbjSkM7sLduYGX5Z0pROnBmwnHztrsAk2yXup3tNCrLL8EjSv//QJCN9J/Q8c3wPPhHzLD+zN7GoE2MlI1alzNk6K3G73+xN1Cmjd30hxsKpM5VMHxzHr8Nom5PMhe8tTRfFItetU7b/nj01+mpuyEW1U4fyLZKLfn3sLlQtrJB9SrVrP74xeA0VgSrleFxDSWuID0u+Dw5C7pfp6xKt/Q4h90skv1DhBD6QEenyDnQQmWhjJiMU3njCe33kfWm6aUZ2k2WJuQF3DP4ofh/l3j2eSGziuynne2o+ikslSTmn9PUckW2TWiivT08cN/rqlOagCPj9pA/gMKmsekD5Y3h8N/yLVUFVg3xa77Xj9y96PWXoPUO8+3Dcgafk3kNOnrT5bLJFe4v2VDeKw7pEmiLJPkoTJLd9O7HSWDTLPCvRavp2hLRfRTyTC2GjHCcFn+BnQS1o9efVninGPQjcJ6lVsaOtmX1w65QLWn1e+18073byBZ+628LDFTT3pxljqbXYeytg3neVzEVvxHvu+MKE+M3kPGYOi29HjZizza8J4S1E6yf3hLHr0H5KRt2eOnU/6zxtiwM/MISJiO2X5n/Wm97rah+dsH1+VPvtt2HtD3wnd3yOrQGzN9vcLdQHx3PPxX3y9NHeg0r5auWB7eclfvb8dYb8tqS+52m/y4X7bk4Jl9/G6yezBzoY7enGAcio0Gn2+BHMSSaLc5NTQmYTcoEuNUuBTTKH9KaVgTDBZGrRG3wiZMNTQtJiPyV+P2TTwYlDmgS9gZ77stSpNlpE/ptI5ox+Yr406ONjb8AYDNlLCJm5jPY0Yv0bD+LVtrXj/p9atJofQmYTdkSvEN8R7S9BphlO+OaC+IURMoEUJNDBBKCjg4VpmpTvAiFkFpFboINsUPghpAiwI3qZm57afNxWbQdfmMQ9e0g2bH8mqY2btE1kCckXaYpkbnQZijQD25R1n6CCstj2nQg4yGv/g+IJd00IGT8y4FkwcEG+0OyNkCLBMX3zIkMcmz4bZMpwTBDle5ohkryYCrO36Yw2fdNHDjIsNMeHEJIvFH4IIYQQQgghswIKP4QQQojB/+u7jP+x8//qI0IIIbnwvzfegd3/c6U+mn5Q+CGEEEIIIYTMChjwgBBCCCGEEDIroPAzSdgbKRZw1/ooyF3Xp8MGgNOlHRPAx232RovTZdd5zrNxtEMGLFCbZuYwfnnXKfdWkRvI6U0M5R4qcjO5kI3rihm5C3vYpo+TjdqEcarH1txkM9O9duaC2mHdmSfj2KDSz9lOWFYjeiPsGE8IITMRCj/ZEAuiZ8SC6OBU//cmhMxcSufbO3Pf9h9Zds8nRYvauX4TvhbpxEP6XFZuRult8nUeKkrViXHTFz8AbK5Lu/M5IYTMdCj8EDIObmm6hnuS13D341yyFj1lG3C3uJf3TErocGdRewNKJ2UR6moQvGnqtTJTgdIEBcZCa+GmGi0I15Utso8LyeVedB8EtsRW6BOEEDL7KGrhZ7SnEVZTL0b1MSGEFCV6Q8cJWfCaPLRSaR7sdD8OLb2CNbNUAMLSWzGYGgupjfkStTteQMOxSzrD9KCibJ74WxghefTt1xHHFlSv0ic06n+p1Yk+fUwIITOZohV++p6NYf2eBGL33w3/fq8jh7dh95y5bmpL6Cte/PmeMfw2zrTp8+UbMSaOByw3n0z5m8El0Cc+L/1E0vqKKD8CN096HwRvWVF8FWyfkJC8/jr9Y6b8IWzfBsfPRaWtR4PCZ8p3QierSV/IB38f0/lXZBsL+7oab19f+5x7qdsddk/scXPr9oyBWUYoUe5T7vcyM97yOM8y4C8nrC6HAs7tqga56H4AVeroDjwlFuDmxo1KO9F5TvvN2O9NvxHbB0RuAimOw/xHtO9Iel+Rm/HYJilsfYZhn8YjoBlR/ichOP4p2fIZpMr2tTnVT538Qoi6rj6j+5wmn8Rf1prX9IUMVDVIYRDofu5drzDo99VJIyz6xyxvIUqbxzlzoWTdY8Y8GQ99OCL/Z+78Ifx6n4U1dUIkOoBt9AUihMwCilD4GUVvUwzbpOp+bxztNV7RRwo0HbXA6sFraEnaaXvF/oCwIoWbjtpleETnaRk8AtQuSQlAdza55xeI48qEPtZpcz7/ierO45M51WItaZtK3ZNow1VRp2fhLBdXJ2L2dZUuYkFdE0ZCF5HV+ELuJJ/KG8M/0gh6Erkg/aC2C9cduijyuqY9aqFqnccCMWZ2OadwfXN1cGGKLoyVz8UnFfLzOl/3Rnxg5pPtEgLjN50+yiT6mR9y0e3v41b8a6dvcaoWpNX4SvXLzlfSGjJmAjnef7TEgkLnu/1QPb6wtFBTFsO36kSenrhv8TuC0Z4uoHUrlpbZZxxzt3vE/LjOPhVOlPuUQ/sjwXmWGylzNznu+lwYBZ3bEfmwHzuHluLrFiGkvNaPhl9dQs1ee5He/KYUNO7ApifmAf2XkPALMG9eEX8XwfI95c+GFBwS33c1Il/vvRV1r70bEGzUYn/3FbS2GHm/fzGjY778jBRE1Gd+GUv5N8nz5c/dgBNGnXjujaAA0f8Ryjf0o2KvzifGpVvkM+sMlCVSNB8bxxTRRQlROz7CcqOPJx6S2jLTRM4WxtZ8aGiSdPujCIOTxtm4EG8sPHi3/3GhZAW2J17B7nsTaHk0ho5CBVcghJBpSJEJP33osB5Gy8kt2JeIY3vIP/XhC2KRWleDu/QiVVLy+D6vsCIWfsebpUDTiDv1KbkA+pFYCI/VPo8z+lTB6e5SC6cVTluqfiwWnMAXncZiXi7EmsTqPEUJljbIBVYT/pFavI6gv7NJrCDEgtST18IKz7GBWLg5C1Kvf0oCw+r8L1ILe1WOXNQ17w9qWUSd7uct3CgXi+8P6/a77Ur1cTwMDeMr8XL9Gl8f92/waPs+fmEjrtYdQYXRr1uaxIJZjNknfo2HyHe7sSBfaNUI4aUL/1L9LMHCmnpxn3owavZ7KI5/dvvbEYVo9ymn9keB82wCiFanfPgyZ87cNGkbjvr7mY1+oOYHd+iDL4H7YnjMMX/68O+iVeLOfe9m1IlrPX8yBYVzSAgho+6JlRk0BmLRLoQXPLTULVMgNQ1Pmb+ti2PYKoWH1y66Go/LcezXQown76oHvMcGUpBwBB9PnlRZhnZD1LlHCHUBLYygteUxt72rlkBNjb/pvoeVFZlLGP5QvCydjwp1fA4vPPelGMP7Pe2talgp6vwStb+1BZuRY/1oFkLmCUOYc9ovBdZp4UckyB7oYCHWtsWxbzNwYEcMjT3eR0CEEDJTKB7h53IvGq0GHLh3F15NNATU9g6lFXLxuhEdW4+qhUEYI4kejKEN3/X9dywpXyb+nsdwrguUyLThRk+dJZgnDf27B/C5fSKcskqvdiHXxXiiXZnnBBekgtNxfIF6fMvynVd1OkKBS8Y68xYS0lBWim+Kly+sTGZlCfxDCLLX1cR85o+V+IbU4lwY0Mea5aXefPqpv7OgXfj4ViF0dOGfCXf2jIr5cjVw7yIQaTxybH8kOM8KTsQ65YOWpJhP4WkfNhgPZSKx9GZYxmJ1+bdds7gUi29HjTTXOv6B+5t39qJYkM9DjRCMPEgNTso06100S7+XBke4So/td+IyIgSt7hy0SsNC8CkXgkRA8BGkK6vk2zeIv36TvMx15touk9Odb6C2fx4O/VQLMWoMw8b8DlhSGFTC5yUkjguhNCUwuThC6YVhfWIqySHQwYqfxPHqTgvxPQ/DepZeQISQmUfRCD99L+5CXL/PhFx8tMinyVIAmqN9dHxmNUo7hCa87Fx3UqF8BlSKZrI0XwprPvz+JNLU5qq+phgaEMf1+EakhVQXxmrtfn2z3LfwFIwOnhd/bTOjjHUWmkhjZmGFMseyBSA7j8/nR2uHlDmbp6wlGBOL1dyxtQyu6Ztt8nbdoR/nHgEsyn0qePvD4TwzU57mhNMW7btjmL4pkzefRkfhCXiwCSduk2Zk/ihnXp8amaTgYnJhKHzBH84V1KrPh4drVmWJPGt8dUqTuglFmdC59dlma4ZWSZEhxHT/57ig32YKUZ7SSk0hKtDBvbuwMVeh8GA3fYAIITOOohF+5NOoRKITW07uwvpsTplVjSnfnEekTURztUcAUtohtLn+Pp60D+tyfTpr+Ay4KVq43M+VmV4l5utjuSAdaa43/CJE8vuVpHlaHo5dlvRlCNOgLFTaLl99Rpows6LIY1aCpfv1dTUOcgFtCEBaO2T7l5hl6ZTOPCsDt6yRwrM2fVNP/EM0FlGIcp8moP1hcJ6ZKdp3Mx8KbvYWFWX+5Zi+2SZvrd/PrtHxm3DZgo/WCBlC0qA04TJQmiBz8Z+RRTihIsvJaGrBcNK2Vknmcetzk18YKSC+Ppo+SJGIKPyFausmFR3oICQ4UBipYEI7XxH/c9u5HxAhZMZRZD4/uTtlysAFSgB6fzhlEpKTeZtYnN4kXj4dTGdENx5skyfXFEsfG471oTjmYCfSO537uaXJ0aD4NCc5LXCzoNv1lWestK9EIZALWS0Aue0dj3lYGpSPjG36pkze6mqwMFeBWBLpPk1A+wNwno2biHUW3OwtMnbgA2X6psy1cjP9SoXY1qZerZsyCwK2SdoVJCI7xt+Mx36pBa0d3mhp4eZt+RFalvYDyhmPQGmi/anuu12M0c2w7pO+PYY/lGY8JngFJWOgA5PMwYQIIWSmUGTCjySTU+YIjm1t9wUsSOA9vfBL/TMXi9vVYnH7Vrk/bxiVWCQWcxMRCOHjtmp8gTaUpJ7u2wthNMddsxwdYcprGmSh9FC90mh5Qxgn0Jc2CpfUoEgneqk5Mcx+hEDxn+ppvW+xmhfaZEyMlVP+x21LMIZ6r0YhKqLv/hDNtv+NaYqlHfUDYzEe7MAHV3uex3BPF65v8AZYiE6U+zQR7ffCeVYIpqLO3FA+JtKUa/eVLIEOXE53vuv1DdIbbNqR5Gzs6GleszesWmlHnNvt0+Sc/UOGaG934CkZOU6auJlhrlVZQaEoL7TA4tFk7fgIWOrVXEVDC5TPxT19tMdsEbamQlEvFXWKPpmR3YTAtVMFS4h2HyYOIdD8JlugA4kTTMjC7t+FBxMihJCZQhEKPzYpp8w33nYjWImF17r9Mbw3x/Tlqcanhy6ixWM+JPNJjVCI309gUSfznhLLRW/eXPf5saOKyVDCru/ByPveyGOyLnvhaOTrrMTtIeGUFz6+LxXC2PVliOPGjGZSFlaosmT57iJUhm2+/ZAQ8Pz+GJn2O0mD/eTfbb8KV7ynRl/NkapGVOBpT5s+qF2GkuQ+r8ZC5JMmWzJUuZk3/Z5A2VH3q7sJX3SHBTow9r3RAoPrk+T1J4l0nwrYfs6z3HH3JJKmgOKEDKutj02hr6BzeyLQgQ+kn0og0IGDJ+BBiJ+L3GNGhdV28+0vuz9g9mZrctyNQVNlvrkkbbQ3hVO+8rdxhB2nrBC/n5xDRWsBK9V+Oyz2nvv05RyRke8GnxBfTaOP9piZ0eTkHk0r0WqOrQ6Pbe7bZO49pPYdMnyOJmxj1ctv4/WT2QMdjPZ04wBkFFWauRFCZj5zkslrSfmmr+8cKisrMH++4xVACCGkeLiEl37+BmohFue5+q+QGcloTyPWv/EgXm1bm6f2mhBCZh5Fq/khhBBicPkD9PRn99chs4XcAh0QQshsgZofQggpenSUNhnKOsK+PYQQQshshZofQggpVi7H0aD8Rij4EEIIIVGg5ocQQgghhBAyK0gJP4QQQgghhBAyk6HZGyGEEEIIIWRWQOGHEEIIIYQQMisonPBzuReNVgwdYbt7n263NwfdetTd1TtHRg5vE2W044w+nu6caRtffwkhhBBCCCGFpWDCz+jbryN+7y5szLS7NyGEEEIIIYRMEQUSfrJsplbViJbkNbTs38DN9wghhBBCCCFTQgThpw8d6czZHM7GcQAWHryb+0inxx7Hxp5RfUwIIYQQQgiZTDILP8qPp0EINltQndacbRS9vzkAbK7D2sX6lIPj6+OktoS+YDB0FM/M2YZjQ9pPxsmb1l8mgYNGmc8cDuay/YOMsvz1qjrn4uBpfazx++moY/lZnd8pz/85ib/Ol5v1hRQrsHGnhfieh2E926fPEUIIIYQQQiaL9MLP2U5Yj+5SfjyvJhrE0j0Nl9/G6yeBLbGQHI65W/IiVtfpc6F04a3yuThecVHnP4XK7o3o8AstdedxfE61kH9kHpESbRirXWIIIyM4tnUuOmqX4RFVji6ruTr/4APys+UDuE+Xt/1QPQYsW1hzkEKSt85reKRVXzRYWNOOxN4twMEGWE29QmwkhBBCCCGETBahws9oTyOsHQcQ2/kKEm1rw/14NAULdNB6Ck8+7ngEWfiuFB7eH/YKLN1duEkIPpur9HHVj5VQNdCpBZvTz+Ot7nqsHmzEnSqDxMJmISRBCFO9IRqb7HjLK7FqsEAIa1cc4WfoKI43A5UJs84MrGpA4ne7EDu5C+utTlAHRAghhBBCyOQQEH76no1h/Z4EtuyNo70mmw9PlkAHOVC5xtLvMtGG7zqCj6IEpcvFS/cAhsXLmRNN4u8ylJbJawZVMVSKl08H89D91NXgLn95BiOJHowF2pWFxWvRnujEFhzANqsRvZf1eUIIIYQQQsiE4RV+Lvei+6B+HwUV6GCLkA+mLtBBaUW9fqepq0Spfutn7MKAfjedSKDlRep/CCGEEEIImWi8wo/SSMTx6k4LB3bEsjjmO4EOYun9gSaB4QtdGQUekwUVUv8zDTACSewT4534yVSOICGEEEIIIbODUJ+fSI75mQIdTBoJvCejqi0vVfsH3blG+vb04B0jGIHidBwDqMd3rEy7DOmycqSkfJn4ex7DZp3aDyiUqIEkCCGEEEIIIQUlVPhRZHHM73vRXsCPO9DBODjTVi2EmjY80qT9hVQAhC68tdOM7JbAQasJaN2KdY7vTlkpbhIvAyecaHIyfLYsKw+UP5Go8wWjrPKNQJ3PHE/gBJLA5s6sgSQIIYQQQgghhSW98CMxHPNPeTY57cOpg8ga6MDdt2cJ3uoWJ2TYaL0PTtheOZmwo6w14WX9ebWXzvtHsD1pRlkrwbr9F7EaG9GRyleNTw9dRIsjICksbB48ggWp9tjhs2UY69zxl7Ufiwav4Uc1+nIKHRxCRtCjmRshhBBCCCGTzpxk8lpSv4+ONN3aAeyj2RYhhBBCCCGkSMis+QllegQ6IIQQQgghhJBcyE/zQwghhBBCCCFFRh6aH0IIIYQQQggpPij8EEIIIYQQQmYBwP8HCpgaf+1AI7gAAAAASUVORK5CYII=;" vertex="1" parent="1">
          <mxGeometry x="540" y="560" width="373.57" height="49" as="geometry" />
        </mxCell>
        <mxCell id="8jyKJ8MEoaGuotIZUo8H-15" value="OpenAI Backends x2&#xa;&lt;Circuit Breaker&gt;" style="shape=image;verticalLabelPosition=bottom;labelBackgroundColor=default;verticalAlign=top;aspect=fixed;imageAspect=0;image=data:image/png,iVBORw0KGgoAAAANSUhEUgAAAy8AAALSCAYAAADUVu5DAAAAAXNSR0IArs4c6QAAAARnQU1BAACxjwv8YQUAAAAJcEhZcwAAEnQAABJ0Ad5mH3gAAJzDSURBVHhe7f0NnBRnneh9/6MeQnageZsI6wRnhiFjCAKyo9EojJINbHJPlBtnT3aziUAeY7zdcA6S5MDumuyTj4nrwm3Ccm5YjzF5BGLMWXZHPmjmTgRWdEAT9cwiICGZANMjQSCZgdDDmIGj5rmuqqu6661fp3tmquf3/Xxquuvq6qqrqmu6r39dL3VZdXX12wIAAAAAw9w7zCMAAAAADGsELwAAAAAigeAFAAAAQCQQvAAAAACIBIIXAAAAAJFA8AIAAAAgEgheAAAAAEQC93lBaX1hlzz459NFzv9Uvvnp2+W0SS6lxgVNsmpuTPr2t8odexImtUCz5sn2hVNFEgdl/ROHpc0kl6PlzbfJ4mozo3XtkyUtJ8zMMDeCPqdyYZ1vE6L1eTn/I0X5bimA/5jZ33XnZcdj+2SzvUjpWf9r46T96VZ55IxJGwoDzcfkmfLt22dLhZkdqs8UZS55np0YxP/TqfLovfNk2qBuMw93n5f4p9+0nh79brXc+Lj1NC/UvAAwhbKEKgg8I0seM5MvcNHLbL9rpjSaecCmfyhvk28viJn5XEyVWSoIOP4zAs3cccyKRgc+t9fIy8nvu1Z5ua4pz3MYQN7+tE8OqsBFBy01NxUWuGjUvGAY+Jzc/N2/kw+OE3nzhX+Q/+eBb5r0Apmr8Md3PSP3HTJphnPl1PtaTB64q0ka1O9W2HvKn7lKk6WmxX/Vd2BSx7zUNTx85qVmnz+T87hyPSQ1BhEXdsyoeSkgH9aVcB24+N4Xku58dySl+a7yLxdWi+O0CEgK1BK7vhNdBvT95KtdksCV+PBtagXXRGXdpiO1bWq9is0cWxl+Ndufe+gN+dK1fyRfubVCBlLSo+YFQ2rKIwfkwX9fIbLrp2JXIg6OafVTzTNl8lS5JuTLe6TpO3vePBsE1jFPSPt+VRCorpblJrmU+MyHi5g01qmD39VF4JIzjlmxLJ+nCtZdB4MBz5kT8nIiJhPebc9aAYmoYMWpiX76oPRVq4Cp2fU9YhUSdeCiC+hmuV0npGKutxbHClzq4rLeWUYV5o/HZssqT012Qh55wnndntbvT8i0hbfJo7PMIvmwapdmi6jAwF5fq7Qnpsrie+cFv291UObarp4KCiZy3KY+HtvvnS/yM3VMTRpGhulX/tY8G5iB1bzM+LJ8p/FK+eV3vyAnr9siTVeZdOmS1m/8vTxt5izWsq5LE689J3/V+j/NTMrtTe71iPz2V/9D7vrJC2bOuPJeeeLTc+SPzGxwe38p//D5m+Xdvvd+7GNfl3ve/0Zq2Xzyr9jvT201LG+5LJMrXbD/3PWuEtbRf5GHP/83ZkZZ+LT8l795vxz9xzly+s875ZbpJj20f8k/ymf+/S+kxsyplcmzf7pQ9ps553X5t1rZVeXern85xdruR2W8mdVfuv9L5eG5XWZWc/q6OPx51/QyC1+382rWKcWoeUnLvhpxzbGDcmbuBDlkrgbpL9K7Ja7S1Jeuc5XL1N4kZawd8F+90s2vXFf1XFcIX5vnvkIXckUqx6tWuVzpS9aomLlAvpIyXDkP5MenwD4myR/zJxLWD1vyuBv+1519COxn1s8pj89cC+yv/5jZx0q/Z0el+0pq2OfkPy/SfE7+fUjyrTPTvlr51leND8qE2/XxsvOdPN8Cn5P/3PBtK7k+3znrWo/1GbmvJPukvZrq+n8InouFntv+42+O/Tl1jPbFPJ9pcn3ms9YFLf/67X2TZB79ecp8NTxb3rRclnFJc8zsfOqaly6Z5VpfbudZum1myVtIXlLnQtiyGf4/czjPkgL/m1rwOy1wXnq2qfdttpzzvceRDFjSfNfb54FrH7N+Luk/U/85Fs7+LPKp1bS5zn/PvvjXl265QuS4TX3MPnzO/nwz/A/mxl539u9jVx66Z3vOyeD/sr1suvM/cA4kmfc555v/fM34W5lhm2nOMYeVnwj1HVy7qUv+4srK4VDz8kfygU+rgr+oYOQby9T0P+SXvdXS9Ff3ysfMErpAbwcJ+nU9PSfxq26W7zT9pVnCZgcuOnBwllsme8YvldVXmgUUa10qcHm9LbVM62tqe5//ume53GXPv8j1svqvtqigRFz7sEy+JTd7tqnzbwdHZpnvHhB5//8lT3zserNErnQzqk4VQLyuAodaedia/kXi0/9CHvzu0zLFLGWLyQf/RgUuooIDZ7lxH5XPfeMfzeuKDgxUYDJeBQb2MrXy7NHpcsu/7xL13elRo4Kgz135nFnuH+R/nVfLebapgpwviPyrWY+9Lp2HA3LzQrOI9vWFrnWYND+9zCB14vc6IYe6psqN1pWxqbJY/cjs3nNCzqnvzsmV5svvkPoCSl45spNC6S+oe9UXtq6eTV612isyz983JCYNt5sfRvcVKdeVN/1jpq9anVFfpvYy6gtZ5XOxWv8Dk81CSurLM7Xc7onzPctYX3jmy9pZZr2KQHUe7Kt4+ofmNrWMnuwvTX210J7Xk9nmmcNyh3n/ji41r7+Azbw1FfSFaV9F7jt2Qr1Xfxa+WhGHvjKp8qZ/mKxtmSuanquQuX5OuXzm+gfkkyKPu/ZvR5f+3LzHX9NXQ1dNPOjatvez1JY3zxf5fmpdYVdkncKd/gG1l9snx3W6dZxTP47WuWH9gLmWC1wFFrnmk3bBrD0RU8+b7PNNbVdiNdLo7IN1znrPDfs881+Rtc/ZG886y5mrxWabbXtc6WpeF5id9ekpXWFkuf6sE3FpS/dDnO3czjn/ij5GVuHYrM99DllX2tV5Xzc18L9q13Kkrs5vbjHv11ff7aRw5v/OKsCYvC3RgYX7c8on/0amYyaJcXKjem/G/xO9zfqu5PbSXRHPKf8+TrBgf/75n7PZzjOLzpfvu9E6r31SAUFqufVnZ6eOxaxqmZY8jrrA6Hzf2X22jp/N+CUSEP65qONqFaKnyiz3ZzCYTM3y8Q7vMWpcMNv+rg+c80WQ6zb1d3aRC9rW93GyZiv8+1izfuNUOcX5frFrtlzf7zn8b2629i/ks9Xnlg6m95n99/92ppNtm6+fU985qRrBUOqHLAqBSzEVpdmYrl1I1aK8ID/p+q3I2PHmKv9fStP7/0gts1XWvWElKP9T/q5NfZpXfdxV+L9eqsaph9de8tR4PN36Bdf7nHX9D/m7IyZJebpVBUM6CLnOGwzlKnP+lRk3ywfG/taqoUnlReQnP/n71PyV98qCq0Tiba4amzcek2/96rfyR++/WW43STn5wq3ywXG6NsNd4/E38tS/HRVRgclCFTx4eGo1/kZ2vaC+gKc3JAOTuX/+URl//qfyr64ajf2fV0GOTJd5j3zOpBi61ia5rm/K/pfUusa9W/7YpFj58AUc+/9NN/mKyfSP+9Y1jOkvIOvLVH/hDKAphtUEIXBFJSGPtAS/nK0f9+QVKfVlc0wd29gEc7XF/sHTy7ivAm1u0QVD9eM+z/khj8lVE9SDL8+bW9xXZVRg8mG1vCqAuAuQbXv2WgX8aR/WX+ruJgphhc9MVwMHyDQZe1mfW4pVYEjTdMxzVezQQTv/YYFODrJ/5ifkPt+P6uZ9urCqAoFrXQGHpj/ztJ+lzfuZKCb/7oKDXfg5KDuSn7kquKsfVE+wkTw39rrWp/KqC2/Vs10F+5hUnEsVuCti52VHMo+u5jDmnH3cdW7Y55kT3Ll4ziE70JQJqnBvJxQgU6fzXM7tPPOvj6f7XFY7oM91O2B1Pjf3sVbSFMKyS/3fea88q8/KNZ9f/rUsHfVjMatQH/g/sf7PDV2Q8uRJ/f//TM+7C2G55d9DBRVO4OINVnM9Z42M51kqX+lru2zTJqrj5wsmdJDtvK+xUhUyrIKevnjjFBjt778z3e78hzHnZ+KctXxy3l1wNAVR2WWvM3VhJMjKq5yX11x59VverC8snZDdnmObg3dPkAr1GZ973cwr+sKALuDb3y/e7yoryPcFcnnLd5vFpL+Pk9/d5tz2/19rejlXgN32UtwTGOT0v2m+Q/y/QxkvMGSQdZtnEuJepXVRIBlM2edgKZp8z//brdLS0pJm2ipf+rhZcIgUJXh5/ay3WdRPfvIF+atk06xrVRDwW+no8DWd6n5Tpf6RjK808ypoOKmPf0iNTJK1ruD2dDB0+DX1MO49rtqS3GXMv3L7NPXL0fuq/MQVuPh9rP5qtTddctgVVGk/OavfdKVU5VErNPcDurnV63La3QxL+3q7CjhExld5g4T4L73NsU6f1N8e75YpVk3IP8r71erefOlHvhqOY9Ktjvf4K+vMvC24XA7UD9Jg9lcp3Dj9e2j/SOkfeHU23a1+FPMvpDjsQoVdg5Cd/8fRvnLtVA3rqzZhP6D+H/KEvHZOPYRewTRM4Sv4hRZeyB5sjdfWqC/r1Je8/QMSciVL77unsGL2Pa/C8wA/c98PhyPXz9zL5D/JFH5CuQo11rmRCvaSQq7IefYrWchyS3fOnrdqoSom6itIKYX/b4Szr8L6P1dHDud2nvkPHgNVgFbBuVNQbttzUL3uDU6t8zNtHjPIKejJM/9K5mOmpfk/yfZ/bp0/LvkGbdeqz2nh1JDARcnjnNUybjOPfFkXQgJ9SVJ0wGB9L1rrNPmbHJPJKq/uQneYxgXz7c7laf73rULl7RNktzq/sgVZOuizmsiFXETRBX4niLBHgEwVtgtj1zBZNVuqgO/9fwj2s3Fq7tL/D+Yi0zaLL/CZpKutcAeamqkdsT+vXP83zQUmzwW3dO/NJpdt2s+dQNgOetX7rN9L+/etFPZ+dak0NzenmZbKV35sFszLRWlQRc7ES6MH1GRMK3mH/Y9N1KV2u2nWdz7vmjx9VmxPty6TTb/6rR3AmOWCTa5+K292m6d+7tqSojE1Qud/Iz+xE0LVjNd7o5uv+fbT3c8nH+dfl1PmqZ8/4MhI/bjovinjr/87efDfO12TPbpXIexO9u51ufvSRIUuyKsvB3Ff9Q4vPKRl/eiFBRyFyvAD6iqI6CYsurrbfbUs7EpZ+nyNk6v8V6QGjWmS4/4RMc13PFeKSyL7Z25f1UoVHpwmdQWxrsK616ULI+Y1i3OFcLYsTgZu9hVrd6HGulqsjptuWuNel25Gk7YvUjrmnLUKJ+516aaPJfoRTLE/+779B9MWxrKe20XPvyr4d6n1JWvDsucxrZArzwF557+w/IQ1f3IXiq3Jf/7kkv8kdT7OtQu3Yd8zRT1n82BdENK1O1aTU7PNZCHcvlig82sHqOYCgbXfmWtA7OZo+v/SW5vtcGoY3Ff109JN4HSfC10LEFKjlWyiqKen43KNPob+QMJq3mf2z5nCArZ3OzVBeXTAP7TPbubkqw0PnD9qCq2hKWSbaeS8zWLI438zcMHNCtYLqCHLaZv2xQj7d0oHOyekXX1Humv1ilcGKZWLsvv5Lok/3y/tN1XL7IfeadILV/Lgxa550E2uUn1F3JO7+Zdm13ro13TfExX25NNnpPdNq2aiuEyNUJZanfibegQFb3+d1ORtbjZQb76hSmC5MrUieghip4+KZ/J3os/CGUQg/m/u9egmaNFj/dD5mgnlxVyVz9Q0oGh8V5BT/Q3svh76yy/3L/XMP9QlZa6iepspmC/qsGr+Isv0mTsFlFT/Ez3ZzT/ypgMXXVDTTXCS6wq2fbYLeSpwW+gcC9PfwFWoadNVpOoHzHMPHteU9SqvmzlnvU0EXVO65kHFMGu2+pxDrsb7ZDy3S5B/qw27c+65r8jnK5e26fnmP8dj5mc3n0p9Z+hCYOA+Tv7+O7nkP8lelz6fw0bDKuo5m69kPzjz/6a/a8JqEczxcf4HHYEaa9M0LhhspGoKrb5l7u8VUygNFCr194LVWfyE7Mjlt+fMYXk8cJVfce1jcnKvz3yWDQvt/l7u4+0/N8LYwa/3IpcnqDKTJzgZ4DbDZN1mMeXzv+lccDNNx6wmY6FNkbPIZ5u6xYE+r9R2HlH/X9YFF+s8y/WCQ36K22zscrlRBS01N42WBhXEHHzo9ya9cCUPXoLNw3L1gqz7jglgxpvLlUdesvq21Nf7g5m/lJlXqRCp64UMtSPXy8eq/XU9ubECk7FXy8cyNP0qpHlYOvt/qfu2vF/mujvAa19okBp1oh79ceYKN6vZ2flfyX6r2Vl487DCfE7m6uYV538qu75ukqLE/KAUj6nadfVhKJjVjjakb0XaamWHrvY3hTynBsH3xZpiaj0K+ZJV7CYZOTQ5c64KhlwJdJrkuDtkW5NVkArbf7dsxyJEzp+5OTaqgOKulSmUvZ+q8OZ03gyV6ufkORb+Amxehcps0jdPKlxu68y/TXjIuV2K/Ft9ROxzz9+kMS+mIBL8v3PLL/+FtaO3/0/0huz/EzMfNjywW07599L9kaz+Ne5Oz1oxz1mTL+9FItMPJgtd+LUCmGxNTU3BWheyPQGHu5YkJNiwO28H/89Dmx46FzSs77+BNgXLwvwGBD/zXL5Dne/CPM+7AW2zuEKPf1b5/G+aWnMrqLT3r7Amtrlt06lJnab2S3RwrcsL+oKL9f9VmouRpWk2drm0H1Nn2LX9qjQ5MKUPXt54TPa8JlLTmG00sL+Uf/CM8KVceb3Uj1VByZvO5cr/Ka1WB3jvCGS3N92sCvVdsic5JHGXvKmDnmoVsFjzerSw/0s+oNZViJ/85MdW0PSBT3/Z0/H+Yx/7ciofR55TgVZwmYJ8fZv8r/Mx+eAXfKN86aGHjz7nHZLY7wu7rCGT47ucTvXfVMurYGj6X8h/8XfOz9s35bSO0dyBlRnJLHrNxvzMVbS8+lOkmv14RsbRP6zN+TaBstvRVsz1jqwU7LA5VR71BwWmNiN1xdD5Yp3nuSJqt9nOVqBOz76amq5TcYpV4NICNSnmRzEseDI/fJkCwYI7r6bl/sydfgKuPJvOt4U0G7OPlTsY0x2E/c3GcvyxPHNYdltXuIOjnuUvdW4Ur/mFcwU6pCO2Qx3LG/UPfMa7w+d3bhcz/7ovWEXdbFmszs/C72DvtIX3503tV/L7IY/853TMgpz/k9RgDfZ55rl6rwvlgSZcueTfT+3PE7p2UjcRc41cVtRz1jTtmzs7uf7lzU3SoLbtHfnN7oTvqaFQefcGci7WhRjTTNOil3UVeLMELhYT+DZ80nXempqa47tcAUqhgYtZV/7NGMN+A+zjM03tj7tzuJ91bPXvxPfz/T8ofJtFpY713QM8Zjl9t1gXHNU501xt7V9hF71y26b1e6KbF88VUwur/yd0LZc6pwqo0SoHRbjPS7XE24LNv/z89z+x9B6QTd95LFVbErh/ix69K7juwLr867HY93pxCtXW/VbO3qzyK777vOSW/7AAKOweLv771FjS3NMms9Rd5x2Bu88H7reihdxzRcu6rH2fFz2csnsbdjMxPWSzM/KZP19H1Wvt8n7fe+d+w3XfGR/d5OwpXXMTmidHmv0YCPMD4hmZx8VqWmHGS59mNbMwL/gExoVP/jA51Be/e0x28yMYHE8+KNm22hH2wxnYXkieNOfHNyndD6fuXGmPvJOtSj6n/KX70c9y/O112/c9aLvWtx0tZFt2cxgz42Mdk9dz/8ztEYjcbY318bLvn5E6NuHHys572N3PU/ug83Oo3r09JeSztPnOISVw7DXnmHiOrdkP5+7KYedf6HZd20zzWXmPl5v/2KmAw3WMwo5PqJB8hZ7b2fLv5CfXO0wn1xf2P2J/5uFBbMjyufzfZc1/jscsbD1h/5P+fdDLfF/kbvXewP9Gtvxbr/vuO5HMR9g+ZPg/Nu/Lfp55zy/r3HppqnqvfY+YZD5CPiv3eajXqzuR37FnnFlO59e5N5L7XAuezx6epp3BZf3nbKbvqdTxCDvPws7HPPg/y8C5EbLN0PMnD9m2GXruO7znT3bh/5vB7wyznK9Jbqgc/jcdzufqPsccoee+EVg+2zad193H0jnOuezTMFKs+7wMLHjB0DKF/zedYAAoEzkXdqPM+UEK/Pg4haEBFlyGDXt/rjkW/IFHOhyzUrC+V/T9mSJU2EMmdlCSy4U3DA/D6CaVAIC8WaMcSUhbadMMq1wU2Ol8ROOYlYQ1SlSm5o0ASuroG4X1PfcjeAGAoWB1apZgB+lZ6e8BEUnWyEj5NAUBx6xErL44vv45iq6R8Y+YBqD4vvmbUSKxbvmLu01CgQheAGAo6Buk6VHWqueZYZLNtNDun0LTFqD47BHIpspi1/+cdRd4Tx8JACXx+Dip+e54mf5pfd+XLtldYBBDnxcAAAAAkUDNCwAAAIBIIHgBAAAAEAkFBy+1tbUyevRoMwcAAAAApUXNCwAAAIBIIHgBAAAAEAkELwAAAAAigeBlyEyVR60x5r03yypMTB64yx6vnhtt5WoEHrPJM+Xbg72/s/Q9TJrK8o7Wy5vt8+fbC2ImJX/WOu6aKY1mfjDoG/IV53tnYAZr3+39HdjnBAAYPgheAJTMcn33+K6D3CkcAAAUBcHLkDkv5xLqIXFOjtsJA5CQR554RpY89ozcx12Cc8QxK7nJM+XGapHjHeV5p3h9p259/tyxR/8jY9BZtXq69itzLVJb93nr8Uw3nxMAlAOCFwAl0XhtjVTICTlEcIiiMk1u67tkR5dJAgCMGJdVV1e/bZ7nRd/n5dSpU9Lf329SBqhxqUxfcbW8ufFB6b9lg9TVmPTedjny2a1yycxalq2SOU3OAlpcjt26Xi6YuTHr1PulVY70zJcZDTH1cqsceHaKWn+DKkyJdLeulJNb7GVF6qXyyXukaqyZlYScVHnobjOzbh//kmz9r38iFZ3fk+b7kysoGd0mfHG1mdG69smSFvdVbN1vo0n0LtoS0v50a4FNdHSBYJ7IrmdkR2WTrJrrrPSE7Hhsn2w2czZ72WlmLtN2dXvz1LpE+va3FnalWvfXuH229fnZ/NvMNf85HDN9RXehyI6nz8mN1jb1Og7KVc77Ap9DLjIdM5Onc2nWa/b9jNo3p5Yot+Pq36btuGs9Fmt/p5oZxb9/1vZr5GWV39fmuc7JxEFZ/8RhCftXcbY9Oc3n7c+/f5vW63Vxtf6ELHbtQ2776fvM88l/1vMs+H8ZOJ55sNY1QeXj+yJ3u7Ybts7s3wdGls/TPvbnPccouW7fMcl2nuXzOQU+cy3jORTG/l+Z8DP7+Nj5DvuOAgCUq3eOHz/+IfM8LxMmTJALFy7I7373O5MyQNVzZOJ1tTLpupvl8mOb5MgXn5Yz//oHedcdH5fqD/1BFdyO2cvpIGdepxy5e5N6/Xk1HZff37RIqu+YIX3/+qIV5IxaeLNMnDRF/kj2ypGfjJIp110jY2dMkje/+YT0zrhOpoxx1rdIqrbdLlNOqeDGrO/ctBtk2v95g/z+zB75re+q3vy/+pw0vmeU2vlRcsW2nXLApJeC/qFvPPFd+f/s+JX8ywtqOv62fHL+h+Qz7zkv/3LEKRRclLb/MK9fGC9/WTdaTh16Vdr6zMt5GSd/dv17ZVrdLLm+4hVZv+mHsu6FX8vVMz8oC/7kbTn1H2+IdTh0weiOWTJKFU7+4pl2a9unRtfLpxd9UK678CvZ+bq1MkUXMj4tn665qAp/35V7dtv57K5V+/DWr/PMoyqc3na5fMfKk72eK96j8jW/Wq4+7uxvjvnP5ZhNfq9KHydTay6T3ZsOyajrZ8nsmVOk8thu2XR6ilx/zWi5Qq37l2bx7EzhWhci/38/sbf9Qr8svm2q9Fv5uijTamfJNRPedOXTZcy75dOzr5DXXrTzqQtsy695XRXY/l/5W70udW58etF8+fToX8t34xft9+hC+Oc/JGNcn5N1Ds2eLH3HU5+TPs/+6WOjXZ/Rebnu5nnyBfd5Zm3/vVI9e5ZM7XTWp5b7xIfk//Ccjy6zZssX6i6TQz/8le+zds4LV/6dbc5MfU7VtfVyfc175Xr1mZ5TBXnr/0B9Xp/5mO88C9nPK97zMVl88/jUZ5Rz/nM5z0R+ecR+Lex45usD16rP/YorZPaHxqvgyv4MTo2ulv/jY/Webeb2fWCfG//fPxlnBT/JZd81Wx6d/OtkHq1j+8cX5RVzfJzAxXrP86nzL5fzLPU5jZfjzjkU8jkF1qWmK96j9/2MvBh2zqdl//8667WO3/hEcl8AAOVv+DUbi7fK0bUdZmannI+rBxWIqJDB1rZVjq7eaWa0Dulu0wvVyLhldoplrMibzzrLxdRiT6VqU8z6Rq2ZL5W61sa1vktrn5KTvTGpumWRSUnZ+9NXxCpLdB6SUte7tO1p9V55PXNYdluluurSjhLkuRKakEd+dkIdvhpptEaLUgXPD+sO2Ps8V1Xb9uyVdjU77cOukYNU4bUhFrxq3bZnn7eWIycn5D7f1dnN+w6qzyIm11yb6UquP//5UOs9djB5NbdCnSePJ/d5nFyVz/omx0Qv7u374d2n42dTx9MOdlyjI717gtr+eXlNHzdVWLf6kexyXWlW58bj+xNSMXd28txYPm+2VKhjkcpzmKmyeG5M+vbvdX0mKl+7VD6rZwdHCPN87ifkkD4fJ8RCR4tK21E/eV64r5SbbcZmy2LfSGieGohDB+3zTK/bCNvPzS375Ljatxv9o0tlzX8e51kxqVXrWiHnWLXtOajyH5OGean9zOn7IHlu+GptDu3zzrvooMgJXDzL5HieOY7vcv2fqwOr+/FNrjTHLGxdAAAUaNgFL92H3YFJjjp77KDCrfdVSbhKIW+ddgIiR73E6tWPa/xwsrmZrUP6e9SDO2By/PgrsrS5eVCajIXxFnBLo+/YCU/hTV4/ZxXeJrxbPZ88Va5Rh6zvrN0BNiUhbcdU3mITks1GrMJrIi5t/sJrsZxJSNiqM+Y/Lwl5+SXX8T6n9tE8zZvJ67SF6YcptjoVO8fPBDsVdVOtgnVj5TidaknXj8TulOwEVVNlliosBo6Fn1pomn8/tTTHLOeO905hNWR567xwAjE3f4HX4t/PhLx2Tj0kA450+2kPhlExMXXctIIGDkhznhVV4P/EDOaRJjB0+L8P8u1jdJVpxhUIXJTczjNH5m3S9wkAUEyR7LCv+7TM2eaaTF+W/NTI5bqfS02Td11qSva3GVL21Xd7NB17CrQXz5luquNdl54Kvd9H+lF7nEJNTK6aoB5yKfAnRwxyTSH3ftBXiL3LBftyDAlVUNf3TvHnzXtl+oTc91irXWugAhh7Gd+9T6yAwT5+urAn+w/KcVcw6IxKN22iPgemymL/Nt19HHJkB0Uxabjdty5Pn4/8WYXVxEHZka6wmmGEPX/AkZET5M31nxvuPk35Kep5luO5HWSCNI/s3wfWuZHz6IVTpcF6f0LOhTR5K+Z5lpeCjxkAYKSIXPBidcav0Z3qV8qBW820sT1Y85JVXC726ofW1Hrck3+QgEFl+kjoJlCP2cOx6mn9/nRBQzapYYHdU7qmJIVzrqj7r5BncGhfIF9LfE13dIHSuUKcWk43DRoGzhyWO9x5N3kLNo9xfQZP202RGm7337zRru2YNlHk5ZdOqNhvqsxSAaZVkDSBoH21XXdQdm/PmbxN9LKxr6LrJlxh6yr0/DBN0bLV+qQRrNXLwNSK6M7hYfkP7cyeQdHPsxzO7XD+4D+37wPr3HAHvBnpc0gH1GHnYXHPs7wUfMwAACNFxIKXRTJO14rE94aPBpaXDM3D0tGjjbW0SMvX3J1rSsBqzqMKED8b+h9tT5OPMyfkZVWmcfc5sKkgpU4VsLu6koV2uyBVSF8TP7PuTFfyMxiWTVZ0wGMCmGTTrGTzJN0USgeBdlM851g7hfrwZjt+4c2mrP4h5rml4CZ1GaRrimZs1k23ws6LLO+z+ZuJhe9nYQZ2nhWVv3lmjt8H9rlhB7y50QG1Ds50AOOtLcztPMtN6LpM00IAAPIVseDF1JbUzJQxdoI9bHJBzcZELjzbLn1jG2TGumDn/DDzP/o+ezu1s6Sk4YtVqPQGCXq0nsKbjRVIFTDu1lfR9zsd100H+Op5niZnjQvm252w96WudCc7HfsKRY0L5gU7gmdkanHcBV6rqVYOzXkC+R8is+alOt8bdlDlbrJjF8SnLVT7ZYLAtpfi0qeOte5QnWyqZ3VaDx5XLzvwcXe6tzpmT0h4ayhNp+9pC4NX3gvjDOiQ4Y76Tv4/6W4KNFUe1c2RstyJf3mz/sxPyO5kp/vU+eg/vvkbwHlWVOoYftI3CEGu3wfOgAb+z1Odf+mbiJ6Q+6xAeqosdjfPyuk8y5HVn0mtKzkAgfq8b5+tDrnzOQIAkLthdp+XBnnLcw8W00xskvteL3p44yaptJ4r+j4wavn3ut7reY+5J4x9bxdzTxfJsD7Dey8YYzDv86Lbfrval+umMY/LfFVgcd2fQReu0vVP0E1M8mpuYZqmmDlHWGdef97s5iVhTaV0Xxtv/4Pw+3Rk41+P3l6XzFL5Td1HJMf853LMrP0bZ0ZKM+s198qwmxZJYBS1bJwmSSnBY+YestbOs7PfwVHbnGU9TB4dnmWs18TaF30vHPcxCeZNcZ8/5pi57zOjWevX9yjJslxQ9vMia57cQj9T1zHLNf8DOM9s6f4PMgj8Lym+z9GSy/eBETg3fOuzj63vfcn1e/ch23kWui5zjDz3+PF8RvZn03ateq91j5iQzzSD0Dw5wo4dAKCsDJ/gBUMspMARKVHPf/RZBdkCCqNhwgvFAABgpIvkaGMAhpuBddQHAADIBcELgCLQw0E/Q60XAAAoKYIXAAAAAJFAnxcAAAAAkUDNCwAAAIBIIHgBAAAAEAkELwAAAAAigeAFAAAAQCQQvAAAAACIBIIXAAAAAJFA8DLMjVm3QeZs2yDT19SblCi6S76+5DnZpafr7jJpAAAAQH4IXobEIqmKfECSqwXylRubZfrJFlm4/WZZ+PMnTDoAAACQH4KXYe7C6pVy4NaVcnRth0mJmLEL5NqxffLzIwQtAAAAGBiCF5TW2IkyxjwFAAAABuKy6urqt83zvNTW1sqpU6ekv7/fpAxQ41KZvuJqeXPjg9J/ywapqzHpve1y5LNb5ZKZHbXmYZnRcFaO3doqo5+8R6rGmhd8y2n2sjEzp8Rb5cDqnWbGvF7/qnrfablyW5NUmvS+9k0hNR26qVdqGbUylYf1csHMOa9fod97uknmNDk7INLdulJObgnJj497u7qvS/IYKM46wvjXG5p/6/g2SIWZDeY/Zf7fbpUvfrBCOr/fLPdvNomFes9G2fXhKfLz3X8uX+o1aQAAAEABhlnNS0yqVqhCu6gg41bdXKpVusc2yIx1i8zrjhqp23aPjO/YlGa5eql8coMJcuxmV9YyNSqoeHKpjDJLWfT7VNAhKjiwlmuNS0WDCoqWmdc1XfA3gYm9rpVyLK7zsCpQq6DfO0etztnukfaEVDY9LJWNIpfWPmjer/KiltVBhrM+PbkDDqe52IGN7dJn0sLoIMezn2p5UXnw9KcxgYu4t7exR6YEjqs2Xxrr7RCn9v3ugwAAAAAMreHXbMxTO7JT3lCFf6mZGQgSdE1EqrC/U87H1cOkKXZgsqxJqsYm5ORGd83CTjmpAhMdrFzpK5N7ajW2tMrJXpHKmamC/ZhbGqSit11+7QkudABSI1P8ne51DZCrRuPSC6+q4CMml9eahGJSQcmUGp1/1362bZVfq2NW0dCUOma1k6RCEvLmC67aGLXcUVctVMpeaeuww6XOX6Wp6gEAAACGwLALXroPewvUl06fVX8nyuhGe96WkIud5qlh1VSYZmNjZur2Vmelv816KWXLYavG44op7oAjLuc9ZfQO6e9RD04gJItknFpdX8eLniZp+n0XVZBTMcnVtkvrOe1dTgcJt6Zv8jUQo66/WgUl/vyHHLPOHiuAqlph1wBls/erS6W5uQhNxpTPX1WnArqX5N9pMgYAAIABKt8O+709vmAjJRBwZNI4Ra5QD1ZzsG32PVfs6Z5Uf5shMmqS7ueim6+586UmV38bixVA6Zoiu1mevVywyVsxff46+74uH3jtZlm4++/lhyYdAAAAKNSIHG2sr0e3MctR22l5Sz34+6ckp9CmV4PjUk9C/dUd70PydeuD0u2pedopJ53XdPM5K+gpXQDzjZ+roGX7zfLLq1QQc+OX5QaTDgAAABRq2AcvVhOw3lcl4W8ClsGFw7pvy9US8zeRWjZTKv19PwL8zcTSNA8bkOKsM7xJXQ62rDcBTPh79WhjLS0t8rXlJmEAvvHaMfVZXCt/OsS1VAAAAIi+4R28LFtlDRfc3eYdAjkrq9N9TKqWuUcWWyRVujlVfK+vRsJrzDo9HHJcTic753eo5VVBv6apiHfEN/1qaubn1AclLWc/V2SuQdFDKXtGT1PS9gtitDEAAAAMU8PsPi/u+5BoesQwb/Mn+54mEkgP0sMle/ul+O9/EnrflZD7xViy5s/cB8Z3L5n0MuXPf08Zt+D9Wfz3hLH48hFYJt1+KtznBQAAAMPRsAte3spwM8Zis4MXfY+U8Js1oggIXgAAAFAkI7LDPgZR71kCQwAAABQFwQtKq/fXcloq5LoZd5kEAAAAoDAELyixJ+QL21vkaFWzdd+XXdcRxAAAAKAww6fPCwAAAABkQM0LAAAAgEgYFsGLrsUZPXq0mQMAAACAIGpeAAAAAEQCwQsAAACASCB4AQAAABAJIyp4GbNug8x5cqmMMvNRYOV52waZvqbepJTeUGyzmBoXNMn2e2+Tby+ImZQhNmueyk+TPDDZzA+VyTPl2+q4PDrLzBckJg/cdZt1fJ1p2BznEWDYndsAAAwyal5GisalMl0FJFXLzDyQNx24NElD7ITseOwZWWKmO/YkzOsAAAClNSzu8zJY94zRNQp1k9rlyGe3yiWTNmLo4GVFg7zVulJObjFp5UrXdCycKsd3PSP3HTJpDvOaX9/+1tIVwq1tjpP2p1vlkTMmbSjompfbZ8uZsOOSC/N+KeWxKoTJV4WZFdHB1T7ZbOaG1lR59N55Mk09CzvHljffJourzYxHIvx8yXRuAwAwAlDzghFIFwxTNQdLdp2QirlNNMXJ0Znu4RO4WM2oTEDmfJ47uqbK4uHQTE+bVa0ClxPSvj8hFXVTpdEkOza3OPneJ8fVvA5w7PkhDnQBABimyrrmZdSah2VGg69A2uuveamXyifvkaqxZlYVbE9ufFC628ysw9RcpK7uxuXYrevlgplLWSRV25qk0swFllu2SuY0TbS20X/LBqmrMem+5axaouRrIt1hNSZWnq6WN/3rcu2jfz1+7vXmtE2Lfx+Dx8xal7TKgWeneI5bunUu+1qLfKq2T/7jvy+Vr/zYJJZCaC2IaQ51bp8saTlh0pRALU26K/pOcyoz679qHrJNXeheNVe/wb/O1JV6m+91q5ahRl5W63ptnuuqfeKgrH/isHhPW/+6bAVftc+l5iZrLYjrWO+LeZbNv/bL3r/JgfeZbYg5JnkdsyyfpdmmqGOwo9L5DLXwc8OqWRFnX+08hAcl6fYFAAC4lW3Niy48z2g4qwKClXLATMfi5sUkXQhXgUuPKmSbZY60i1SteFgq3ZdITeAi7ZuSyx3Y2CNT1i0yCxg6MNGF+nhqfQduPSzj/MupAlLVClO4t5bZJCd7a6TONZjAhdXOdtqlz6SF86+rVbrHNsgMs03/enTwYC9nT+5AIqdtmn28wnUs7GMW0p+mpknmrJgkp5PLJaSyyXdsLctkVq1+rJD3fXS+lTLkdIG3vstcBbevhLcn9BX9ebLcLGLRy91rCsrJZfeKzJsZuMrucAIX+yq7LzAxBVhnu3Ytgm+b6jNvuP02ufGss9w+OR6bLauaXYFWyLqWPH0wy7kURheqTed8E2hMW+jusJ/KW161INUqoLMK82ZZU/uVz2ACjQtmq8AsIS+/5C/sJ6TtmEqL1Uhjcrv2MbMCCStvIcfM2lcTWJn8r98v6n3B/OtjsGriQbOcOTfu8n/mU3XFixzvUAHxmRPyciIm11zru5gCAADyUp7Biwo2ptTognpYzUjKqDXzpVLXeKzeaVJELq19SgUSKiC4xRVw1E5ShbaEvPlCh0lQ2rbKUdf7rBqcRrVRHbh40nfKSc+8rU8X/pPpHZLoUIWtsZMKGwnNs82d8oYKEqRmpowxKcWT2seja1PHwj5mol7zj+Sma2RSn8GlF15VheeYXG4FKm5b5FCnfuyTV36qCv6DrHHBfGmIJaR9n6vW5cxhucNdC6P25ZGf6XlVIHUVsJfPUwX6wBV8tWyL/4q+MWteMnAJ9H8w63rclb65RTcnmio3+pu0de1zvf+EHOpSDxNiycJz2LoKc0LuMwV5J/jRNTdO4T4VfKnCu9kvd62MnX8VOMzz9zPSNRWuWgi1A7rZ1OTK3Av30yaqZRNxaQupyWjrPm+euahjlqpZU9vfr45NdbUr+NLBkEp3fe5te/aqwCQk//ozTy7nBEsTvLVcpsnYIet4JOS1cyo8D2k6BgAAcleWwcuo669WwUZczoc2eXLUS6xeFX7ih30BTof096iHSVNSBfHOHqvQHaiRcWv8iIwfqwKmw8FAJcxbp12BkHJp7YNyILQZWnb+bV46fVb9nSiji11KMvvY1+OvwkoTfPW+KonQEnzQlvubpbm5xE3Gkuyr8E7tgQ4mju9K15zH5fVzvpoL+8p637ET4YGK37V2M7Tw5lHp1nVezqlFKyaOM/M262p+WnnmqxisgnpYf5hgYGVJnLOClRQ7SCpuk6mYTHi3ear4j5kd4IyTq6xaFZW/OvV90NXla/plBx3+/OdybJfXq4DHtb7Nevue2iAAAJCvEdxhv0Yu1/1cdNOmbfZ9TZwp0EdE17Lo5lhWAOMst8pbs2FqZy5aNQjlzR94pZQgYCoJX4f9pw/KZN0UytOEyO6vkGoepSZPXw5lckx0OTS3DuwqYJprrz90ebMu3XTKs03djCn3yoghlpBzr5unfv5aiUGRIT8B43R8Yjdn8xz/dKOBZWMCyLOuGiCrdimsFgoAAORqBAcvcbnYqx/c/VNcU2A45Z1y0nmtVdc81EidO4AxtTPBJlEjyVnpH7RL/UV05rA8bjUhmp3s22APYRsMcjw1L2cSoitrcmvqZK9rR5fdXyLQt8Osy+4H49qmM3masEVQoKZl4I6fVZ9ZmqCosVLXVJ2X17LVpiXZNVxW07Kw4x/o2J+FqYnyBqNm8ARXUzUAAJCfsgxeQptNmX4wKSHNw3K1Zb0JYFzbaDstb6mHypn+zvmDb8xMtaP+Jlsmf1dMGcBd89telDd135bAPqZrgpc7PdpYS8tW+dLHTcKQcAq79lVz6TqYpSmZadKVRz+GzS26c7cOYPydwMObhxUmfF1WPxjzvOhMrUKwQ3rpmrC1vRRXwWRIfyCVj/AmYF5Ws65kn5nw5mGFstftHsTBTLt0EKqOSR4DEwAAgJTyrHnZcthu4pXsdL9IqvRoYb360mrKhWfbpc81Mlc6eshl/0haVoDgqWlwOso3yfQ17gBBbTvL+otq2Sqr2Vt3m7/myK5pqmhoGkBH/g61XhW0qX10H49Raz4jVWMTcvLZ3Pr7BA3xaGOTZ8rdesjbZGHXXIV3XyHXwx37m42pAq/ViT8walVMHmhON9qYes8TphP77e5RxMy6qucV4X4zpgO5qyZJjwS2eELC12enmOwO8BVz53uCsuXNurbhhOwual8W48xh2d2lzprANnVTO2/H+wD1eermYMd/lqpR2bzvoPQFPstCZAjYzMAE03RwAwAA8la+93kxwxvbhU37PiSJ6x+WGfWv+u7z4r9nic1/P5LA/VIC94sxrPu4uBcMu89LTYZ7qGjhebK51ufZR0ea+9RYgutN5SPHbWrZ9lGxjtck3zEy+Q27y//g3uclWHAM3vvEvu9GskmSvor+fZG7zVDAnmX1sMSewEY3EXMNABByn5fUe3zLBtaluZYxr/vzYDVzm+Ad9cxz93ZrpC1J3qMk7X1aMkmzbbfU/WsMfdw8Ta5892AxqQORdZvZjqmH73M3UudH+P1Y7Dyct+/1EvZ5u9ifix5tbZ+I+zPySJc/AABGtrK+SWXZyxAMADByCLoAAEA0jOAO+wAAAACihOAFAAAAQCQQvAAAAACIBPq8AAAAAIgEal4AAAAARALBCwAAAIBIIHgBAAAAEAkELwAAAAAigeAFAAAAQCQQvAAAAACIBIZKLhPLm2+TxdUix3c9I/cdMokFctbVt79V7tiTMKmlEJMH7mqShpiZlYS0P90qj5wxswVqXNAkq+bGBiH/AAAAGExlXfMyas3DMmfbKhlj5jHcJOSRJ56RJY+padcJkwYAAACEo9lYmTh+VtcwJOTc6/b8QGxusQOKqNZatHWftx7PdFPrAgAAUE4IXgAAAABEQhn2eVkkVduapNLMBcXl2K3r5cKyVTKnqUb62jfJ0bUd5jXbmHUbpK7GLOfMS6sceHaKTF/RIBX2YtLdulJObjEzhm6qNiPViSN0/bZl8rWWT0lt4j/kn+78iuw1qSUzeaZ8+/bZybyLnJAdj+2TzWZOc/q6OML6z1j9Serisv6JhCy+d55MM+mh/UtmzZPtC6eaGbfgtu1lx2Xo81Ka/jEAAACIjjKsedkpJ29dKQfUdKRdF6Z1EGLP25MdkMiWVjnZK1JR/xEZpeeTFsm4GvUQP2wv56hpkjkrrpY3N6bWXdn0sFQ2mtcVHeTMaDib2t7GdpGGe2T6mnqzhMvyWVKrH2Pvk8aPWymlYwIXUQGG1b9ET0+fkxubvYGF01xsydMHpc+khYrNllX3zpZzT5vld52QirlN8ugs87pmAhcdANnb3CfHdXrioKz3By5ZTZVH71WBy7l9Zl3PyPr96tDe3iQPTDaLAAAAoOyN4GZjHZLoUMHN2Ksl5gpAZNlMqZSEnHx2p0lwqLSND0p3mz13ae1e6ZaYjL/eBCaNS2WKCnq6W01wpLVtlV+rIKeioSk4aMDmQ9KpHxOvSNuPrZTSefcEqVD5f/klV83ImcNyR0vhneSP73LVehzqsgKTyZWpGqfl9SowUoHKjmTNzQnZsV9tP1YjjXkGHI0LZss0/X5Xftv27JX2REwa5oXV7AAAAKAcjeg+L5deeFX63AGIMmamikB6X5WECVKSAmlxuahrbibpahqRUddfrQKEuJz3NSO7dPqs+jtRRrsDJMsWub+5WZoHo8nY6+es/SxeTcUJOZRxOOaYXDXBPA04L6/l1dQrJo11Kijq6vLV1iTktXPqYYJ63U4AAABAmRvZHfbbtsrpuLvpmN1krFulX7Lmczdqkq51qJG6bRtkjntqsoObIaVrWaxmWzqAuU2236unebLcvFx8CXnkZyes5mWLk03JpsriuWFBSDbjdHwiUj3P5Ds1ufvnAAAAoPyN+NHGLhxW0YvTdMxqMhasPcnFpZ6w/jXOlGpuNnROyH2mv4h9TxUVTJQwgGmsHGc9TluYCpamde2TJXk3VTsv5/Sh1e918u+enjgsQ35oAQAAMCjKOnhJ32TLxeq4bzcds5qM+Tvqp9P4ERk/VqT7sN03JqdteejRxlqk5VtfkvkmZdAcUoGAFcCMk6tK0uHdrmXRI5B5Ao2C+tjQPAwAAAC28q556eyx+npU3bLIJISxO+5XNNwjdTVhHfXD1Evlsgap6G2XN5xaGhMEVa3I8Y7+gzjamB7e2DMSmGJ1qM+7/0mu7NqSiol27ctAbd53UPr0CGe+0dEAAAAwspThfV58zP1cUlL3b0lqXGrfv0UFI0c+G+zvYt/3xcw44q1yYHUw0Ml92cG9z4v/Hi7WkMWeJld6OOLUfVu8Uvdlse7zMve87z4t9nsnu+/1ErivjMN1f5a0yyg55i/sXjQAAAAoT+UfvOTCBC+S5oaSVkAyKTywQQgnKAn0cXFuNBlyk0oAAAAgixHfYV9zhjk+HXonfOTNuq+MyPEOfx8X038FAAAAKADBy7JVMqMh5r25JAbGuq+MyDSrX43LrHl207W8h0sGAAAARnCzsVFrHraCFq27daWczDA8Ms3GCpCmPwt9VAAAAFAo+rwAAAAAiASajQEAAACIBIIXAAAAAJFA8AIAAAAgEgheAAAAAEQCwQsAAACASCB4AQAAABAJBC8jwbJVMmfbhtS0bpF5YRDo+73ce5tsv2umNJqkJPPao7PM/HCUKf8AAAAYVAQvRaZvaDnnyaUyyswPC1vWy4FbV6ppk5zsNWmRM1UeVUHEtxfYNxZNp3FBk2y/d54sN/MAAAAoHwQvKK0zCTmjH88lpM1KiJio5x8AAKCMELwAAAAAiITLqqur3zbP81JbWyunTp2S/v5+k1K4Yq7LtkiqtjWJtK6UN6Y8LDManKZGcTl263q5YOasviBNE+Xkxgel/5YNUldj0v3LaY1LZfqKBqkws55lAq/59LbLkc9ulUtm1slfpZkTSVh56A5c2q+XyifvkaqxZjbNcrqpWirvIn3tm+To2g4z52bW19MqB1bvNGlB8/92q3zxgxXS+f1muX+zSSwF3Z/k9tlyZtczcqj+NllcbdITB2X9E4etmg7dDGzV3PRNxfr2t8ode8bJo/fOk2kmLeiE7Hhsn1i7Ym2zRl5+ulVemxe+TQAAAAxPZR28WMFBMnAwBXdxBRJW8GJK/XGnQB9cbtQaOwDqVsHQyS3W0iZgCAYTVvokf7DiYrbpDjDC1p8MiDyBj8rbuo9IYrUzb/bTvYzzvuT+uOUSvMyXL33ri/InOl7o/J403+9kqARM8GIFfV37ZEnLCfVE922ZJ5OtoCShXzHSpXvZwc75VLDil2Gb05LzAAAAGI7Ku9mYp+DfoYKMuMjYqyXmGzZKBxKpwnyHJDpU4XjsJNPpfpFcqQILvUwysFAurG6VbolJ1S35jNylgodGFSypwMJdM3Jp7VNWR/pKFXg4Hf3H3OIPXDS1D8nARQc981WAFpdj7mXatsqv21X+a9RrBQ2PtVfaOvqsZ52/KmHg4uYJGk7IoS6RirqppR3dy7fNHfvVMauupqM/AADAMFbWwUtfx4uugr/S2SN9KuC4vNbMG2+d9jaxurT2QTngNAlbNtOqwfEvI7JTzqtYSCZNyX1kscaPyPixKl89+o1uwYBpnIpxAvn3qJdYfUwFaD2BZS698GrofuZq71eXSnNziZuMuRzvGPzaDv8227rPq7/j5KrJ9jwAAACGHzrs5yQhFzvNU79kwJG7YCDkmCijdXVD4xS5Qj2kX86l53TaAOeKKfXmGQAAABB9BC8DFVLzUbiz0q/7z7SdlrfUw0CDj5yCHwAAACAiRlTwMur6q6VC4nI+n64cWw5bfVvGX+8PJMKbdl3qcTf/8ml7Ud7UfVtm+vvJmCZg8cNmhLO4XFTLVdR/JEOtjmlqVjNTxpgUR0H76aJHG2tpaZGvDasOIOf1rVakYuI4Mx+u0OZfy+uniiTi0mbd1AUAAADD0cgJXhqXynutjvet3iGQs9opb7QnpKLhM54O8GPW6dHM4nLaNyTxpdNn1d8ambImrNbEDBpQ0yRVy0ySMmrNZ6RqbEJOPpsaNMAeXKBBZqxzBzp6tLFUp/5La/eqwKpG6tzLFLyfjvnSWG8P+lz7flcmh1xCXjunHqpnywOZApPXz1n9fRrmqWAkV7PmWUMmH/8ZQyUDAAAMZ+U/VLKLZyhizQxbHEgP4QxnnBQYCSwl67LuIZotIfeV0Zxhj82sLsAH7/MS3Ff//vjvA+MWtu9DcZ+X+w6ZNGV5822yeELYfVdi8sBdTeI+tPZ9XhJmzlDByPaF7uDFf58XM1RyUkLan26VR6h1AQAAGNbKOni5Iu3NGjFipQmYAAAAMPzRYR8AAABAJBC8AAAAAIgEghcAAAAAkVCmfV4AAAAAlBtqXgAAAABEAsELAAAAgEggeAEAAAAQCQQvAAAAACKB4AUAAABAJBC8AAAAAIgEgpdcLFslc7ZtSE3rFpkXBsHkmfLte2+T7XfNlEaTlGRee3SWmR9Jctz35c1pjl2uZs2T7emOP4aPcvqcrH1pkgcmm3kMiPUdoM6Nby+ImRQMbzF54C71mTVPNfNlxPk9v3eeLDdJYRoXNHHOAhkQvORiy3o5cOtKNW2Sk70mLWpyLOzbX5qZv1iHg8Zra6QicVB2HDIJoabKrGqR4z87LG0mBQAwjE2eKtfEEtK+74RJAAAvgpfh7kxCzujHcwkK4ElTZfHcmPQdO5HxmDQumC3T5IQcyhjgZHFonyx57BlZ8gQB0LDG54Q0Nreo80KdG3fsSZgUDGfL582WikRc2qwfvjJz5rDcob+nHtsnm01SmLbu89bjmW7OWSAMwQuiZ1a1CkoS8vJLmb7YY9JYFxPp6sr4IwEAGC7s2vJsF6YAjGyXVVdXv22e56W2tlZOnTol/f39JqVwxVyXbZFUbWuSK9o3ydG1HSZNZNSah2VGw1k5dut6uaATdF+WpolycuOD0n/LBqmrsRZT4qllPOql8sl7pKqnVQ6s3mnSgub/7Vb54gcrpPP7zXJ/KUvOuinY7bPlzK5n5FD9bbJYfelbEgdlvbkCrdt7J9NDHFfvve/QVHn03nkqIEjnhOwwV4p0s7JVdXG1/oQsdr2nb39r8MqmyV+FmXWvx8/OZ0Lan26VRzJecdPtoZuk4dw+WdKSoVmB7jewcFya9Zl1uJoTB/Jvvd/V5rory/YyKM0x839m6Y9tNlb+5roOhn9frTzVyMvqWL42L/w8S8mWL/t1Uefdjkr3dkPyHzgWIedHET8nmz//rm26/t/uC6nNs4/jec9++I9tbp+5lv++5nWe5cj//eFfV17bzPZZ5XOe+dcVcv74825/15mZQmTbZujnaHMfDytfE3z7FDi3XN9z+2Ke9QaPrf/7LJfv0Uxy+W7J8H+iWPso+2T92dn2+a8/a9d+pPsswv6HkgLHdwDfLTkcM2cf/Mc/mPccfk/8eQ/97gSQK4KXJhOxxJ2AxAQo0i5HPrtVLtmvGrkEL/PlS9/6ovyJ/iLr/J4037/FTi4F9xdisiBgf4FPTvPlma7g5cj446G4C2PJL3Hzo+75UjfbE3c+dNq8hNwRKFymfghDCz1uOe5HaAHBWN7cJFftc/1QmfyHb9tViCiwUJzrMXOWc6fZBTDfD6tTiPIU/tQxbBa5L688Oj+67h9381m4f1wznGfT3HkI+czt/IesXz9NvtfkQ9yfl1rurpjscH1+occiaeCfU+g+efJhvx743zKsz88qyNt5Dux72P9E2P+OleYNvO1zQ1xpwbymzjPXMQpbf07M+sPOg9Bt5nJuZ86/+zxL/S+mWc7zPRJ2HruY9Wb7zsgo320a/nNCC/1uCuTRWb9+nunzTHceuI91Hsz6M363mGXc35fOeeDky97HhPSdOyh3dFSr5cdJn1r05e/vFflkuv/T9P/D/vVrwe8Dcyz00+R5a9bp/27J4ZjZ69fPUp9x+HL5/J6k+fwB5IVmY0qfCnJSwUiHJDrUF87YSTLKpORnr7R19FnPOn9VwsDFzfNDc0IOdYlU1E0t6ahL7h8ROXRQ2tUhm1bvuir57gmqEOJr2qXb+wZ+sDQ7z/pHOnNTMPXjUYSO+ptbfD/qJv9De8xMPx71g5dcRtncsk+Oqx/ghnnOcurH+MP+woV2Is/ARZk1WxWO9I+/u/Cl1rNLrSc2Wxb7B3fwnWc79qsdqK5ODu5gt1U/KI+7frDt/E+VG/2j5ujCRXJdCWk7pt4Tm+C52nuf78d9876D0qf2/5prfesqlskx0QN8He/wHddkPs7rrmcpupDiGhVs2kSVL6dvmiqM3qjPwV2uY6vO/8fVMauYO9scs9Rn6f7Mg5xzY6/rvDWfU/XswKhkx3e5zm/1j3VcPUyuzO+YOf3F3MGjk//wbeZybueWf308UoU+890wIZb63wx8jyTkkZ/pefV/X6qRFwvZpjoH7tYF3e8PpJCqC87pP8/k5+TKW9uever4u78zcpXLd0tqGXfB3N6m+sw/7BrtT2Xx5WSnezVzzPX5uz9PR9qO+rl+NxrugNv5nGI10mjOs/yOmff7se2luPUdNOHdJkEZqt8TYCQjeFHeOp2qndEurX1QDoQ2G8vN3q8ulebmEjcZc/EWtgaDvxN8Ql47px7cP0ivn7O+5Btuz23IV7tTre9HIKBUHfVN/ksqyzGz+vGoMlKgg6av8Gb9wBfnM19uFS7Py2v+Y56mwOvfpt2pdJxcZX2+6dqq2wX+ionjzLytoDbtzuAVpWLWP21hulH57M/M2ZfGSv3oBFMxuWqClWyxguyQc9BzzHL9LNP18TL/Y+6CVPA8K4Q613R/scQ56zxwCyu85XZu55r/As9ta12DLOM2VSH/k7qW6mCW77QsAp+BCiSSgw+YzynQry/k+zgXuZyPZpm+s3aH8pSQCxC+TvfZOp+n7aif63ejEfhu8ZxneR6zggYOMOsCUDIELygNfaXyMXNl7Hb7PgsDHoLZ+hE7IbtDquJT7B+nvv0HfT9OLrqJhpWf1ORuG5+XkHUVvp8JOfe6eernFApMjVba5Vx08wRvvkLuGxBSQHX4A46MTK1FxVz7/gSpyWn6kj/dRMO7LtMkpBBWLYl7XWoK3BNGFwxb7SvIKoCxl/MG38fPqhetAo4+z0Ta95/wHCenUGfVwuhg279N3SQnT06QlPo/MpNpYlUyGUY4zKcmpxT5D5zbpT4WSj7bbFww325S5qnBKLZx+lQUqQ6e2wV9n+Xx3ZI+EHEuZuQrc215Tt+NOSnyMdOK+XsCICcELygh+yqhNYStbiJiFeYKLdg7zRWyjB5mmkKlbX6mf2h0oUM3jXDypqYdVrO1AlhBWmo99pS+DXzBnCAjzdXqMM4Qse4prA12OsGrqxmYWgvdtMO/TWvKsxDnbuOeWo8OhgvkDKXsnkLbnCfkkSfM60/bzdQCtYdWYUkVgiQubS+pz8NqOmcXipxCnRXkqPN/h3+b1pSthtHLrq3RzVfC1uVqrjWIsl1Fdyt2/u2+CL71WZ9V6eS1Tau5mD53S/A94GGaMfq+y5JT6PmdQR7fLemF1OTmYEDD2me4ABNU5GNW7N8TADkZQcFLvcTqc79aOBB6tLGWlhb52oCqGYrMFC6zXTH1NgXKVbomQy668GgFMOHrtq9qZmhilmMTG6spVIaqfrs5jyqEDPkN0HzHzGqqFdafw7ec07TJ3b+oQJv1sXS1BU+yariy9z/yHuvw5mGFMU07svZtKjEdmJoAxinQ2f8fij5GumbizAl5OaE+I6uZWerqcE7/R6H/kyZIdytKoTKEUxsVqIEyTYBc/Zkc6ZrDefnO2aLm3163DLQ5ll/y6nnYxZV8tuk0F8vWj8nLPq75KqB5WNrPXMnlu8U638OWMf+zBQ1Nn+W9uX43puE9ZwtsUpfG8Pk9AUaWMg1e4nKxVxWk6j9iOt2bUcLGWjMlNl8a6+2fodr3L7MehwdTuEx2Fk7DFDTy6ey5vFk35/E259JXzv39BtL2sXAKB6E/UDanM3jGwqwqgFidpDPcUd8uVLq3owobdw1+NX/wmJ2wOsBXzJ3vCeDSLaebPXibgOkRgXL/zCxWx1L1WX/SXZBR67FGG8pSUFOFIH3MUsfadIwN5KsQpoDhDqyswuUAmo3lQu2TP+9O4STZZMX6/5gqi9UxsgNpu6A/baHOm+vcdo7t7ZlqGu02++7/ST1yUYNap+eKvgqidqvlpi3Mrf9Yruz/RyUkgG3bc1AVGNV+us8pU6OQsUmmEjhni5p/c+XcHVjpAvkAm42lggf1XRTo75T7NnNpLmbVynk6kNu1jIWwBrGIzZZVOf7vZ/rMc/tuSf2fu7/f7f0usBDvDByS9r25fjeGCDln8z1mmQyX3xNgpCnToZI1e7jkSjOnRxQ7erpJ5jRJYKjk7taVcjLDwGBj1rnvAeMV9t6huM+L+yqf1cQhdChG11CShmeUIIf+Yfa0zVc/Hp6hIn0/tJ7RXVLsphZmRkuznJZqlhHWpMbOd7ohah123tIP8+zw74M+BtZ9clzHLJB3l9BjlkE+xyywbLpjluEzyo/+sfX2SwkM8WnOM29BLc1nlXXZ8M8y+Nn586X3r0tm+d5bzM9JC35W/uPq/A+50p19DvmsQvOnm5i4R29y7ad17F+aqtZn3+/EfXyznUfBY6hl+N9xzqG0/5fZvy+y5ckt67I5f5/58qXX8X2Ruz3vDeY9JeR/JXnepvs/ymGboee+4TsmnvPCes2+T46+R4mdf3NeeIb4TSd8XzN+t/vy45HLd0uWZTyfmVnWzk9wv4Kfb7jA+RPYhzyOQw7LhuYr5Bz150uvw/97EnruG4HvWwBZlXHwglKwv4SzBwhFZf34SZZt2j+K1xwbfj8EQ3LMiilNoRKI/LmNIWYHEamgbSDsdWW7yAUg+uiwj2FOBSXF6KgPABhWBtRRH8CIRfCCYc6M/pRttCprNKn8RnECAAydtj16dEJq7QDkh+AFAAAAQCTQ5wUAAABAJBC8RNTD//lP5f1Ti33jBwAAkM3Lv+mWa97jjGc6MD84eFT+x+5fmDkA2RC8AAAAAIgE+rwAAAAAiASCFwAAAACRQPACAAAAIBIIXrTGpTJ92waZs22VjDFJw8WYdTpfG2T6mnqTUk4WSVU57VvDbul/KG5Nv2swaQAAACgagpcyYAU4Ty6VUWYeQ+A935H//cnp8q7v18joh2rkXe0mHQAAAEXDaGNlQAcvdZPa5chnt8olk5ZSL5VP3iNVY81sUlyO3bpeLpi5oaFrXprkivZNcnRth0mLprdvPigX3/crufyf/kouM2kAAAAoLmpeRop4qxy4daWZNsnJ3hqpG4bN5KLq7cqYeQYAAIBSKfOaF3+tQ0JObnxQutvMrO7rsqJBKsys9IbXXoxa87DMaDgrx25tldHu9YUub9cmpG5d5a3hSK3LXesRrIGwalNqrKeW7taVcnKLmdH8efdL5s0cgx4VvKzeaV5Ulq2SOU0TXcfDtdyzUzzr7gvUjGQ5rg5rG66dCNT2hNS8uPbLu8/ZtplP/m3LvtYin6rtk//470vlKz82iQX6w2ficmnST6l5AQAAKKHyrXmxOuGrwqyoQnyyxuEpkVtcfUPatspR89qxuElLS9dU3CPjOzaZdbVK99gGmbFukXld0YV1Hbh4ajkOyzj3Mjm6sNq8f2O79Jk0D3/edbCS3KaaQpuQ5aCmSeasuFre3GjW0xqXigZ1HJeZ162AwwQJZltH2kWqVjwslY1mEU0f/5mHU/nJpbbHCVzMvqQClxy3qWXNv2OZzKrVjxXyvo/Ot1IAAAAwvJVt8DLmFlMI9hTiO6R7dYGFeqW7daXrCv5OOa+DhklTTDBUrwrSNXbzLHcNh1rupGd+OFDBgK4Rie8N1pZYtSOuGo0th6VbPVwxxR4RbNSa+VKpl3Ht06W1T6nAJCZVt7iCNB1cefZbHfs2fcBqZFwgkNBUnpzAxRd45bxNS+b8p2yRQ536sU9e+eleKwUAAADDW5kGL4tknCqb93W8WHCgEpSQi1ZhN8WqHXEK2o0fkfFjVYBzeLgFKoaukbCGg9ZTk1TqICEsqOrt8R0zFXzd6gRt9RKrj6n44LCvo3+H9Peoh2Qgl0ZnT3gtknzEbmoXErjkvc2M+ffacn+zNDcPvMmYyFr5Q53IO1/ZQ5MxAACAEirP4KVxilyhHt46HSywlkztJKkICXCGDU9TtpVyrKdBZmwLaXaVUY1crvuceAIhe3L3z3E496hJTq5+KG4VDQ12H6Ge0yHBZn7bHFxr5XfWfV0a5B0P1ch/eu6bJh0AAAClUJ7BS9tpeUs9BJsKlZBVqxCTy61+FMPfhdWt0q3yG2x2lUlcLvbqB28glJxctSb2gAO6U73r9TT9d3SHet03xQpQAv2Dct/m4Fsj71JBy+iH2uUPKoj53zd/zqQDAACgFMq02Zhd4K2o/8jg3bjRBEyVM/PvnC/LZrpGJ8vfpZ6EyNhJBe1rX0/WkQpccmweZprthfepSWPLejnSrvZDBTDeO+7nus386dHGWlq2ypc+bhIKtkbecUzk9+9bIAUN3QcAAICclGnwYjqH+0cD053q15XqTvQ75Y3QwvciqXLl4dLps+qvq9N6YDjh/DnrnOLZbmZj1unhnBPy5gv5Na278Gy79AWOq5+pLamZmRpZTO9nmmZjjktrH7RGTvOPDpbbNvPFaGMAAABRU973eQncC8V7bxD7nivhNxd03xvEXk7C72Xil/XeJv7t6tft+8foYZjtbeqhgd33inELrk8L7Euy87v//ihGoHO8WU4PLZ21KVZ4/vRobN7hjV3L6O2p196rPo+3ksvZy3jvsJ/Kr/f+LNm2mU/+bdznBQAAIFrK/CaVwOAgeAEAACi9Mm02Bgyuy7oT5hkAAABKheAFKILLXn9dZPxH5fcNJgEAAABFR/ACFEP7jTL6+0fld5/U932Jy+8IYgAAAIqOPi8AAAAAIoGaFwAAAACRQPACAAAAIBLKLnjRTdBGjx5t5gAAAACUC2peAAAAAEQCwQsAAACASCB4AQAAABAJBC+DrXGpTN+2QeY405NLZZR5KTouyu7nuyTumnbfbV4CAAAASoTgZbC1bZWjt66UA2o6FjdpEZV48Sqpuanamm583CQCAAAAJULwAgAAACASCF4AAAAARALBSw5GrXlY5mxbJWOkXiqfTNNfxfRlqVpm5o0x6wbQr2XZqtS29LRukXnBy9qGa7npa+rNKz4f/5JsbWmRlq/5MgkAAABEAMFLzmqkbts9Mr5jk9Vf5cCtrdI9tkFmpAkoBsoKmJomysmNdv8Ya3s1TYEARgcudTVxOWb60ejp9KTPSGWjWcBl/kffJxX6Se0sIXwBAABA1BC85KG7daUcXdth5nbKed3hftKUEowWtkiubIhJX/tT0t1mktT2TraqDdbMdwUm9TJ6knqIH5YLdoLlwuoHXe9L2fvTV6RPP+k8JFusFAAAACA6CF5ylpCLneapcWH1Sjnw2a1yycwXzbKZUqm29+YLTqBkdPao4CMml9eaeemQ/h71EFIjE+rHX5Glzc3SfD+hCwAAAKKH4GUYGjVlovobk6oV3r4sc1Y02M2+XHQAdaQ9YQcw2fq8AAAAABFG8DIMXTp9Vv1NuPq7eKeTvoqTS2sfNK9tkpO9IhUN9xDAAAAAoOwQvJTUIhlXY57mI9A8LFcd0v1ZE8BMCtkwo40BAAAgwgheiqXttLylHipnOn1PFknVtiapNHN5adsqp+NqXU0Ph44alqK24R+GufEjMn6sSF9P8Pb9jDYGAACAKLusurr6bfM8L7W1tXLq1Cnp7+83KYUbruty6GGLZzSInNwYPopXkr7Xi6tfih6d7I0p6r31r8oR07HfXlfMXsCnr32TazSzNMv2tifXZfFtU9Pb9Tcts+ial//6J1LR+b0Bdtq/KLufPy3vfvEqmf3QO00aAAAAUFoELygAwQsAAAAGH83GAAAAAEQCwQsAAACASCB4QcFiH3lN4s93WdPuu00iAAAAUCL0eQEAAAAQCdS8AAAAAIgEghcAAAAAkUDwkoVuhjZ69GgzBwAAAGCoELwAAAAAiASCFwAAAACRQPACAAAAIBIIXobUAvnKjc/JriVquvHLcoNJBQAAABBE8DKEPn/darlOfiFf3X6zLNz99/JDkw4AAAAgiOBlyNwlH6gSOfoSQQsAAACQC4KXoTL2vTLFPAUAAACQHcELAAAAgEggeAEAAAAQCQQvAAAAACKB4GWI3FB1rYyRY/LL35gEAAAAABkRvAyyG675N+u+Lv9FNsnC7SvkGyYdAAAAQGYEL4Pshy//uQpabpb/R+5RQcxG+bxJBwAAAJAZwcsQ+eHJl+SC1MkH3mMSAAAAAGRE8AIAAAAgEgheAAAAAEQCwQsAAACASCB4GSq9v5bT5ikAAACA7AhehswxOdsrMv3aL8sNJgUAAABAegQvQ2aPfGn3Ovm5fEj+dslzsutGghgAAAAgE4KXIaUDmJut+74s3P338kOTCgAAACCI4AUAAABAJBC8AAAAAIgEgpdBVFtbK6NHjzZzAAAAAPJB8AIAAAAgEgheAAAAAEQCwQsAAACASCB4KRv1UvnkBpmzLTVNX1NvXsvPmHUZ3t+4VKa7tjHnyaUyyrwEm3X8wo5L8titkjEmqXCpz7tqmUmKoobd0v9Q3Jp+12DSAAAA0iB4KQu6IHuPVI2Ny7FbV8oBMx1d22FeL6K2rXLUrP9Y3KSheEyAE+mAJFfv+Y78709Ol3d9v0ZGP1Qj72o36QAAAGkQvJSDxo/I+LEife2tcsEkDcSF1SUMfkpukVQ5tUJmKrQGquiSgd/6InxOHdL9WftzOrnFJEXM23PeL79/86fyToIWAACQI4KXMvLW6SgGG0W0bJUKVpqkMt5qFeqd6dei0hrNMhg23q6MmWcAAAC5uay6uvpt8zwv+p4lp06dkv7+fpNSuOG6Lm045y1JNzVa0SBvtWa4Cq8L9k01ZkbTTcy8NQC6r0ada5HuTOtTrOUntcuRz26VSybNEfpaIJ+6lqRJrmjfJEdPN3nyF9y20zTOzEpCTm58ULrbzKxZlxW4rN5p0tLz72ufzoOrpsl6XdS6np1i5bnCpIcdk1FrHpYZDb6CeK9r381+O+vwvGb48+OX2m624+BmjomZS3fMRK37jSnufQieG45lX2uRT9X2yX/896XylR+bxAL94TNxuTTpp3L5P/2VXGbSAAAAMqHmJbJczaNMwbiyyd1cytUpXBeeZx521UZskpO9NVLn6zjuNBc7sLFd+kzaYKhouEcFLpLsr3OkPaH25WFXbYneV1Vg70nVqBxpF6la4Vpm2UyrkN59OFvgYh83K7Ay69L7KzoP6xaZZYwaFVCtmCSnk9v058sOOmY0nPX0NQr0Bcqhn5D/2OtgxVmfnlIBU6q52IHWDJ2OTC2UDgydddjHLNifRp83MybtNcuZcyN0IIZlMqtWP1bI+z4630oBAAAYTAQvkbVTTppCaXiB13XlXBeePbURqgDcpgu+NTJuOHQM1zURrvxeeuFVtT8xudwqKOuajfkqMInLMdc+XFr7lCpkx6TqFjvgGDNTV1vE5byvVsQvuS53zYc6Pr9WgYnUqNc8zct0TUX6fOmgcIrabHdreC3F0KlX+6EyFm/11CbZx0wFKyrfnsBEH//kse2QRIc6FmMnhQQvW+RQp37sk1d+utdKAQAAGEwELyNVZ48V8AwLPae9zc5MTYXTTCpWH1MF8cO+AKFD+nvUw6QpeQzVbNbV2+PdnhIITLTeVyUR2hzLNur6q6Uih4Bp0DkDOPT4a2bCA5O+jhcDxyOdLfc3S3PzwJuMiayVP9SJvPOVPTQZAwAAOSN4GSF086ZUkzI1uftgDGs1crnu36GbcLnzr6ZMfUQy8gdLLldMGSYjkxVB+gEcJsroIRvAYK38zrqvS4O846Ea+U/PfdOkAwAAZEfwMgLYncF1EyhXs7JB7tdSuLhc7NUP3hHEkpNp/nWpJ6H+DrwZ3MgYse2s9GeoUSqtNfIuFbSMfqhd/qCCmP998+dMOgAAQHYEL2VvkYyzuoPsTTMi1eCxm1nlK7fmYXazL5HKmb5O9x6m2VTNzMAd7gtpAnbp9Fn111eLYfrBFKzttLylHgZUA9T2oryp+7YEjkW6Jni506ONtbRslS993CQUbI2845jI79+3QAoa7hAAAIxIBC9lz9RcuAvseiSqEjcbs2pCxl4tMVOwDx1OOEcXnm2XvrENMsM/GphbstN9U2DUsFFrViU74l9aq4I4qZE69zIq4HivylveN/ncclitKzVogDWSmTqu0qtrgQplf14VDU2BACt3ZkAGdSzcI4uNWvMZqRqbkJPPZh9KOhyjjQEAgKHFfV6yKI/7vNj380je70OPLqWWe6/nPb5lPFL3/cgUhITeK8WphbDubXJarjT3FfFsM6d7s4TnL3X/E8McC3dg5s9X2Lr867HynvU+Nak0e3v2fVQS16tjVP9q8r35HDNbhvyF7F+S//4xWe/tY2/Hus+OKw92fvXwz8FR1LjPCwAAGEoEL1lEIngBIojgBQAA5ItmYwCGxGXdA2leBwAARiKCFwBD4rLXXxcZ/1H5fYNJAAAAyILgBcDQaL9RRn//qPzuk/q+L3H5HUEMAADIguAFwNDRAYx135caeVe7SQMAAEiD4AUAAABAJBC8RJQeuWz06NFmDgAAACh/BC8AAAAAIoHgBQAAAEAkELwAAAAAiASCFwAAAACRQPCCiFgkVds2yPQ19WYeAAAAIw3BC5DJnX8t/7x9rZr+Wm4ySQAAABgaBC9AqBvkfh20zHpZvtdpkgAAADCkCF7gUy+VT26QOduc6WGpbDQvJdlNuDItM2adSn9yqYwy85bGpTJdLV+1zD1vv9da3lmf632j1jxs0pukUs1XNNyTWk5NYc3I5v/tVmlpaZGvLTcJeauTO7f8mcj31shf3/tDkwYAAIChRvCCFCuYuEeqpF2O3LpSDljTUyK3uIKQZausQOKK9k3m9ZVypF2kaoUrKMlLzHrvlB5nfa3SPbZBZqxbZL16ae2DqXQ13+farp6Oru2wlkuZL431Fdaz2vcXlCHlmHxr2Rr52rfMLAAAAIYFghckjbmlQSp6VeDy2a1yyaSJdEj3ame+Xioba0TirZ6g4dLap+Rkr6jXfDUtufKsb6ecj6uHSVMKW5fslbaOPutZ56+2WI8AAAAoDwQvMBbJOBWX9HW86ApcfBo/IuPHqmV6dHTh1iGJjoTI2EkFBRzdh3eaZ8Wx96tLpbm5We7fbBIAAABQFgheYGucIleoh7dO+5thBaVfZqKMDvSPAQAAAIqD4AW2ttPylnq4YspA7qNyVvrbzFMAAACgyAheYMTlYq9IRf1H0jf9antR3tR9W2banelT6iVWH1OrOCwXTEqYUddfLXZX+kKY/E2qMfPpDXy0MQAAAAxHBC8wOqS7LS7iGunLVi+V65yO+GaZmibPyGKj1nxGqsYm5OSzqb4rl3p0H5irJWaakekhj2c0qACnYB3S36MeauaHDN3sVozRxgAAADAcXVZdXf22eZ6X2tpaOXXqlPT395uUwg3XdWkjZT+T9HDJKxpcNSQqKNn4oApazKymh0tucteAxOXYresDtS763i11zmLWKGan5cptTSKtK+WkHgjMbOstZ96w3jfJP+qZpu9Bc48KlMysoodO9g+XrGtevvjBCun8fuGd9m96bK18qtbM+HX+gPu/AAAADAGClyxGyn4CAAAAwx3NxgAAAABEAsELAAAAgEggeAEAAAAQCQQvAAAAACKB4AUAAABAJBC8AAAAAIgEghcAAAAAkUDwAgAAACASCF4AAAAARALBCwAAAIBIIHgBkJO1m7ok/rxr2nTRvAIAADA4CF4A5C5RKV+5qVpq9HTP5SYRAABgcBC8oEwskqptG2SOf1q3yLwOAACAqCN4QVnpa98kB25daU+tcZGaJgIYAACAMnFZdXX12+Z5Xmpra+XUqVPS399vUgo3XNeljZT9TFq2SuY01ZgZJd4qB1bvNDOK9fpEObnxQem/ZYPUJReNy7Fb18sFMzdqzcMyo+GsSmuV0U/eI1VjzQu97XLks1vlkpnVxqxzr8cOQI6u7TBzSk7b1DUvTXKF5731Umlt25s3zc5fzMyFbFPzHwvfPjr86wocM4udv0ozJ5Kw9qe7zcwq1nEQ9d5np8j0FQ1SYdK7W1fKyS1mxsh6zJKWyddaPiW1if+Qf7rzK7LXpBZC93n5iysr5Su3Vsg3TRoAAMBgouYFSboQbgcJpuZCBR7doTUXMalaYQra1nKb5GRvjdQ9uVRGmSVsKm3bPTK+w6kNUesb2yAzkuuzm3rVTVIBjVNbsrFdpOGeAWwzRG9PIFiyAyvvNqevqTdLKI1LZfrMw2Zbru1tWyVjzCKaHbiI65itlCM986VqmVlA00GQCaySy6hN6v3xLKfp471ikpxOLpeQyqaHpbLRvK7YgYsOpFLbPD3pM55lkpbPklr9GHufNH7cSgEAAIgsghcYi+TKhpj0tT/lqg3YKSetplfzAwVjq3lWsnahQxIdCZGxkwKBhK41SNUI7JTzanUyaYq13Kg1ar26NsNdE9O2VX6tCuwD2aZj1JrPWDU+fR0vptavgpIpNTpfrhoUs82KhqZUYKLSjnpqTzrUcdGZr5FxroBj1KSYCo5elYSrBuXS2gddNSX1aj/UBuOtnpqRS2ufUsGQqNf8wZeukUnl7dILr0qfCtwutyIQrV5GT1IP8cOeGqALq721OEmbD0mnfky8Im0/tlIAAAAii+AFtmUzVSCRkDdf8DU96uzxFZ5tb532LqcL7AcCTaoSctEqOadcWL1SDljBSr3E6nXB31srogUL7LZctlmha21MZ32nRsQdNIy6/mqpUAHTeV8zrEunz6q/E2V0WO2FwzoWXpd6dADVIDPS1QA1fkTG6wCqRwc+bmmCL18gFNQh/T3qIee+PFvk/uZmaR5gkzEAAIDhgOAFllFTJqq/dtMsz2hdrr4XJdFzOhC8OK6Y4mrGlSOrdkY3pdI1Rnp/bvEW8K2aEqs5m28/PX1bbLp5lmeZkGNhBVB6WzqAcZYLCSr8gVdKloAphA4AdXMyK4Ax2/Q0eQMAAChTBC+w2DUPuslSqh+Fe/J3GB8M6Qv8OdiyXo5Zrby8zc+smhKr433YfqaaXtn9SnzHY2N7oObForblLGNvM58Rzs5Kf8aalnB2rZPepu6LY9c4EcAAAIByR/ACW5rmYaVjmk3VzPR0gNfSNe3K14VndbDhrX3JqXmYLJJxuiImvje8H0kGulbECmBMvx5pe1He1H1bZvqDGdNsztd3JX8d0v1ZE8BMCtYe2aONtUjLt74k800KAABAVBG8wNa2VU6rQrd/ZKtSurRWBQe6CZe7lqJxqbzXGjigdYCFesXsk6f2ZUurKujr5nHeUcO84nJRBQOewEqPGBZoNqaHYvavxwQ+yeZwpqN/TZNnZDF7MIGEnHzWP6RyNoukyt+/Jm2/GoXRxgAAQBkheEGS3ZfCHsI32c9DT7kMR1yQnXLSGY7Z2ZYKEN7yjFA2MMHaF11ToWtHQvq9JIMovYzKl7tvTGOPHAk0G9PLHZZx7nU4QyK7RyrTzcpa4yowTC1nD9WcZoSwjNQx2yLyXvc2Mx0zRhsDAABlhJtUZjFS9hPIhptUAgCAoUbNCwAAAIBIIHgBAAAAEAkELwByF+uWLz3fJXE9bbpoEgEAAAYHwQuAnKy5p1pqbnJN91xuXgEAABgcBC8AAAAAIoHgBQAAAEAkELzAGnZ59OjRZg4AAAAYngheAAAAAEQCwQsAAACASCB4AQAAABAJBC8orckz5dv33ibb75opjSYJ0BoXNMl2dW58e0HMpAAAAGRG8AIAAAAgEgheUFpnEnJGP55LSJuV4BeTB+66zboC70xciR8Z2rrPW49nuhPWIwAAQDYELxhCU+XRe5ukQQ7K+seekSVmelzmy6OzzCIAAACAcVl1dfXb5nle9L1BTp06Jf39/SalcMN1XdpI2M9iH7Nc6T4Pq+aKtD/dKo9Y1TOZ6BoaFegkK2USvveZ18/tkyX7YvLt22dLhXmlb3+r3LFHX903y+hg6YnD3pog3TdHvUeSy2o6uJon08ycyAnZ8dg+2WzmcttmvrJt0359sl5/92zZvnCqSRc5vusZue+QmZk1T702zjpGr827TRZXm/TA+pzPwVXb1aX2p+WEmdFy3KZmjqNzHMK2BwAAUChqXjDEYjLh3eZpWqaGRgcJpnZm/X6Rhtub5IHJZhFHtSq0314jLz9tanJ2nZCKuU2mJichbcdUQBGrkUbf+xqvrVEF7hOy2wk4rIEG7AK7s80dXVNlsUpbbi+RknGbechjm3r92xeKCgzs5dbvT8i0hf7jEVPHSAUu4hy3VmlPqPUlB0+wm+ytmns+uZ4lKtA4rvcnZICFrNt0BYD2utT09Dm5sTkV7AAAAAwEwQuGTNueg3JcPU5bqPu6hAQFRuOC2TJNX8F31Qa07dmrCuKqcD7PXzDWV/pdNTKHuqxtTK60axbaXopLnyq0X3Otu19NTBrr1HxXV7KGYPm82VKROCiPu2pPNreogr0KpG5c4H6vlnmbucprm2q59a4aDWe//IGgrgFK1aI4wdsEu2Zn1mxpiOkaLHfNyAm5TwVfEpsti/3BV7ZtvnuCCgAT8vJLqfzLmcNyh6cWBwAAoHAELxhCqqBsruDr2pXFpsO+t8YiGFjYEvLaOfUwQb1uJ9gS56zAIcXeRrIJlypM7+4Sqaibmnrf5KlyjdrE8Q6nkD1VZlWrgv+xE75BBs7rcQekYuI4M29k22ZO8tymfwAEHSSobXqacCn+zvBte3StiB2ALK/Xgd95ec3fZC9d8JVtm6+fs4KZ0BoxAACAIiB4wZCzC9SmyZKat2pikk2Nxun4xG6a5RqRTE+pfhz52ayDFFfTMavJWOKg7HAK4ZNjol+ymkl5tunuc1NkQ7FNLRB4pQQCpmysYEZ/hnZzNTv/6WvUAAAA8kXwgmHErrHY0aWeVs82V+/tmgerE7kV4Pgmf8f7XFg1C07TMbtmx1PjYYZ3tppchW2zFM2ghmKbWfSdtYcyzo/9GVp51s3PrBo1AhgAAFAcBC8Y5tI0DxuQE7Jjf8JuOmY1GfP100jXVKukBn+b/hqopFnVMs3fd6UQh1TAaQUw4+Qq/zYAAAAKQPCCIbO8OaRvxOSZcqNuDtZ1MNkBfvO+g9IXmy2rijhqldXZXBXcF8+rkQrXtmwJeeRnqtBdPW8Qb5g5BNs8dNAe9OCT7pHFpsqjeijkwDHJTg+57B9hLW2/GgAAgAJwn5csRsJ+FvuY5c5/7xZb4N4hFv/9T2ypZTPcwyVUatvh21MC9yzR3PeXyXebOci6TXMcAvdi8bHu8zI1/b4lBT+D4D1qctymsrzZ1xdJj1BWrGMDAABGPIKXLEbCfhb7mAEAAAClQLMxAAAAAJFA8AIAAAAgEgheAAAAAEQCwQsAAACASCB4AQAAABAJBC8AAAAAIoHgBdLZ2ckwyQAAABj2CF4AAAAARALBCwAAAIBIIHgBAAAAEAkEL3C5KLuf75K4a9p9t3kJAAAAGGIEL3C5XG68qVpq9PR/V0rCpAIAAADDAcELAAAAgEggeAEAAAAQCQQvAAAAACKB4AUAAABAJBC8AAAAAIgEghcAAAAAkUDwAgAAACASCF4AAAAARALBCwAAAIBIIHgBAAAAEAkELwAAAAAigeAFAAAAQCQQvAAAAACIBIIXAAAAAJFA8AKXi7L7+S6J6+m/dUvMpAIAAADDAcELXC6XG2+qlhrXdOPj5iUAAABgiBG8AAAAAIgEghcAAAAAkUDwAgAAACASCF4AAAAARALBCwAAAIBIIHhBwJh1G2TOtg0yfU29SRmBlq2yjkFyWrfIvDAIJs+Ub997m2y/a6Y0mqRy1LigSbar/fz2AgblBgAAuSF4Qek0LpXpquBftczMR8mW9XLg1pVq2iQne00aAAAAhtRl1dXVb5vneamtrZVTp05Jf3+/SSnccF2XNlL2syR08LKiQd5qXSknt5i0yKmXyifvkaqeVjmweqdJK7Wp8ui982Ra1z5Z0nLCpBmz5sn2hVPNTErf/la5Y0/CnkmzTEpC2p9ulUfOmFllefNtsrhaPQnbppFcxvBs0xHY9gnZ8dg+2WzmPMyyx3c9I/cdMmkAAAAZUPMCRI4OPp6RJY+ZadcJqZjblGpmdkgFIM5rj7VKu44vdFDiSksGLjqAuPc2mdWxT46bpKCYPHCXDlx0IGLWYbbpbvJlNQMzwUhqW10yq8ybvwEAgMFD8IIkp6+LM4U19xq15mGZ8+RSGSWLpMq1rLt/THI9KxqkQs1XNqWW05N/vdY6Xa8H+tpY/U8elkpVAvbmcZWMMYvY6an5FJNPT58VXZviXs/A+/fM/9ut0tLSIl9bbhIG5ITcpwv+aWpAAlSwsn6/ilBis2XxLJOWC923ZqFYAUnGmo9Zs6UhpgMmVw2K2WbF3Nli7/JUWTxXBTIqSPKuS+3LE4elzcx5mCCLWhcAAJArghckXVit+3ioaWO79Jm0UGMbZMa2+XJxo1m+NS4VDfckgxL/erpbzbyZ3E3IdNAxo+GsHHNeV+8Rta5gMBGTqhUbpE5azXp0X5QaqbMCKbXNw3H1t0bG+QOuZTOlUhJy8tlUk68x6z4jsiWVHyf/hQcw86WxXodpIrXvH5oOPm3d582zPJw5LHeka9Llsrx+qkgiLm2uZmbJYEU9znIHTBNi1LIAAICSIXhBQbpbH5Ru53L6lsPSrR6umJJn4b9xqUyp0etaLxdMkrRtlV+3J1Qw0RSoRelr3+Tqd9IhiY6ECqQmWcGLk4fKmd5RwcbMVBvofVUSrkv/F1a78q5tabU65VfUf8ReV972SluHHe51/mpoOvc0Vo5TfxNy7nV7vnhictUE9XAukao9sUZDmyeyy25qNrlSBzEnZIep/VnFCGIAAKBECF5QgLicL0IZfdT1V0tFyLounT6r/k6U0b5L+G+d7jDPbJfWPigHbnUCn53yhu7cUTPTFfQsknEqdunreFEumZRwHdLfY54WaO9Xl0pzc7Pcn60aoxRmzZNVc2PSt3+vpxN+KVj9Wm6fILtDmnu17WmVJY/ZAY3VB2cEDPcMAAAGF8ELhsyoSfrqfI3UufqeWFOTijgKcOmFV6XP3XTMajIWl9NrvUGPM4Sze5t1hW1yiMSk4XYVGOjgQE8Lx1kd+AMjfxWZHm1sVV1c1mdsamb666jJ6Yez6t4meWCyeRkAAGAACF4wZC716MJ2PNXfxTP5mnblou1FebM31XTMajIWP5xqkqaZ4Zsr4k7fGXs6prvMRIZvtDH36GFFl5DXzqmH6nmyWPbJEnfn+8kx0THJme7woMmqiXn6oAooVbA1L9PQzQAAALkheEHptJ2Wt9RDur4w6ZqHFa5DBTwqCrGajtlNxroPe+/NYjdV83bgL4bijjY2vGzu0KOeqYBpn3f0s8Zra9SxPCGHGC0MAAAMEoIXlFBcLuqO8CGd7y1WR3k9iljYEMcFsjru18i4dTOlsrdd3gjtTxOT8dc7AZU9bPLAmo0N/WhjJXXooLQnYtLwSVf/FdPP5vgu04RMd+JvDtauLJ832woW/YEPAABAIbjDfhYjZT/t+6E0SaWZ89JNu+yO8fqeLPbQxq4Rwsx7r2jfJEf9/UtC1quHTvYPlxwIHnSzLmdkMX2fl6aawPvScdanRycL5sfZh9RoWHq952eq90xqlyOf3Wp17g/NkxGWD13z8sUPVkjn90vcad+6K73u45JrUzF9g8kmaTgXdud8cyd/M+fnvfO9WY9rELHAnfHNHfM9Egdlfbr7vAAAAOSJ4CWLkbKfAAAAwHBHszEAAAAAkUDwAgAAACASCF4AAAAARALBCwAAAIBIIHgBAAAAEAkELwAAAAAigeAFAAAAQCQQvAAAAACIBIIXAAAAAJFA8AIAAAAgEghegCIbs26DzHlyqYwy8yixP+2Tg893STw5vSHf+VPzGgAAKCsELyjAIqnatkGmr6k38wNDYR/FcPS71VJzk56ulL/6d5MIAADKCsELRqbGpTJdBWBzXFPVMvPaELGCOF+e5mxbJWPM6wAAACMdwQtGnFFrHpY5KxpE2jfJgVtXJqfzM4dBoNDbLkeSeWqVbqmROgIYAAAAy2XV1dVvm+d5qa2tlVOnTkl/f79JKdxwXZc2UvbToQv2MxpiZk6Jt8qB1Tutp4HXfPpUMHB0bYeZU5atkjlNNWZGi8uxW9fLBf1U13yoAKLCSg+hC/Gf3SqX1FN7u2dT77XopmtNcoVvm5nybzHb1YGLJ69hAnl05d8l9Li48m+rl8on75GqsWZWEnJy44PS3WZmFV3zUjfJ+z5n3d2tK+XkFpMYWFfw2Fvvq39Vreu0XKmOU6VJD3xGirVd98fk8B07/36GrSvXY6bN/9ut8sUPVkjn95vl/s0msRC6z8t/65bXv1stNz5u0gAAQFmi5gVJduFUVKE6VRtxpGd+sjnVpbUPumoE7MKrs5yePAVZXYidedj1+iY52euqRWjbKkfNa8fiat5T46AmT8E/N9nyr426/mpVsE7Imy9kDlz0unTtzFsqaHDWdSyu8/+wVDaahRRd8LcDK/dy5sUkHWipYKNHBQNmmSPtIlUrvOtKLyEXO81TZcy6z4hsSW3vQGtcKhruCfZBGtsgM7bNl4vO8TDLuY+HHbjoACO1jGZ9tq7AJbCfG9UO+LfpCgyTedvYI1PWLTILuM2Xxno7xKl9/xC31wMAAJFB8IKkUZNiKoh4VRKu2gAdsKSu+OdBByfuGg/pkO42XTCukXElKqtmz3+9xOqDywQtkisbYlYB3r3vF1broC0mVbeYwrgqrE+pEeluDa9ZcIxaM18qdQ2E63hcWvuUCuZc6wqj1v9eXdPhy++F1d4aG9nSqtYlUlH/kcCgB92trmW3HLaCziumOAHHIhmn8t/X3prKf9i6wvZTfb6/bk+oYKgp1aStdlIwMAycB4690tbRZz3r/FUhJxgAABiJCF6QdKknYV+tL9XIX509YhdXS6No+V8202pm9dZpf+3MTjmv469JU6z127U4cTmfsextAqb4YV+A0yH9PerBrCvJqi0xnfWdWoystVBmXQFZ8tY4Ra4wTwN6TqearqXZz0unz6q/E2W0U3tkfb4qIMuxRmnvV5dKc/MAm4wBAIARheAFSVazMN1syF2ADm3ykxvd1MgzcpanL0TxFTf/3qZaHmMn5REc1cjlum9KTZP3WKgptJ9Jsvmc3TTPU7Ph0M2zcllXNm1b5bQ6XJ5tLGuy+tJ0H3b1ddE1WtbAAd5tevszKVZTQFM7tcJZjsEGAABA8RC8wGvL+mR/Bavvhi50FxAA2H0pdKd00/fB6v/QXtKaF0vG/JsairFXSyynviZp9Pbk0R8nLhd79UOqv4tnSlurslNOWv1PamRKSL+SCt/6gv1sclEvoyfpR1dgogIS7+AApkZLN3tzbS81+Zqw6Xw7r5n8M1oaAAAoFoIXpHVhtSkU+5s2mQJ5xaR0l/vtvhQS3+sr2Iazm3vlU5uhmKZdmYTl/8JhnRCT8ddnuMGm1TckbBnTR6TjRSvgCDSb0kz/kJQ0zcNy4fQ/cdWMOAMOnHw2rB9JnqxaFl+AqSZ/H6fQ/cyFDiStACb8vXq0sZaWFvnacpMAAACQBcELDD38rv8KuQlCXP0fbKZAXjM/Td8GU9tQM9PVHGlV2mZjduHYV8Pg4rye7OgfGIJZyzH/qkCtA5qw0bnGrHPev1PesDqjf8Y3spgecjgup51R1UyQk+p0v0iqdD+VXl1TkXLh2Xbp003Z8q7BSg1y4Bwb+1i4Ayu93wU2GzN9VC6vNfPpWEGUbgqWuQZFj9Dmv9HnmJk6Y2elPxDEMtoYAADIH/d5yWKk7KfNvneKu0Yj9F4elmz3GvGtS/fl2CLyXlW418MP+6/u++8h4r9Pivd13YSpVUar7Y/vyLBNJW3+QwIgf3OpbHmyOM24rBn73i2J69X7rHusuJcN5k1zb9Nqaue7z0vqOKful+LPl17H+Zne99rLZL83TmAfHSH7ajcFNDMO371gAsuEHTOD+7wAAIB8EbxkMVL2EyOPE7j4gzZPv5rQYY6HGYIXAABGDJqNASOUPYpYyHDKbaflLfMUAABgOCF4AUYoexSx4E1D7b493uGSAQAAhgOCF2CE0vfFOdKekMom554s9lRXYw+L7O+XNNxN/3SXxJ/X0xvynT81iQAAoKzQ5yWLkbKfAAAAwHBHzQsAAACASCB4AQAAABAJBC+wmqCNHj3azAEAAADDE8ELAAAAgEggeAEAAAAQCQQvAAAAACKB4AWD4C75+pLnZJeerrvLpAEAAAD5IXhBiS2Qr9zYLNNPtsjC7TfLwp8/YdIBAACA/BC8oLTGLpBrx/bJz48QtAAAAGBgCF5QWmMnyhjzFAAAABgIghcAAAAAkUDwAgAAACASCF4AAAAARALBC0rq81fVifS+JP/eaxIAAACAAhG8oCQ+f519X5cPvHazLNz99/JDkw4AAAAUiuAFJfGNn6ugZfvN8surVBBz45flBpMOAAAAFIrgBSX1jdeOiYy9Vv50rEkAAAAACkTwAgAAACASCF4AAAAARALBCwAAAIBIIHhBafWelQvmKQAAADAQBC8ord5fy2mpkOtm3GUSAAAAgMIQvKDEnpAvbG+Ro1XN1n1fdl1HEAMAAIDCELxgEOgAxr7vy8KfP2HSAAAAgPwQvAAAAACIBIIXAAAAAJFA8IKiq62tldGjR5s5AAAAoDgIXgAAAABEAsELAAAAgEggeAEAAAAQCQQvKDtj1m2QOds2yPQ19SYFAAAA5YDgBQAAAEAkXFZdXf22eZ4XPaLUqVOnpL+/36QUbriuSxsJ+zmcj1n5uUHu3/5nMk09S/zicfmbfzhmJxs3PbZWPlVrZrTOH8hf3/tDM+Ookzu33C0fiplZ6ZVfbHhEvvUjMwsAAFCmqHkBBtFNj9mBSxgrcBEVrCxZY08bfimJ2j+Tf37sBrOEpoMfFbj0uJb73ln50Mq1cv+dZhEAAIAyRfCC4a1xqUzf9rBUNi6Sqm26L4t+nurXMufJpTLKLJpMM1PVMvOCW3J9vuVd6/H4+Jdka0uLtHwtbGV5+sRt8olakePf+4EcN0luz9+rAhF3LcuPnpEfdarH2mvkJjvFDn4Sv5QN7uW+9QP5RUJkmlr/+0wSAABAOSJ4QSSMXzZfLm7cJCd7Y+r5w1InrXKgNS4y9mqJqUBEu7B6pRy4VU0b26XPTkojJlUrNsiUnk328re2SvfYBpmxbpF5PWX+R98nFfpJ7SwZWPhSJ3fe+QGJdf5AvvYtk5S3OvnjSeqh54y8YicYx+Snr/Sq3Zog7hZnAAAA5YbgBREQk4qevdLdZs9VjD0rx1bvtGfUa5cXUmKPt8rRtR1mZqecV3GQTJoSqH3Z+9NX7ECo85BssVIK876/u00+FOuS7wX6r2RigpXEOdEVMDpIOdWjHiZNTlPDMlH++BPmKQAAQBkieEEkdB92ghWlt0cumaeF8qwvkx9/RZY2N0vz/QMJXW6QT35orCR+8QN53qTkwg54VOzyys+TNS3PH+pS8doH5M6/qzMpyidukzvV+gEAAModwQtQYk4/lW/5RhbL5H1/94Cs1AFJ5w+8I5J965/lr7/XJbEP3S3/vH2tPd0p8qNf9KoXz8opRhwDAABljOAFKKU7/1o+Vdsrv/jWM75+Khmo91iBi79jvkMHMM5IY3pa9oxIpV7eaV4GAABQnghegEwGONrYTbOq1d+x1lDGyZoSc58Xp/bkH91NwFTg8s+fUu/RgYsKSnILeG6Q9+tRzH6UR4AEAAAQQQQvQAYDHW3MGv7YXUtiTfZQyfomlXo+2SyskMBFv0cFQ5VqXYWPYgYAABANBC8oE859YNS0osEKOCqbnPu4rJIx9kJ5K9ZoY9nVyZ2f0LU0SuwDsjJZS2Mm50aVn7hN/tGd/imR77kDIAAAgDJ2WXV19dvmeV5qa2vl1KlT0t/fb1IKN1zXpY2E/RzOxwwAAABwUPMCAAAAIBIIXgAAAABEAsELAAAAgEggeAEAAAAQCQQvAAAAACKB4AUAAABAJBC8AAAAAIgEghcAAAAAkUDwAgAAACASCF4AAAAARALBCwAAAIBIIHgBBtUNcv/2tfLPavrHv6szaSk3PWa/lpweu8G84lYnd25xL/eA3PkJ8xIAAEAZI3gBBtFNj/2ZTDPP/XTg8in5gfz1kjX2tOGXkqj9M18Ao4Ofu+VDPa7lvndWPrRyrdx/p1kEAACgTBG8YHhrXCrTtz0slY2LpGrbBpljPRcZs04/V9OTS2WUWVRLpjvTukXmFZvz+vQ19SbFli5dPv4l2drSIi1fW2YSBuATt8knakWOf+8HctwkuT1/rwpE7v2hmVN+9Iz8qFM91l4jN9kpdvCT+KVscC/3rR/ILxIi09T632eSAAAAyhHBCyJh/LL5cnHjJjnZG1PPH5Y6aZUDrXGRsVdLTAUz2qg1D8u4wyvlwK1m2tgufTVNngDmwmq9DpGKhiYZY9Jk2SqpqxHpa98kR9d2mETb/I++Tyr0k9pZMrDwpU7uvPMDEuv8gXztWyYpb3Xyx5PUQ88ZecVOMI7JT19ROxWbICo2AgAAKFsEL4iAmFT07JXuNnuuYuxZObZ6pz2jXrvclNgvrX1QTm6xn1vatsppFd9IzcxUoCId0v3ZVumWGqmzgppFUtWkIpd4ayBw0fb+9BXp0086D4l71fl639/dJh+Kdcn33DUmWZlgJXFOdAWMDlJO9aiHSZPT1LBMlD+m7wsAAChjBC+IhO7DTrCi9PbIJfM0m0s9CfPMbaec1LU2ulZmW5NUStwVDPn8+CuytLlZmu8fSOhyg3zyQ2Ml8YsfyPMmJRd2wKNil1d+nqxpef5Ql4rXPiB3ujv7f+I2uVOtHwAAoNwRvKCMOP1iUtOMBlX6D7NlvRzTtTJKd+t6uWA/LQmnn8q3/uGYScnufX/3gKzUAUnnD+Rv3O/71j/LX3+vS2Ifujs12tidIj/6Ra968ayc+pG9GAAAQDkieEGZ0IFLk1T2tssRp8+Lmo60h9W82P1j6moS0h1PSGWTPQhASdz51/Kp2l75xbee8fVTyUC9xwpc/B3zHTqAcUYa09OyZ0Qq9fJO8zIAAIDyRPCC8rBsplSqh+62rdmblDUulfc2xKSv/Sk5uXqvdEtMqpZ5Ry1LGuBoYzfNqlZ/x1pDGafuy2IPl+zUnnju96ICl3/+lHqPDlxUUJJbwHODvF+PYvajPAIkAACACCJ4QXno7LE61lfOTI0spoc/DjYbWyRVKxqkorddfm110Df9X8Y2yHv9wyQrAx1tzBr+2F1LYk32UMmJXzxuzSebhRUSuOj3qGCoUq2r8FHMAAAAooHgBeWhbascTXbCt/u7TOnZ5Gs2Vi+VT+oO+r4aGtP/paLhnsB9Xoo12lh2dXLnJ3QtjRL7gKxM1tKYyblR5Sduk390p39K5HvuAAgAAKCMXVZdXf22eZ6X2tpaOXXqlPT395uUwg3XdWkjYT+H8zEDAAAAHNS8AAAAAIgEghcAAAAAkUDwAgAAACASCF4AAAAARALBCwAAAIBIIHgBAAAAEAkELyi6zs5OhkkGAABA0RG8AAAAAIgEghcAAAAAkUDwAgAAACASCF5QGmO/LNuXPCe71LT9mgUmEQAAACgcwQtKo/fvZcn2m2Xh7l+IzFhNAAMAAIABI3hBaakg5vmTImNidSYBAAAAKAzBCwZH7L1yg3kKAAAAFILgBQAAAEAkELwAAAAAiASCF5Tcq4k+8wwAAAAoHMELSu6HidMiYz8k//k9JgEAAAAoAMELSu83K2Th9nVy9lr7vi9fJ4gBAABAAQheUHrv2aiClntEfnazCmJuli/8xqQDAAAAeSB4Qcl9/qo6kd6X5N97TQIAAABQAIIXAAAAAJFA8AIAAAAgEgheAAAAAEQCwQsAAACASCB4QWmN/bLcVCVy4bU98kOTBAAAABSC4AWloYKW7Uuek103fkjGnGyRJS/vMS8AAAAAhSF4QWn0/r0s2W7f12Xhz58wiQAAAEDhCF4AAAAARALBCwAAAIBIIHiBdHZ2Sn9/v5kDAAAAhieCFwAAAACRQPACAAAAIBIIXgAAAABEAsELXC7K7ue7JO6adt9tXgIAAACGGMELXC6XG2+qlho9/d+VkjCpAAAAwHBA8AIAAAAgEgheAAAAAEQCwQsAAACASCB4AQAAABAJBC8AAAAAIoHgBQAAAEAkELwAAAAAiASCFwAAAACRQPACAAAAIBIIXgAAAABEAsELAAAAgEggeAEAAAAQCQQvAAAAACKB4AUAAABAJBC8wOWi7H6+S+J6+m/dEjOpAAAAwHBA8AKXy+XGm6qlxjXd+Lh5CQAAABhiBC8AAAAAIoHgBQAAAEAkELxEVGdnp/T395s5AAAAoPwRvAAAAACIBIIXAAAAAJFA8AIAAAAgEgheIu4Pn4lL/0N62i1/MGkAAABAOSJ4ibh3PFUjox+qkVHHpsslAhgAAACUMYKXMvGOf/+pvFPeLW+/xyQAAAAAZYbgpazE5O0/Nk8BAACAMkPwAgAAACASCF4AAAAARALBS7n4zQm5zDwFAAAAyhHBS9k4Kpe9KfK7+d+Rt00KAAAAUE4IXsrGN+Wd/1Qjo/e+Wy7q+758kSAGAAAA5YXgpWx8Tn7/RRW0XNtu3fdl9D/9Fc3IAAAAUFYIXsrFexbIH8aLvOulNSYBAAAAKC8ELwAAAAAigeAFAAAAQCQQvAAAAACIBIIXAAAAAJFA8FIm/vCnH5Xfy1F5R7tJAAAAAMoMwUvE/eEzcel/KC6X6hLynx6/kQ8UAAAAZYuybsS946ka+74uD82Wd/7GJAIAAABliOAFAAAAQCQQvAAAAACIBIIXAAAAAJFA8AIAAAAgEgheAAAAAEQCwQsiZKo8eu9tsv3eebLcpIw89jH49oKYmY+e5c36M0xNj84yLwzE5Jnybb2+u2ZKo0kCAADlh+AFwKDa3PKMLHlMTU8flD6TBgAAkAuCF0TIeTmXUA+Jc3LcTiiRmDxwl7d2wJ5GaI2PU6vhm4ZV7c+ZhJzRj+oEabMSAABAOSJ4AdLp2mfXEFhTq7QnpsriEdxk7fgu51g8I+v3J6RiblOkm68BAIDouay6uvpt8zwvtbW1curUKenv7zcphRuu69KGc96kcalMX3G1vLnxQem/ZYPU1Zj03nY58tmtcsnMWpatkjlNzgJaXI7dul4umLkx69T7pVWO9MyXGQ2qQBpvlQPPTlHrb5AK9Xp360o5ucVeVqReKp+8R6rGmllJyEmVh+6wS94f/5Js/a9/IhWd35Pm+5MrKDrdj2Kx7JP1Z2fLqrkq/zrw2BeTb98+28q/Lnjfd0j3F5kn0xIHZf0Th71X6GfNk+0Lp5rldM1LkzScU+toOWEWUKxlxkn7063yiHWZ37Wca1ta3/5WuWOPriZymGWTZf2Eaz0uJh8pJ2THY/tks5mz+7zMk8nu9euaEc9+2snZt5lj/s36z3jWHTyW1mcwwXdsQ99rZHrNkuMxAwAAIwY1L5EXk6oVG2RKzyY5cOtKNbVK99gGmbFukXld0UHOzMPmdT1tkpO9NVK3bZWMMYtYJs2X907aKwda4yI182X6Mh0Y6WVFKmc661skVdtU4NKjghuzviPtovLwsFSG9JSe/9H32QXi2lmyzEopoQmz5e6JB2XJLhVwVM+Wb3+yRl5Whd12VQafVq8DAhUI7FczsRppnGy/xbHcvH4otBCdRbUKOG7X2zI1E2r7ulYi1RFdF/RNkJCsuRBpuL1JHnDnQxfm67uSy+RU2+MELjqIUO/xBhc5bFPLmv8MStZMK4/8AwCAEYPgpRzEW+Xo2g4zs1POq9hDJk2RUXaCSNtWObp6p5nROqS7TS9UI+PcEcVYkTefdZaLqcWeStWmmPWNWjNfKnWtjWt9l9Y+pQIcFUTd4gqYjL0/fcXulN15SEpX72KoLL+8z6kpUTPH9qau0k+IWaNQtb0UV/mJyTXXJi/nK1NlVrWubTjoquHwU4VpXSPSdTDkyr+uHXHVCBzqsvrkTK60t9G4YLZM08u4anHa9uxVgUlMGua5alnOHJY73DU9kpBHfqbnVf5CAwmVJydw8dUk5bxNS+b8h1nePE+tX+R4hzu/xZNf/gEAwEhB8FIGug+7A5McdfYER3rqfVUSrhLwW6edgMhRL7F6VaCNH042N7N1SH+PenAHTI4ff0WWNjeXtMlYUiIuba7A4ky3u9mWceaEvKySK+qmpobUVZHLNBUovPySb3ldI5HsoG6aSHmCCyMwgMAJue+xZ0yzKxU01alj1tXlC4wS8to59WCCqrReP5dmRC5dM5GmCVy+28yY/5RpC1Od9RdX64AnXXOvgRrgMQMAAGWL4GWE0H1a5mxzTaYvS35q5HLdz6WmybsuNSX72wx7pjbD1XTMajIWVqPi6bD/jOw4N1tW3Ztvs6VxuqztC4ScAMBews1/D5TtumbFvOZWMVfXTCihzbby22aunA77urO+Dp5uXKA3UgqlyT8AAIg+gpcRwOqMX6M71Tt9XtS0sb2Ae2zE5WKvfkj1d/FM/kEChiurWZTTdMxuMpZL86fNLfus9+XXbMkM7+wLhJKTq9bE6vBerTulu15Pcy8U3aHe7tujCvjN/vzkvs1C2M237ACqNCOvlTb/AAAgugheyt4iGadrReJ7w0cDy0uG5mHp6NHGWlqk5Wsl766fhxNWx32r6ZjVZCy/jvp9Z8+bZ7nItamTHUSF96lJ49A+uxZEBTDeIYtL3bwq1RcnW+1L47U1BdTw0TwMAACEI3gpe6a2pGZmamQxPWxyQc3GRC482y59/tHMMhjU0cbyYHXcj82WVQunZumon2J3Ug/pG5PF5n0H7W0FakjcTG1DdXWqNkMPm5ym2ZijbU+r7OjStSDe0cFy2+YAHDoYqH05flYluJrjNS5osoetLkDJ8w8AACKJ4KXsdUj3Z1ulW/TQyKaPSmOPHCmo2ZiiRy7TwzGH9HupColOBnW0sXyYjvv6Kn/aYMTX58K6h4l7VK5c6VHEHtsnx0P6cKQCjoQ88oRulqaHRjavf/icrE/TbMxtc4sZDnqh6673OW1zIIK1L3YgFZOG2+3trKqLq+Ol98lNDzRg8mICs9RAAK4hoUuefwAAEEXcpDKLYX2TSgyAuQGihI3WBQAAgOGImheMTJOnyjUxkeM/I3ABAACICoIXjEDm5o5d+0p0nxIAAACUAsELRo7JM+Xbpm/FND0Mb9gNJwEAADBsEbxg5LA6gZt7hRC4AAAARA7BCwAAAIBIIHgBAAAAEAkELwAAAAAigeAFAAAAQCQQvAAAAACIBIIXAAAAAJFA8IKAMes2yJxtG2T6mnqTMoItW2UdizlPLpVRJilapsqj5t42y01KWXLu4XPXTGk0SQAAoPwQvJQBK9iIbOF6aHDMAAAAouey6urqt83zvNTW1sqpU6ekv7/fpBRuuK5LG855c+iCeN2kdjny2a1yyaQNqcalMn1Fg1SY2aR4qxxYvdPMDK1hd8xKJiYP3NUkDXJQ1j9xWNpMqkXXVtw+O/g5de1z3cRT19zMk2lmLkzf/la5Y0/CzCmz5sn2hVPVkxOy47F9stlO9Whc0CSr5sbMnOLZphHIX0Lan26VR86YWQ+Tz7D1AACAskHNC0qmu3WlHLjVmVqlu6ZJ5mxbJWPM6xgeju96RpY8ZqanD0pftQo+ks3MTsh9zmtqWr9fByk6KEmlpQIX00Stvkt2dJmkEMubb1OBi6hAxKzD2WazDngMHQCpwEVUYORsZ8lje0U+WebN3wAAQEbUvGQxbPOWrnbD0ZuqVRi15mGZ0XBWjqkAYvST90jVWHsR9zKaVRtRY2YUHXyc3GJmDGtd9a+q952WK7c1SaVJ72vfJEfXdtgzJm9v+d/v5NmpgUmzXKBWRPc7aZooJzc+KP23uPMYV/u0Xi6YOc2/D57anjyOmb1N14oy1BrZx9dVi+BbNqdj5vbxL8nW//onUtH5PWm+3/cBFJOp2Tijgpf7Dpk0zdScBGpUFLvG5HxIjYpdwzPhZ/a6dICyuDqk5iXjNseZmpUMtUUAAGBEo+Ylqtq2ylFTq3EsruZ1wTtZy6GmQHOoGqnbdo+M79iUqgkZ2yAz1i0yr4tcWG3eu7Fd+kxaKP0+VQgXp2alNS4VDSooWmZeT0fl+bTOa83MAmpfYlK1QgUmogIDK/+b5GSv2idXvxUdJIw7bPLk7Ieu7XH2MZ9jtmW9SdfbMWkB9VL55AYTGDrrMTVM/v401jGbLxc3muUyHLP5H32fHWDVzpJsh7QkXj+X+fMPlZBHnvAFJCEar61R+3ZCDnmWU8HKh3WtS0yuudYVBMYmZGyuBgAARh6ClxFE16SkrvTvlPO6AD9pSkGd1j21MltarQJ+5cxUIJTZRBldwJBQuqYiVaPRIYmOhAoKJiXzf2ntg96angEFSzlY1iRVYxNycqO79mennFSBiQ5WrvRFHt2tD0q3U42w5bB0q4crpgRHdNv701fs4KHzkJSw3iW9d0+wgqcz3d5al2KYNlEFJ4lzctzM203NmuSaY/ukXW2uYuI4laYCoZ/pfitTZbFuhuZuTgYAAEY0gpcRIyEXO81Tw6ppCdTQ5CIu5z2l6g7p71EPOQRCl3oKLxC/ddrbxEoHKwd8zcb8BrK9bMbM1M3Kzkq/v11TaGDiP2YZ/PgrsrS5ubRNxtLRzbp0Z/uufVlrUQZMNxW7d7ace1r3mzlvEo1D+2TJY61WQCNWH5wRMNwzAADIiuAFg2rUJFezoKJbJFX6niyuydMXpRR6e9IGfxWT3J1vhq9pC3VgYCbTH6XUI3ZNW9Ak2xeK7FABSvjoYZrdFM3qrL8rVRPz6Cz7VQAAMPIQvGAQ1cvoSeqh91VJFL0Xtg5cmqTS14/liHXpfmj09eg2a8OfZ7QxNZWyxuX4WfV5xGbL4rq4rPd05h8nE1Sc2XfWVwPjsGpi9lnNzaZ9mBtRAgAwUhG8lAGraZSr78fgWyTjalTBs+PFzE3QrD4i2Zaz15W3ZTOtUby623JrBleMY3bhsO7bcrXE/CVpKy8JefOFkJHEcqFHG2tpkZavDUl3/ZJqeylu9ec5/jPfKGKzqmWaOmYvvzR0wSYAABj+CF7KwKXTZ9XfGpmyJtj5ezCMWaeH/43L6bBhfx3O0MO97fJrZ7m20/KWekh19De1J2YuL509VqHYPWiAHjY5XbOxohwza6CCmFQtc48spvZB72d8b6pzfp6GfLSxUjpzWHZ36aZqrv4rpp9N3/69pgnZVHn0rmDtSuOC2dboY4HABwAAjBjc5yWL4Zw3t8C9Rlz3LLFfE+s+KekL1JkCh9T9VALb0VzbsoTeT0WPyhWyfd+yehSzN6Y490Ux6zSBj2eEszC+e7Po0cl+LZ9R+dVDGQc79mc6ZoH7xbh486GHS74nde8cxX//Fns7/jzYx/uKsHu9DPV9XjJIf58X594uZsbPd+d7/7KBe8qYvHnPofR37AcAACMDwUsWUQleBkt4QRwAAAAoPZqNAQAAAIgEghcAAAAAkUDwAgAAACASCF6Ql1zuag8AAACUAsELAAAAgEggeAEAAAAQCQQvg6izszPSwyQDAAAAQ4ngBQAAAEAkELwAAAAAiASCFwAAAACRQPAy6O6Sry95Tnbp6bq7TBoAAACAbAheBt0T8oXtN8vC7S1ytKqZAAYAAADIEcHLkHlC/vVIn0jsvXKDSQEAAACQHsHLUBs7Ua42TwEAAACkR/ACAAAAIBIIXgAAAABEAsHLEPph4rR5BgAAACAbgpeh1HtWLkid3HTNApMAAAAAIB2Cl6HU+/eyZPvN8nxstXXfl+0EMQAAAEBaBC9DaeyXZbsKWj7wmr7vy82y5OU95gUAAAAAfgQvQ+iGqmtljByTX/7GJAAAAABIi+AFAAAAQCQQvAAAAACIBIIXAAAAAJFA8AIAAAAgEghehsxd8p9nVIic/KV8w6QAAAAASI/gZdDdJV9f8pzsWtIs03t/IV/9+RMmHQAAAEAml1VXV79tnueltrZWTp06Jf39/SalcMN1XVqx1wcAAACgMNS8AAAAAIgEghcAAAAAkUDwkkVnZydNxgAAAIBhgOAFAAAAQCQQvAAAAACIBIIXAAAAAJFA8JKjtZu6JP68a9p00bwCAAAAYDAQvORozT3VUnOTnq6SnyZMIgAAAIBBQ/ACAAAAIBIIXgAAAABEAsELAAAAgEggeAEAAAAQCQQvAAAAACKB4AUAAABAJBC8AAAAAIgEghcAAAAAkUDwAgAAACASCF4AAAAARALBCwAAAIBIIHgBAAAAEAkELwAAAAAigeAFAAAAQCQQvORo7aYuiT+vp9fkozGTCAAAAGDQXFZdXf22eZ6X2tpaOXXqlPT395uUwg3XdQEAAAAYPqh5AQAAABAJZRe8dHZ2UusCAAAAlCFqXgAAAABEAsELAAAAgEggeAEAAAAQCWUbvLx980HpfyiupoPy+/eYRAAAAACRVbbBy2XPzZbRD9XI5T8T+d93E8AAAAAAUVf2zcYue+45eZfE5O0/NgkAAAAAImnE9Hl5+92fM88AAAAARBEd9gEAAABEAsELAAAAgEgYAcHLUbnsTfMUAAAAQGSNgODlm3JZj8jvP/wX8geTAgAAACB6RkSzsXc8VSOjH39dfm/d92U3QQwAAAAQQSMiePnDZ1TQcqvIux5SQcxDN9LRBwAAAIigEVCOXyt/qBN55yt75DKTAgAAACB6qIQAAAAAEAkELwAAAAAigeAFAAAAQCQQvAAAAACIhLIPXt6++Wb5nSTkHQe+aVIAAAAARFHZBi9v33xQ+h+Ky8UPx+Rd358t7/yNeQEAAABAJF1WXV39tnmel9raWjl16pT09/eblMIVc10AAAAAyhN9XgAAAABEAsELAAAAgEgYFsFLZ2cnTcYAAAAAZETNCwAAAIBIIHgBAAAAEAkELwAAAAAiYVgFL5+/7jnZtURPG+XzJg0AAAAAtGEVvHzj5zfLwu03y7+drJM/J4ABAAAA4DIsm41948gv5IJMkfeONQkAAAAARrxh3OelQiYSvAAAAAAw6LAPAAAAIBIIXgAAAABEwvAMXnp/LafNUwAAAADQhmnNyzE52ysy/dovyw0mBQAAAMDIdll1dfXb5nleamtr5dSpU9Lf329SSuA9G2XXh+tEen8hX9399/JDkwwAAABg5BmmNS8L5Cs3Pie7rvqldd+XhQQuAAAAwIg3PIOXsQvk2rEiR197wiQAAAAAGOkYbQwAAABAJBC8AAAAAIgEghcAAAAAkUDwAgAAACAShmXw8vkZH5Ixckx++RuTAAAAAGDEG1bBy+eve052LXlO/ryqT36+e4V8w6QDAAAAwPC+SSUAAAAAGPR5AQAAABAJBC8AAAAAIqHgZmMAAAAAMJioeQEAAAAQCQQvAAAAACKB4AUAAABAJAwweLkou5/vkrieNl00aQAAAABQfEXqsK+DmNMy/dgUqbnncpMGAAAAAMVTpGZjl8u/vPhHIlf+Tj5nUgAAAACgmIrb5yX2O5lungIAAABAMdFhHwAAAEAkELwAAAAAiISiBS/f/M0o8wwAAAAAiq94NS/H3iUJeVNufuj3JgEAAAAAiqd4wcu/V8jsm6rluStfs+77cpAgBgAAAEARFek+L8qf9snB/9Ytr3+3Wm583KQBAAAAQJEUreblc/N/KzEZL+0ELgAAAABKgNHGAAAAAEQCwQsAAACASCB4AQAAABAJBC8AAAAAIqFIwctF+YuP/Fbk2GhZY1IAAAAAoJgGGLxclN3Pd0n8+dMyPVEpX7nncpMOAAAAAMVVvPu8AAAAAEAJ0ecFAAAAQCQQvAAAAACIBIIXAAAAAJFA8AIAAAAgEgheAAAAAEQCwQsAAACASCB4AQAAABABIv9/epeEqLo/Is4AAAAASUVORK5CYII=;" vertex="1" parent="1">
          <mxGeometry x="759.28" y="650" width="170.45" height="151" as="geometry" />
        </mxCell>
        <mxCell id="8jyKJ8MEoaGuotIZUo8H-16" value="&lt;Load Balancer&gt;" style="shape=image;verticalLabelPosition=bottom;labelBackgroundColor=default;verticalAlign=top;aspect=fixed;imageAspect=0;image=data:image/png,iVBORw0KGgoAAAANSUhEUgAAA38AAAItCAYAAACJhsPHAAAAAXNSR0IArs4c6QAAAARnQU1BAACxjwv8YQUAAAAJcEhZcwAAEnQAABJ0Ad5mH3gAAH43SURBVHhe7d0LkJT1ne//r7t7kGSguY3CyTiZGcBZBRllJxsvgcmfBKylRpdixzXraoRT0XgszXHR/NVNNJWKZqNWlON/tTzeasFIPDGZUGycIgUknAwkxmzmICDqjlyGDATQ4dY4EdmL/9/v9/ye7ufW1+np6enn/apqmOeZp59bP93zfPp3O6uhoeEjAQAAAABUtT+y/wMAAAAAqhjhDwAAAABigPAHAAAAADFA+AMAAACAGCD8AQAAAEAMEP4AAAAAIAYIfwAAAAAQA4zzV0HmPr1PrpppJ5S+HzXJ956yE2Vk9uOcX8mzf3W9HLbzSudmWfzjr8mnJthJScpvH7pY1m+0kyjeojXylXuvkIl2Uk6W5jVc3nGdLGkQ2bvxJblrp51ZJHddg9u65IbNSTu3GiXkvpvapTVhJ5XRc8zpfS/Fa44ymDpbXry+RY6MqtdrhK+ziHNmPp8m7ZCVz+2SbmfWMLPn4PhWWdrZb+eNjCEf+5x5snZRvZ3gswPDxL3OkuV7n7YtaJcVcxMV+jf8P+T7Lx+QK/S9RrJWvn1tjTzr/CIrSv4qyLZbmuSBz6vHQ7+SE3Ze9XlW1v+VPc4f7bbzUBIbr5d/1OdVPV7h1I4g96a2X9Y99pIstQ/fHw1943nndfLoHDsNWPpGY+2d82S5nc5H26xGqVE3Q+u42c4b56x0zDW7SDyfd1tFFvH5Bgy3h59UwU9U6PuLBmnMM/hplPxVIluCc6JCSv6CJZKOEpTY3bpR7r/m3Kos+Ru2c5anUpbeOt96ifSs6ZIHj9iZmv3mXN9A+b6BG4Fv5iqKPS+S7VvCUpfUpL51T4Zfp5Kql0dVMJkuOthulVV2bupaCM5HwZz328kCzqPzmkyt+tL0Uoo+Z5T8FXHs5rNHB7/A9Rqcn/qMcGX6rHI/Y1xRywWXiSppDC8z1M9HtwQoZX/gdUt9DgcV/7no1pZxZSx9Sp3f4f4bEEP2da280uwPZdNP1R3ejxtk4TN2Vp4o+UN+dBVCW6rklCwl5FP3bpfF6sMdGUSes33ylQdvtgtUiUSjtE21PyvLm6P++MXPkYHy3Yibc75/h/QkE3LBLM/NybCplzmeb/VNKYr9GWU2p0Hd4Cbl7TcJfnnjnJWICq+X1qtAsiMcbHbul70yQc7TfxtMMGmUt9eka0Ks25+Q1uvb5T7P3w6znA5sOlRlXM4JdaJuxN1lVm5LyvRQSWO/3GV/n3ld+dMhzPkS1K5vzQ4ZbFChoCP4906HL/92dUlo4cFPfzGgg5+nBsnGfqmZ2y4vLvB+xjvLrb1aZJM6D4iRz/+7nGt/LFThJX8Xfku+33aOvP7jW+Xgp1dL+3l2vuyXrqe/IWvslGGW9XxlcWC9/G3X/7YTade3e9cj8oc3/pfc9MtX7ZR1zp3y3F9dLB+3k+Ht/Y38wy2L5dzAcz/zmafktoveSy9byP4rzvPTW43at3yWKUgeJX/BkqUTr/6D/ON9gQJfU7LmLX7aLa98fpFss1OuaQ9ul5svD9wwetqLRZYiZdrHPLdp5Cr5C7ZhUx+q/mUfki/+7Asiah821nmPIdM2neUb7VT0crmWsW0W3/uBPPCjet/+eV+D6JI3t71jYJ2h44ze/7xec6uUJX8Z2W92e7ZNkAtki/02Uv9hbpDjal7rjL7Ut8jBby+zfoMW/PY08O1qumRkh5xn2wwZESWN+X1rms83zXl86+uy38BGleoF9yeouG8W0zdD62rVPnrOu8tsV9T+bk34vn33b8+trmono86DexO37aS0Tt5vj18/b77IHjVP3Rx5v+EOHW/wnKVuCrvkwDzPslGlxqFv1aO/Tc94jn3bzn6s7vlaeazFec31cz3nLvg6Ba+N4HWW+/xHlVJ4ZSo5sMeRqeTIXovpYB69nlz775z7CeYc+V4nz/qc8x61fntsqfOfx3XmkXPftByfGX6Zz5k5Bl369RORL2d8n2jBY8hSIpN136L2JX0tBNc59OssLfR5poXedzk+G831NUk2Zbk2L9iT4bzYa9NbQyJ1/n37kPn1SgteYxnYbRZc4yLT8zzvC3NOgtNDkWFdzuuWrhmgz9nCY845dH4XUUsnX+Y4c38ep/ch99/grNd/xDXgCh1L1veRX/Da9r5Poq8xl3MdjZpaFJ8flB3/74C8W76Sv4/LJX+lgpOoMPf0MvX4X/L6qQZp/9s75TN2CR2InJClf68f66XvvMXy/fa/sUs4nOCng5e73DLZPPFGufscu4Bi1qWC37vd6WW6Dqjt3fKUb7n85d5/kcvl7r9drUKdeI5hmfyTLPZtU++/Ey7tMj/eLnLRf5fnPnO5XaLUdDixN/ZuqdJDv1K7+zW5/+mH7DKKDhSX9KRKnR74/D/Ib0/OlKt+tlHU+ylFh4SbL39XhQ13uSG0F8tzm/lRx3mryA99+xVd2th4jTqGc9b7t/njNTLN/t7QQVOHut0qtKXW2SMXBc+ZWmaiClXpbWbY/5lfkPvvvUh2P2TX9aPdMlG9BnqfM3tWDr9nf7R08L7fhmj/Nr3HmedrPkIOvNmnLqQW00apbUGL+uDcIQ8OnFR/syelbhpWddpvLvW3pXZeFP3BrD/g9c1K6lvT3oaItiP1suRO58bC/WZ1b0LdqKe+hdUf4vZD3l2P2rbMbQ98U+u5aXCXU3/QJl09W9rsEs7Nh/7WV/+xc5dR29Pf+t7kLudsb61+2Jsu/U20mTYPpw1X8Dz4jlM9CrohcZlSjH7ZqZ7brV6LwUBJbIreX8+378635d5vwZPy4HN2XzZmuYHS3tyvjr/Fee6cFnVjpl7zN4+rY7Lf9Cv6D/Cc3vSxZf6mXH8b79zAOMsGX0tF3yQ0q7DpruuxLulJ6mvA3zbO/GEPfFOu6T/+/ptrezNpl1u5TcIlApNa5MuTdzjrUMf64tXOTVGPuieY7ind1tv0XRv2OvN/O6+Y869vlN1tes9/upRCz3dClV2feUTdXCtT6+UCtZm9vRGvl+fGKrWeNcdlYeD8573/9nUy4cIsa18D+x5YZfbBXyJs2FK2nq3uPuZ7nbnvO09pi3o8I/a6s/R15twku8vY92boOrOynTOjUQW/bO8Tfc7mi/wkvU/RJTKFfJ657OeRff29N6Cluc4coXWpx7r99pcpuT8bTYn//v3Otamvt9TnnS6FS8qB42axPKlrR4WNwT39gfCgPl/0ITY0FNQOtpScmg3OZ2yauj4v1dfY8NS2MLU5kn3S7Qtx6v1mQk36fab/ppQ2qATf5xGfx0auv8F5vDeP9MvbatdrZtR7/t5qCWmboY5zv/q74h7/Tu/njp0XIdf7ZO8x9WTPvUmUctbaGSlFV/vUpVvpUrxX5Zf7/yAyfqItMfkbab/o42qZF+SR1M3u/5avdatPl/M+6wlPl0ud7vXxwJu+Erc1Xbd6nueu63/J196ys5Q1XSpM6hD3aX+YzFf2/VcuXCyXjP+DKSFM74vIL3/5jfT0OXfKgvNE+ro9JYbvPSb/9MYf5OMXLZbr7axSmvbgYrWPu+UVb4nOxuvlh6+qi3Xm4nRg0J1/3HKvndCelfUbdaqbKRe5AUWFnXkzda+iUaVk2dwsi2+9Qiae/JVs9Jb65bPNvN0r3wuUWm37ke4IJyEzPxuoNqlLKVPbfVa26ao8E86V/2rnmP1dpA5UBz/f/qlteKbnXuMc0w89pWnbbvmBus5myrxQVU1dOucphXyqRy0nMrEuW5XOm2WavvZPviuHzPRDsujyhCnB85aeOttUQfcaJ9jl/ZqPFPMBrv8Y6Q9sKb4qlbp5WKj++Ie+pVYf+lGhSC+X/qOn/jDrm5dJah/UfzqEmhso77d7R3bJM/rG2g0t2tSE6B/9N4LqRtz7PHPzob/x9t6Aq2X0jav6Y7fE/BH2VDHSIUfN8Qe7DDfvJeBU+bQ3YEeSciTjzYj/W/vuzTtkb8Zlc9Hn23mu3n7UjXT35i7/66bO/yb9GkXdxKkbzEyvpaGee4PvW14VIF7T096wYW8evVXQduqqsP6bi9S14Vlf9+Ytajl10zPPc4OjTsvbqcCiJvZsSd+IuPuWumY9r6+9zmrsFyJp/mvIBHW13knF1ttRsnZacu4kdcMaqNoYPI8F7X8wRCele49at3sjZar5+YOxFn0Tm4fU+85fitG9eatn2rkZHtzmeW3c96b3fe6Rs6MX/bpHvE+818aqzkDJSsR1Vujnmd7wfTe5wS/weVHK6yxqXVHy+GycPlmd+2Mn1U8qKNqSMefzLynH33WWychcn+ow3Bttuz3vjbcTHkTWmS8J0l8shdjnOvuSiTq/V7cU1cmPPk5JHjfXt8P5AumCPVud131yqvtyxQlPwS/+CpOQ8yap/46r95gzw7xuukqsqNdN78fU2mI+t/PkK1VT16P5uxn+3M72Nzi/96b7GRL4wjLnFzQZ5PE+6dZfTKc4XzClwqi5jvK4dgu2TL7b2SmdmR7fXWaXK5+iw9+7x/zVGn/5y1vlb1NVK2epm9U/SG9voOrjwAk19+MysdZOq9B1UL8OESWCKWZd4e3pMLnrgPpvwic8pXX5y7r/yvXT1RV06h35ZaCkxuszzeero9kvuzyhVPvlMf2kc6SuqFLJbG6WufpGLRUe0g7/4g0TjGq9NS6Ddr/r60V02mcvkokqVLyRT6cyE66Qm3+2T+43D1t1MRDOIgW2OSTqQyNqXSfe/D/Z92PR/yMz1Wdz3+ve4Bf0kFykzl14XXtEf1ZMPEelGq/Qa6CC5OebMlbD1OY+rc9bUn77lD1vt7aaa/vEweBz7pU3dGY+p16mDfU1H0Ztteqkmj+Izo349EvnywUqthZ8k2dFf7uaSfgDWn8DutTcmOgQGvxj7QjdCJmwpP64Z+mZzty8ykk5EDwue7M7rH+Ec3ICT/qPpPMHOPxNqhK6AT+p7y0CNy45mBs251ys2rpDZMZ89cc239dM7af+1jVCwX/ktXd1SaOHvQGMlLqJsteGG5ZTbCmFN3AGzlfUt8GZrlnnBiNws1pMAMrK3lwFS0pc5vzoG9FAiaZHQfuvBM+BDvjpLzaibhJtIM+0j1nkFRptqWLoCyd77OFgneOcaRneJ75rIyRcylXY55m+CdXV5yKCn1LK6yzv/cr52egEFHNNmNfBrtPzGZGZCk+mCl+m/XBuylfokvecX5zZUBd1Hdj1OCHMnt/I6n4F0NUP72yR42t08NHn3yNVOuU+3BoKmd+D+TAh2JbmRn9xUFrBz+Poz4Nsf4OVPN+bUV9CFvbeScvrfWK27x7LBP22Tn9m2S8kSm+1fLWjQzoyPb662i5XmJvn/0GduYnSU2CVT21YOnz5zGSdepyqld+/xfPwtdlzrOlaJk++8QcnANrlwlUm/yAnBuyPQd7SupKxJZInfy+/dGZEapyoj0ZXPw0cp7ed43B4rz9j2PGWPOkqnU5Ysw9fu7ICBTovefbVc+Uqtc5gNcdSbtNUifSuy9cWrwAzz1X7kJSBbNVZ1R8ivZ+66qZ/m94xCQvkC8xutc1g+8Ys++UtvczzNR8xOgglEnLkNe8f1vDNYzbhb1eHyPutaUA6sOkSO1uVL1VNM+IPdZb9Kig8lZr9A+v9I2yq36VKJIeRLvFVf3rE19mD94ZbfzvunlPnEWpjVABThc67Plu9NuWIU7LoKwmxVcbSNzPuH3t9A+dfX2Q7wRzMNasDRWBdvrYpw8XecG/KVOVLl/KpG2dTapUqifCXQpR6/50vVzylsbn2MaOIko8I5gso3/HZR/DacBW1PxHVF00pjH+bweunoM+zBlu1McPyI3Od5fps1O8l57PHCerOvqe/FMzEVidV59Vfm8Lllqp5S5kzcUOzeo9vDJTGGp4qxvqh/vbqc+ivKusNiOlHVOCd7pZEqvMS3lYUtf2f6JLQYA2L/LdpqjHqdtw5Q3AOEddscaWS+cn/vanCmu8LS+cLushOhHLI631ia8eYv1P688B0lOa9V8n1xcXIu/mb70nfT/fLV2SyNP7FBLnHzi/EsIQ/p+RLV5lMt5XzPrzVNzWn1E3/Tre9U7GxkDZzp06Y6nalZUskc5Qq9p1QodV0FBM+xr992l9dtFzcUiSncxDdQUo6sJVy/MDD9z0hv1XnqHFRum1dKbfpdkKjB7pPrevzujpkEUzpY44SMluqqKtgprfnefiqi+YpEJgfyKek1CuitC9KuORwJOgbhaF9K5lPXfxS8ZdgeG4QTJWl7KUlQdmrGg0vp1Qy8AfW/qELVr8rPee8Rbc3sTd4ugMA98ZLPZz2bIXTN0BLGvTNYnpdbvXaNBsYvH/81bnwV7uzpTi+dkyeR4GlAk5Jpi6tiVhX3jeIxVA3j7q9UagEM8h5X5r9MVXn9LlJ3/CVfP9tGx732jPXZ859jBJREhvB+UY/cF14Hv7Po3zPWVAgiOqbaH0DG7iGgm3mCvo80+vS17NuM5VqR5w2ctdZAZ+N9vw4N+Bp/s9aHXp08FPHFAxrqZJGp/Mq7+eKEyTCN+XLO5zgp6sj5/W3Z+dW8zr5a0YEAqJ9eNfnvJYtsiQUwpwvk7L+DbDH5f+SMNc27fXfMM9pe+f9XIqoHpsX82VQcJtDDJRZFPLedL6wtFU/TZXP4nriLeR9or8A1tfV3t5d6lw74Tz3FxfFKm21z2e/eY4KfQ3yj3JMhcCT8rCdX4hhCX/h6p35elUe+b4NgBPt12hvvalu+D8uzc3BMPg3Mvs8FTH3v5qldO5y+UxDsKwxPybYjT9fPpOl6ubwVe/MxLZnm9ka6oDEX4XTqcIou9cHSpn8Dh/UxQXnyjRvmzHbDjBvqRKp/LaZH7eqY6BNYbFssGu8JFvnKBmqdw4n004wEW7D6KuCmu9rXn7BP/JD5fyx8LbhKpa6CdHtCCLaKOSsTqL/QNqbHLcEy/eHycuWuhXzR8q9Icinyqhb4vViqAMOt42bp0MP+zA3olFt67yKaFfh3ITlwZwbtW5fSXCxnOP0Nf6Pkmoj5j8X/pvC/EJFvqKrQw1NXusspk2MrpJmAmB63aXff3VTq9timmvPed2KqtKrODfcGTovcmWs3hmh6HZEzvPcG3znM0RdZ6n2oNEK/jzTnz369Ql0mqGV8nWKXJdtK5VVxGdjRiYI6tDsrZWgg59bShd8X2pOCZDuMdLfJs8pCQqGducLIefzL/oLqNJxSrTVfgc/z/L5G+B+FhZ43TkdKIWvs2KrRA5FXlWwgwp5b5o2szaA6eMrsop8fu8T+wWgWk73UaCvT32u9RcC5osa90uekhqeap/Pbvm4ukJOSOuX7YwCDE/4e+8x2XxA3Wy35eqN82/kH3w9bCrnXC7N41WoO+F+jfa/pct0oOLvAfT6dt0Jxn7ZnBpSYb+c0KGxQQU+M6176/zvcolaVzF++ctfmNB5yV99y9dxy2c+8630fry1XgXV8DLD6fB9uqObmXJVoJfKvzYdh7xsO25xgowvMOjeLoNVMG34cDsW0aHji2oZOZn7g3Tag7eb6pDpdnR5bjMvtlfMCRfJXDeY2p44i6vie69sNJ2jfCEwxp463tR5tJ3ThJYZTs5+Tbz8dl+nLXOf1se5W7ba9oP5veYVppAPfpftNCHYM51uY5GpPV4mTjuCelnivYlSNzhfNg3QPdVJ1LqDocq9uUvdtNg/TK2+HkBtm5VcgSQj294uolMNPxt8lFA7viw3Hs6NQ7YbT3UjVmTnBxl5A615/dMlQJqpvlRUtU/7x9obZnW7m2D1oTyvOd1W0ZSwBG6wi+JeG9eXsPqUPQ5f5zMBy+flfu10O6Hg+8YpKfaUoAzH/pu2sOra61DX5xCur1RHK4F9a1swL/35oAKJruob+syIkM85C0u/T56xAcO5wfRW49OhJqLacDGfZyqgm9LxhsDnUilfJ/P6eK8v9Vmm3kuSDHyO5PPZ6KW/UPGGSB2a1V8u5yY+V/BzuO/NL3u265Tu9fs6aCo2+On3hH5ewV9Kpa4zz/nXJcDqb4C/Q5MAu4wu2c10zBlF/d1Rr4n+DM3ZWU8pqW0O7ZzlU4vG+cK2ZoYuXVXHV+yXhnm9T5wvAGvmzpNW9/o0zVbUtvX9wQjW5CmnIsf5a5C+7nD1zaDg+HfGqe3y5PcfS5fWhcbvU4EiYt2hdQXXYzhj/bkBwYy3d2yx2l8JjPOX3/5HBcioMfyC4xQaGcY0zEx3558p3OwOjPsWXlZXj/SPCRhYRldBVL//axXGfGPz6VCVCmjOOHrbPrtdbp71hn+cv1BpYHCftDy26dtegF4+VTXSHRPPTCh6ez1ykVq/HorB6VjF2V562uFUGdXDVwT2L58xCCP3zzu+oN0v8e5rmDlneY6zFxpn0XceXLlf89B6PLKNCVgs8wc403g5+o+euqHQvb/dtdNt4xFFV9Hw/yFz/7Cn+Hoec/6A5zeWUXi7UTcezvq85y28T96bF1fGGw/fsdt5kfLbv0w3OlnPv7tue+5C51QLnFd3vyPbSqmbX70dMedKd6MddfPhbDM1RpIOaLYKqqb3/xmZ739+hnMVPrbAudL7Y8di8z43/Fpadv/T5yl87jX3/Pu2b4/D+Z29DsS/vlznN/K1ynadBM6d/5oMnOcsQvsVOg+OXPvv7k+2G3cvd32R75E8rrP0/uX3vot83X3ryvOchc67EnyfKMHt6fOyszniNVZC59a3Pnt8gTHsUs8JbDvX62R+n8915nsNdGl5l3TPUscUGCM0+2ejs++TXlPrfdddn/q9Hk7E/Oys13xGR53XFM9yWuj6CHweZ7t+lNQ1GrVchus/X8HzH7wWo67DfN8z0cLXf3B9GT/ztEKPN/LcBl4fxdlmfuMJRu5f1H6lth319zfDtW8Fz0mu94m7T97Xz33O0F6vMhvCOH+Fhz8AwKgSeVNYZdw/6KE/3u5NRcRN/KhkbqT9g+kjB87ZsNCfK+4A46gC9rMy9xeXqAjlH+QdAIDK4bRBjWgLY6ujVodEkZ2WxBnnbLiYtlI5q64DGBY/+xOJqoGdD8IfAGDUc3p6C7dzXN7hVO8stuORymJ7CayGEsyy4ZwNG9PGql6WBHoo1e30crfzAjA0KvypP3szFw5KoT1VUO0TAKpcHKp9atHtX6LbkAAohXC7tKh2khgFqPY5Cv2HfP/lA3KFfv8la+Xb19ZIPr07EP4AAAAAIAao9gkAAAAAMUD4AwAAAIAYKCj8NTU1ydixY+0UAAAAAGC0oOQPAAAAAGKA8AcAAAAAMUD4AwAAAIAYIPyVVb08eud1svbOebLczimeHltHr+s6eTQwqDEyieE50+P2lPt458xT57iaBvm1101HvZ0eOXq8vrWBAZXLzl5T+n1kHjn2R4+9p5d7cUFw/D0AAFBuhD8AJbW8WYWk/TvkwSN2BqrLkV1yw2MvyVL1WLffzgMAAKMC4a+sTsrxpPoveVz2OjOGICkPPufcgN21085CDpyzYTd1tixsENnb229nlFq69Nb/KEVp+uhjSgJD56KySl27B06a/48M6A8/AAAwkgh/AEqmbVaj1Ei/7BzucL1/qwnxzqNLepL1siSmAVCSO2Rl6lzo0riEtF5PNUsAABB2VkNDw0f255z0OH+HDh2S06dP2zlD1HajzLz9fDnxxP1y+qrHZUajnX+qR9760gtyxk4ay1bIxe3uAlqf7Ll2pbxvp8Y9op4vXfLW0flyYau66enrku2vTFPrb1U3oyIDXXfIwdXOsiLNUvv8bVI33k5KUg6qfRjotpNen/26vPA//kxq9v2zdHw1tYJho7/JX9JgJzR9k9vpLUXRJR/tog/RkZSeNV1FVrHTbRDniWxUN4y17bJirrvSfln32FZZZacczrLT7VS27eo2Pul1iQxu65IbNhfxrb9uW3R9i3n9HMFt5rv/eZwz3U5tkci6NcdlodmmXscOOc99Xuh1yEe2c2b36XiG9dpjP6KOzS2lzO+8Brfp2OtZj2GO19OGLXh8ZvuN8rba3wPzPNekDhrP7ZKot4q77amB/TLXtGyVlcdanP3X29qaSL22Zt/E2Z+oY3LeE+5rmuG8meOZEHhdg697lmsx6/mI2mb6PAfXmet1cs+H9xxooddICa7L8LwGZl2Tgq+Je9yB90Ho/RT1Pg9/BmU8Z0r09gEAQKWqgJK/hNTd/rhMO/qkbL/2DvXokoHxrXLhI1fa3ys6JM7eZX+vH0/KwVONMuPlFTLOLmJMmS+fnLJFtnf1iTTOl5nLdLDUy4rUznbXd6XUvayC31EVDu363uoRtQ8PSG1ErwXzr/hT52apaY4sM3OGj77Rm9Ob/gZ/6ZodMtigbkp9HU2kqy4u3RgRGoowfdF1smJGny09sKUo3k4cTAcezk29u28rt4kpXfB3JKJvOtW65oq6Cbf7qB7PSEsR1dDUzfXVIs/YdeiHU6IRrtKWc//zPmcTZOHVk2STuiHeq7a/8Kb5csGeLnWs6sa3oaHAUiUbDnSISB3DDpl0tbtfSTlwXP03KZGls4ykHH/X+UnfZK+Ye1LdrNt1qWtD5rb7S3f0zX3gdTLXkP21S19nTlCyy+jjDV1nmlOCtPCYuz61XEIFuEwdn8xpUGEoKW+/GREUJrXIlyfvcM5/Q4u8eLUTLHvUotN1G8GdO8zPNTPqA+ejXq9WhbH9oZCSy/KO+SI/cY9RPdS2a4LnTNHnVgc/Hb5Sy/Y2ZOkkxw1+Ojy9FAp2OV8nTZ/v6/W15iynr7Hpi/zXdmhd6pFfGzt7bXmY19x+mZBely4t9W5TH5cNc+427f5XQmc3AABg6Cqj2mdfl+x+uNdObJCTKrvJlGkyxpkh0v2C7L57g53QemWgWy/UKBO8iWy8yIlX3OXUzVbv99KleXZ9Y+6ZL7W61NCzvjMPf08FRBVCr/IETmvLr/7VuXnet1OGu9yve3OX/5v/I7tkk77ZKzh4FMhXmqOC0mvqBj3RKG3mplAFukvVjZ8KMd6b3O7NW5wb90u9IbFFWhPhUrXuzVv9pWx56Ze7AqUJq7bqIJOQC2ZlLgkJ738h1Hr37EiFjBp1nTyTOuYJcl4h65uaEL24v+2b/5j2HkufT/fGOxUSzp2ktn9SDujzpkKdaUe30VNKo66NZ1RgqJnbkro2ls9rkRp1LtL7HEXd8M9NyOC2LZ7XRO2XDWWhkO573ftlp74eMwTWrB29qMN6e6t7LvR59mzfrC8p3XvUdoKvmw2UPannRlHnTpfaBba9qjNQuhsVMFPnNlDqtnNrqBTOob/gcINfoNQsz9fJod8n6eW63+wz1/akc+2MqHXlLSHnTVL/pdoWu6+5//NlVaf+kkMF/HlOsGtb0OIcl/d9Z/c/8toAAACjTkWEv4Fd3mCXp31HQyUacuodSXrSwgeH3UDpapZEs7rx7NuVqi7q6JXTR9V/3sDp+sW35caOjrJU+YziDwjDY3BPvy9kybvH0zeiU+vlAnXKBo85nTakuTfrk9QNo8Pc/Cf7pDvq5r8UjiQlatVZ978ggVKr4+oY7Y8Fs/uqSyUzlSCZjjDc82fDohtM2mon6LlGpnZ0Tkcabih1SshC5yIoU+lchnOWd8ctbljJtHzguojq/MMNQN5wn/Ga0iVnqQ5OVBjTXwBEVZ/1iSgRK6iNYobqlFZ+r5OV430ylLaTyzv0Pqpw+RMb4sxrHnXOvWFePWao8x7RGVUomAIAgFFr1HT4otv0Xfyy52Hb8hWmUc7W7fwa2/3rUo9Ue8MR5ZT+eHvuC7X3yZtTBdO7Lv0odry3zD31uTe1trQhn8BkqpEG9i1irDBTVc23nNPGasSpoOMb58zum79kp1/uMlVQnQDoLBOosmoCl3P+9M2+bNshez1h2r0Rnz5ZXwO6ip53e+rhbaOWJydUOtU5fevytQUrnAkrKoCtKyKspNiS7nTJnBNo977mLwE2fNVpX5J1x1tkRfD8RrxOvva0ijm3+fa+26BLttX/GZYv5etUEF0V17M9p9pmoNRTBV+3CnGI95rL8v6dWlvsZxEAAKgUoyL8mc5cGnWnLG6bP/V4okfdOBeqTz48pf9Lt/fzPYKdzJSVbUekSzA8N7WmvVlRPO3cPI/oqmxDYasmuqUqWduwWTv9N+7mEaji6XZ04WuHZdriVQAVUtxxzrz7Fq6e53kNTNu7qDaLTonK9Mkib7/Zr+69VeBRAd0ECXsj7pT+Ou3L/NvUj+BNfnZOKZSuchi1rmKvD1utMFepYx5W6ZJDt+qnKbHKr/QrWIXRBD8daIMhMdBmzpxbb/jJRq9Lv446bEV8WVHK16kggc+M4HsppzzDL0M1AAAw+o2C8HelTNClcn1bonvjLEiW6p2Z6N4+Ozul87vD3N2LrZoVWcpRZr4qZ0f65W11zzddV7/zsdXEPB1xODfSxbS1C3KroBVXkjSUKnPDRgdGGwBT1edS1Vh1CZcO0U5VWvdcu1VtI6sNhjhjSNZMTlcX1Uw7QPuzUXSV2CwyVSUthmmX51T9dNoQFtbRi3vOnGsgV1tB99w6gTsv+nXU7SMjOr7J73XKT+S6bNXagu3cb4JxqK2sue7cqsLOtRfVvrgi308AAKAooyD82dK6xtnpnj31sA9FVfsUef+VHhkM9iaaRdl6+zQ35f6Q5fT2V+aqVuoG88umcwi34xPbgUrDPF+V0bYF8512RZ6b6+7NO5zSl+v9VSDbFswrsLMIW4roDZKmCl8e1T5D+z9C5swL9fDoBpJ09TsnsE1fpI7LhhzTvkqda109MVXSYgNR8Lz6uTfv6Y45dOnpkklJfwm5rVoZ7FmyeG6HQBk6eimYcxy6V84lDbnDm2t5h7420gHUCU/ewONUgw5W+3Q7gQmdD/X6ZawivXOr7QE28Brn9TrlyQa2VEmmrhlwfYs6PfaaKEi/rDOdzsz3HaNzzvplk+3Qx3n/1ssSb6itlPcTAAAoiQoY569VPvCNwWereU7xjvWnh2dol1rzs6LHAVTLf9LzXN9z7JiAzth+dkw/ybI+yz8WoFXOcf4CY43p3vmekfm2u3dbrVCHoEzts3T1r4KqfNmqpnbKFTXeWHDfnOptUVUd3U4x7KSSbZywzILr0dvbL3PU/qbHkctz//M5Z+b43HHi7Hp1Nb/OflsFVQ9fUVjVPbfqalr4nOmArwNJep/d49ZVM/3bc5f1sfvo8i1jfifmWPRYiN5zEt43xXv92HPmHWdQM+v3juuWYTkv33PsdeQcrz1WCVy37usVeT2Hry8jYtngMept7mwO7L8VOre+82q3GRhbMPWcbK+By7NM6BxqUefRd90610P3LHVMelgT+9zIdWUQes0jz2/4PRV8P0VeO1Zx73UAAFAuIxv+MMKcG73goNyjx2jf/9HPBAFPGCkJG3qE1xUAAKCkRk1vnwAqTek6evFy25i51REBAABQGoQ/AEXSw1m8VNrSuTnzTJXC4gY3BwAAQDaEPwAjTlcfdcfEC7XZBAAAQEnQ5g8AAAAAYoCSPwAAAACIAcIfAAAAAMQA4Q8AAAAAYoDwBwAAAAAxQPgDAAAAgBgg/AEAAABADBD+KtC4Rx6Xi19+XGbe02znjEY3yVNL18tG/fj0TXYeAAAAgJFC+CubK6Vu1Ae6fC2Qby/skJkHO2XR2sWy6DfP2fkAAAAARgrhrwK9f/cdsv3aO2T3w712zigzfoHMGj8ov3mL0AcAAABUCsIfSm/8ZBlnfwQAAABQGc5qaGj4yP6cU1NTkxw6dEhOnz5t5wxR240y8/bz5cQT98vpqx6XGY12/qkeeetLL8gZOznmngfkwtZjsufaLhn7/G1SN97+IrCc5iybsFNKX5dsv3uDnbC/b35HPe+wnPNyu9Ta+YM9T0aUtOmqmull1MrUPqyU9+2U+/uP6ecebpeL290DEBnoukMOro7YnwDvdnVbv9Q5UNx1RAmuN3L/zfltlRo7Gd7/tPl//4L83adqZN9POuSrq+zMYn3iCdl46TT5zaZr5Oun7DwAAAAAI6oCSv4SUne7Cj2iQtq1urpjlwyMb5ULH7nS/t7VKDNevk0m9j6ZYblmqX3+cRsSnWqTZplGFcqev1HG2KUM/TwV2kSFK7NcV5/UtKpQucz+XtPByQY7Z113yJ4+vQ8rQqVa+rkXq9W5232rJym17Q9IbZvImYfvt89X+6KW1SHNXZ9+eAObW91z+xM9MmjnRdEh0XecanlR++BrT2iDn3i398RRmRY6r9p8aWt2ImLTRd6TAAAAAKBaVEa1T1/p3AZ5T4UnaZwdClm6JCwdljbIyT7135RpTrBb1i5145Ny8AlvydYGOaiCnQ575wQyja9UbXWXHDwlUjs7HYzGXdUqNad65He+cKYDXKNMC3baoksgPSVqZ159R4W3hJzdZGeUkgp10xr1/nuOs/sF+Z06ZzWt7elz1jRFaiQpJ171lAaq5XZ7SkHTtkh3rxM3972RoagRAAAAwKhWEeFvYJc/kJw5fEz9O1nGtjnTjqR8uM/+aJmSMlvtc9xsXV/ymJzuNr9KW73LlLh9bJo3sPXJSV/G6ZXTR9V/bpCUK2WCWt1g7699VUr18z5UIbFmiqdupnb0sH85HbKuzVxlcyjGXH6+CnXB/Y84Z/uOmgBad7tTApnLlu/cKB0dJajyqdxy3gwViN+Un1HlEwAAAKgY1dXhy6mjgbCWFgps2bRNk4+p/0x1zpedMfecx23p9oYjZMwU3c5PVz/17pd6eNobGiaA6pJKp1qts1y4ymop3fJpZ1y/Sw4slkWbviE/t/MBAAAAjLzY9PY5eFTXEc1T92H5QP0XbJ+XekRWnSyPM0eT6l/dcUvEfl17vwz4Sj43yEH3d7r6qwmNwxcAn/6NCn1rF8vr56kQuPBb8jk7HwAAAMDIq8jwZ6pwnnpHksEqnFm8v0u37TtfEsEqjstmS22w7VtIsJpnhuqdQ1KadUZXic3D6pU2AEY/V/f22dnZKd9dbmcMwdMH9qjXYpZ8foRLSQEAAACkVV74W7bCDHcw0O0fwiEn02lLQuqWeXv2vFLqdHXIvi2BEjG/cY/o4Rz65HCqc5detbwKSo3t/h40h8S2K2ycn1cbvIzc47w9ewmeHgrC13upkrFdJL19AgAAAFWvAsb5845Dp+keO/3VF50x7SQ0P0wP9+Bvlxcc/y5y3L2I8QKNnPtnxwEMjCWYWbb9C44p6BUeny84JqAR2I/QMpmOU2GcPwAAAKC6VUT4+yDLYOal5oQ/PUZe9GDnKAHCHwAAAFBxYtPhC8ro1DGCNQAAAFBhCH8ovVO/k8NSI5++8CY7AwAAAMBII/xhGDwnt67tlN11HWbcv42fJgQCAAAAI21k2/wBAAAAAMqCkj8AAAAAiAHCHwAAAADEwIiFP12FdOzYsXYKAAAAADCcKPkDAAAAgBgg/AEAAABADBD+AAAAACAGRmyoh3INGzHukcdlxpQeeetLL8gZO6/SmX1uFBnseVJ2P9xr5w6vkdhmKbUtaJcVcxMyuK1LbtictHMrzNTZ8uL1LXJk40ty1047Lx/FPi+D5R3XyZIGO6HsLdF6Rz17nmvspEhSetZ0yYNH7ORoNmeerF1UbyeU/VtlaWe/nShS6nz1y7rHtsoqO7swCbnvpnZpTdjJMpxz57Pi5BD2uXAjsc1I5jqYMIRzXC+P3jlPpg/pNQcAjCRK/qpZ240y8+XHpW6ZnQaUVZ0vydLH1GPNDhm082LPDTI6FOlzYx5VEvy0ne5xdUlPju9G9JcDa2+aLW12engl5cHn7PneOMQwCgAAciL8VaD3775Dtl97R1lL4EZim6XUPXDS/H9kIPrO1tzQ3jlPlttpwKttVqPU6FKnrQSQvB3ZJTeYQEkJUHyclOP6IzZ5XPY6MwAAowzhDwCMk3KgWkr6AAAAIlRdm78x9zwgF6YbkDhOBdv8NUvt87dJ3Xg7KUk5+MT9MtBtJ1262uTtrZ42QH2y59qV8r6dSrtS6l5ul1o7FVpu2Qq5uH2y2cbpq5y2dQ7/cm67O9dA1x1ycLWdcJl9Ol9OBNflOcbgeoK8681rm0bwGMPnzKxLumT7K9N85y3TOpd9t1P+smlQ/u//d6N8+xd25jBx2rnl0U4l1O4r+jnBdnPRbajc9jF+Bbex87T529ns2W5yh6x8bpf4LttC2q151hu9P8H2WBJqU2nOg6hj35rwbTf6GPNp35V7mXT7qR1ynnfZqPORp3zaZLntSlNCr7nzek/V52igxdfGrtDX3D2vK4+1ONvU2/KcY3d90fvt2Y9Q+1d7fo8H9j103QR4z21w2cjz7uyDqP1cV+s9b1negznbowXfT8W1O0ufs/0yx7O+qPbC+b3Ptez7FvU6pdYdPH852meadc3oU89JypIc+x/9uobfU8HjrOi20wCAIamq8OcEmYhA5evwxYaYPhVS7t5g5jiBUfxhxgY/8XaAoudddVh22+cZJtip9ORZn9nGI2p97rS7jJZazgZQieiMxm77g4zhzwar1LrCx2RkW09QtmXt/ns7g3FDdnSQTL8GkefWWCbf7fxLaVI/Df72f8qN39nizB4mzs1N9ptF9+bee6PuPM9/s6SXWzLQlb6Zd2+wvDdpdp54b6LsvOI6fFEnNpmQmtRNu73Z9N0Yqnk3JWSd50Yyav9TcuzP8o52OW+r53n2ptR7Y5i+aUyfW+c8qreOd5vuOfLd6Kog0lEv3Z3udPiYotblvk5ael+izkcOwZvsoNS63EDqvX7s9nzHY+eZn3OcjxzMeZ2UlMHjO+SG3gYTigbVYb79E/U+uTod3px1lyD8eTjbjgp0YZmX9ZyL1Dmy25YM684W/iLeT861l/09HcWcsxnq2kkk0te+vRa87329XM73ueZeR8H3YofIXXY6+Dq575vglwLha8Wex9B7Ql//nvd1xP5nnuc/x1HnMfTeBwBUjeqp9qnCyzR1fzzQFVUylzbmnvlSq8OJJySdefh7cvBUQuquutLOUZqmqICVlBOvetrAdb/gD346wLUFg5+2IR38PHR4Si/XK8ledRMzfoqMsXMK4tvmBnlP9+LQOFvG2Tmlkz5Gb3tA55yJ+t2Ngf3XJYLp1+DMq+/IoLrpO1unPJ/VsnOf/n9Q/vVXwxv88lMvS9QNlQ4T3puxVZ1bZa/a/9Z56ZDQvdm/jG77tGm/+r+hIdWmcPk8J+g8E7r5LpY3+GnqZm2bWndDi9w31c5S8+4K3FSv2qo7dUnIBbM8JVZ5WtUZuPnbucN0FlIzoz7QGYi+CU3fOHa/2We2OelcO0Nxz4f/pj8pD6aCn76pbVFhQR2X58a6e/MWtU3/+Xfpm9p0uOmXnfo1mJTIv6OSVCcoL8lKfS5NYLOdj+iHux9zWlTw8x+jOde6g5JEiyyZY2e59HF6bqSjzkde1Ev2dqoNoprYsyX9ehRynCPJ95qr1/s1fc4apS11zeYn6v3kvDfrZeGCwq9t8QY/zV7b0y9Nd3STz/tcvy73XRoMfpq6PnzTaSZURgS/9GeQ53V2rzPf+9yxd6Pn/akuft0Gb2qtey7S++XfRlBCzpuk/tu/33NtR7z3AQBVo2rC35jLz1dhrU9OZi3hapZEs/rj2LcrEBB75fRR9d+Uaekgs++ouWGru/0BFXDsvKC2y2TieBU4d4WDXpQPDvs7Uznz8P2yPbIaaW7BbZ45fEz9O1nGlvqO0B7j4NE+O8OVIbyeekeSoa/0o63+aod0dAx/lc+8zGkwpRThDmPyCxV7j3mfV69XJ4N7+sOlG0Owt9d/M+l0cpMjVBxJSunu4ZJy4Lj90SvZJ91ZN5LP+VDnd4Z6bwZuQlPbDJ3/pBx/1/5omV5Mo0qUhmh5sw6eEe0BQzfc1vGkfx9sxyjZb8IjBM5rps6MKlnoNX/3eBFBONP143Q+UjN5gp0uhHpf+14Pe50lJqWqUUbxv8+VqfVygXr5g+/NTM6zpXbh4KeYz6CkvP1mYBuR5yy4/wF575c97oZ5srYj/AULAKD6xKzDl0Y5W7fza2yXi19+3PcItZHTpXzXdsmACYDuciv8JWu2dPBDU4JV3YLBNW0YAueICQeKFN9Noa6KpXsPTT/SbZrKyNwU+ulSBe9+6R5Os93MZqWrufnW5VRVK9jUhOhCi+zhZYLOd85NaCm2WWpZejcsLnwgb/b6qZkbvLZ1VVxnkVIIBbt83ufnTjJ/AzJ+bvjUS6t5fvTybbX6OkpI6/X+ba7VVU2dRYaF/tLElHx73nsvFlOaCgAYFWIW/vrkw1P6vy4zrEHoERoIfoMcdH/XpUu+GmWGNwDa0sFwlcY4OSanS13UUolSN/+2DY6p2peuIuhUGyyzwI2n2xZIlyqkqi4+pqvGFcHbvslznOt0KWihbOljqITMx3YhH9he6jEMJXqlMnjMGWYEw8ReP7pKduS1kaF6ZaGmT1bXZ6Hv84JKMnW1Yj3Oog547aFqnE5Jvq5e7Dk2z6PgkuMC6CquznaccSB10CYAAkB1qprwF1nt0bYDTIuo3pmv1SttAPRso/uwfKD+q53taSs4QsbNVgcarHJp9+9j05qd6WJ0/1pO6LZ9oWPMVIU2f7q3z87OF+Trn7UzRpKpwhfVNi5Q5cxUzRLZ+1q2MBJdHc20W7I/l4K/OqKtNqluVteV4CaxtOPe2fMRaivolal658hbpavORbVTy1RNb6TZa7RYpgQsR/XHYjnXVY4qiyFDqd6ZL+d9rjeU//tcscF0unkv5kMPam/bEV8fGHe0qCqxGUR+4WLbAWal988GQEq0AaAqVU/J3+pdThXNVKctV0qd7q3zlP/G7P1XemRwfKtc+Ej2wKZ7qaxbZicsE7B8JV1uRyvtMvMeb8DSvX2WMRAuW2GqrQ50B0sunZLOmtb2IXQE06vWq0KvOkbv+RhzzxelbnxSDr6SX3vHsGUyx5SY1sifXjHfzBlZTgcqNXPn+76RX96hq032yya3owlb1dJ7s6d7y/NXB1M3kHvU8p5OGkwnD7r3Rmdy6ObMs51GuB2LuG2WPCHFVNssrtqn254wHYZ1T43FVsF0O/pokRW+dkVqnR3pDjZM5zShZSqA6QxE3axfnd5XUzJkenjcMaIdYzivkwoubqczbs+TQ+Cus6iOVLJR1+OX1ftkcNuOQLvOXOz10zBv2Eqj3Pd5qrOhvN7nmvO5Ed43dX1kvI775a416lpXyyy5yXNN2Q5lpi8KlwoWzmmrXDO3Jd0JVYfuaTX4GaT207sPmm0vSIk2AFSn6hrnzw5X4JSuOOPQJS9/QC5sficwnIIdGsFOuYLj0QXHwAuPF2h5h3Iwosb5a8wyhp4WvU8Oz/p8x+jKME6hEV5vej/y3KaW6xiV8LAait3fqCEkyj/On53w0VWx0j0zprtRt3y9FVqBG2xdHe0Zma+el2EcL830BiimKpke+6ywKlw6eAXbN+nqYcEe+YLL6WNzxjJLd/tvq7M5CwRkPxe6OqkZZ9DTtb85xmBX/7bKaGgICbcqqZ2MPobo/fN2kOHsV2FDJ+TirDM4ZIJX+DXwDnnhsPse6vmxcL7z6uuy3+6HZ7gE/+ukX0Nn/MML9gSHRTA/hkR1PpLtfRD6nUdo6A1ndkpoW6FrwiP43otcNuoayiFqPUN4nxuh0B31Xgo8L/WcHJ9BWuj8B/fBOd/+4T3816x5bd6sV8feKG97z1nE+Yi6JgAA1aHqBnmvelnCFABUhqgwAgAARlrMOnwBAAAAgHgi/AEAAABADBD+AAAAACAGaPMHAAAAADFAyR8AAAAAxADhDwAAAABigPAHAAAAADFA+AMAAACAGCD8AQAAAEAM0NvnKLa84zpZ0iCyd+NLctdOO3MkzZknaxfV2wll/1ZZ2tlvJ8Iqbv8BAACAKlZ1JX9j7nlALn55hYyz0yijnSrsPfaSenRJT9LOAwAAAFARqPY5iu09phNWUo6/60ynJeS+m66TtXcGH/NkuV2iEmTefwAAAAClRvirZrrapSmJc0vj6mWJCoGPzrG/BwAAABAbVdLm70qpe7ldau1UWJ/suXalvL9shVzc3iiDPU/K7od77e8c4x55XGY02uXcaemS7a9Mk5m3t0qNs5gMdN0hB1fbCUtXNb2wNWGnJHL9jmXy3c6/lKbk/5X/+d++LVvs3NLTJX/t0no82OauXh69c55MT+6Qlc/tkm47t21Bu6yYm97/6LZ69rl2SpfY9azpkgeP2EmfTNsHAAAAMFKqpORvgxy89g7Zrh5vmcZmOsQ5087DCXSyuksOnhKpab5MxujplCtlQqP6r2+Xs5yrsV0uvv18OfFEet217Q9IbZv9vaJD4oWtx9Lbe6JHpPU2mXlPs13CY/kcadL/J/5U2j5r5pTZSTnua4vnVA9dMfekrEuVEG6VvQ3zZO1NsyV1mLojFxX8pm7rSpUkrtymDvN6ShEBAACA0SJm1T57Jdmr0s/48yXhCXCybLbUSlIOvrLBznCpeU/cLwO2iOzMw1tkQAWmiZfbYNd2o0xToXGgy4ZLrfsF+Z0KiTWt7eFOZ1btlH36/+S/SvcvzJwymyCTdAGfSoDmkOa0SGtCl+BtlVV62uiXuzb2q1zYIktMsFMB8dJ6Uxp4w+Z0cuzevMV06jL9Uk9IBAAAAFCxYtfm78yr78igN8Ap42arBHfqHUm69SBdoXl98qEuOZyiiwlFxlx+vtSoeScD1UDPHD6m/p0sY0OpaLV8taNDOoa1ymcmupRPV9vsl3W2KubyZj0sw0k5EKy6uXO/7FX/Ta1VSXFqvVyg/hs8dtL5XYoKkHtU+ktM8lQFBQAAAFCp4tfhS/cLcrjPW/XTqfI5oOafMdP5GzNFF6M1yoyXH5eLvY92JxyOOF19M9XTp22D95i3lE9JHjdBL0rN5An2J5EjA776oh4T5Lyp9kcAAAAAFSuWvX2+v0ulP7fqp6nyGS69y8eZozoQBdsXuo90ddER4+vtUz0K7HwlXNoXJaLkEAAAAEDFqbrwl7nKpYfp+MWp+mmqfAY7esmk7TKZOF5kYJfTNjCvbfno3j47pfOfvi7z7ZyRtKpXt+1rlLZgyd2cBpkuSXn7TRVuj/TL27ptn6ki6pWQthkJFTD3+0sSAQAAAFSk6iv523fUtOmru+pKOyOK0/FLTettMqMxqqOXKM1Su6xVak71yHtuKaENkXW3rwh37hJlxHv7DNi5Q3qSCWm92ttpS708ukh38LLDDuOQlAdfUyGxYZ6vZ8+2BfOdzmK2FlaaCAAAAGBkVMk4fwF2PL+09Ph9KW03OuP3qTD31pfC7f2ccf/shKuvS7bfHQ6K+S870uP8RbHL6uaL1uC2Ll/PnoYe7kGHwpR+WRdoP7i84zpZ0mAnAvZufEnu2mknAAAAAJRddYa/fNjwJxkGZDeBbkp0MAQAAACA0SaWHb5o7jANhyOCHwAAAABUm3iGv2Ur5MLWhH9wdgAAAACoYrEKf2PueSA1Dt9A1x1ysIjhHQAAAABgNIpvmz8AAAAAiJHYtvkDAAAAgDgh/AEAAABADBD+AAAAACAGCH8AAAAAEAOEPwAAAACIAcIfAAAAAMQA4a9aLVvhjGnoPh650v6iDKbOlhfvvE7W3jRb2uysFPu7R+fY6UqUbf8BAACAUYrwVwLjHlHh6vkbZYydrgirV8r2a+9Qjyfl4Ck7b9Spl0dVCHtxQcJOR2tb0C5r75wny+00AAAAgDDCH0rvSFKO6P+PJ6XbzBhlRvv+AwAAABEIfwAAAAAQA2c1NDR8ZH/OqampSQ4dOiSnT5+2c4pXynU5rpS6l9tFuu6Q96Y9IBe2ulUF+2TPtSvlfTtl2sK1T5aDT9wvp696XGY02vnB5bS2G2Xm7a1SYyd9y4R+F3CqR9760gtyxk66+1drp0SSZh8GQkVLzVL7/G1SN95OZlhOVzVN77vIYM+TsvvhXjvlZdd3tEu2373Bzgub//cvyN99qkb2/aRDvrrKzhwOuj3d9S1yZONLsrP5OlnSYOcnd8jK53aZkjZdjXPF3MxVPQe3dckNmyfIo3fOk+l2Xli/rHtsq5hDMdtslLfXdMmBedHbBAAAAKpd1YU/E65SwcsGH/EEMRP+bGrqcwNReLkx9zgBckCFyYOrzdI2cIXDmJk/JRj2POw2vQEtav2pQOkLjmrfHrlMkne70/Y4vcu4z0sdj1c+4W++fP2f/k7+TOetff8sHV91d2gY2PBnQvP+rbK0s1/9oNv2zZOpJtQl9W+sTPP9nLB4Mh32grJsc3pqGgAAAKhu1Vft0xecelVI6xMZf74kAt026iCWDkO9kuxV4WL8FNtpy5VyjgpmeplUMFPev7tLBiQhdVcV0nOmCl9tKmyqYOYtmTvz8PdMRyy1Kri5HcWMuyoY/DR1DKngp0PjfBVw+2SPd5nuF+R3PWr/G9Xviuqecot09w6an/a9MYzBz8sXuvpl536Rmhn1w9u7ZmCb67apc9bQQEcxAAAAiIWqC3+Dvb/2BCdl31EZVIHt7CY7bX1w2F9F8szD98t2t0rnstmmBDG4jMgGOamypEyZln/Pnm2XycTxar+O6id6hQPnBJURQ/vv0yyJ5oQKuEdDy5x59Z3I48zXlu/cKB0dw1zl02Nvb/lL24Lb7B44qf6dIOdNdaYBAACAakaHLxkl5cN99segVGDLXzhIuibLWF3c1TZNPqb+y7ycx9HDGQPix6Y1258AAAAAII3wV4yIkrfiHZPTuv1g92H5QP031PCWV3gEAAAAEDtVH/7GXH6+1EifnCykKdvqXaZt38TLg0EsumrmmaPe6psB3b+WE7pt3+xgO0FbhbNvl+1htE8+VMvVNF+WpVTRVhVtnC3j7BxXUcfpoXv77OzslO9WVAO4k3qoPamZPMFORyu2+uby5nqRZJ90m0H9AAAAgOpW3eGv7Ub5pOm4pcs/hENOG+S9nqTUtH7R14HKuEd0b6J9cjgwpMKZw8fUv40y7Z6oUjvb6Uxju9Qts7OUMfd8UerGJ+XgK+lOZ5zOaVrlwke8QVH39pnuFObMw1tUMG2UGd5lij5O13xpa3YGrWi6yLOTIy4pB46r/xpa5L5swe7d46a9Y+s8FebyNWeeGfJh72sM9QAAAIB4qM6hHjx8QylodtiF0PwI7nAMKaGeONNyLusdYsKIGFdQc4dtsJM6AIXH+Qsfa/B4guMAekUd+0iM83fXTjtPWd5xnSyZFDXuXkLuu6ldvKfWGecvaacsFebWLvKGv+A4f3aoh5Sk9Kzpkgcp9QMAAEBMVF34+1jGwc4RWxkCJwAAABAndPgCAAAAADFA+AMAAACAGCD8AQAAAEAMVFGbPwAAAABAJpT8AQAAAEAMEP4AAAAAIAYIfwAAAAAQA4Q/AAAAAIgBwh8AAAAAxADhDwAAAABigKEeMlm2Qi5ub7QTSl+XbL97g50YZlNny4vXt0hNcoesfG6XdNvZhv3dkY0vyV077by4yPPYl3dcJ0smRZy7USsh993ULq0JOylJ6VnTJQ8esZNVp14evXOeTJd+WffYVlll5wIAAGBoKPnLZPVK2X7tHerxpBw8ZeeNNjos3XmdPDrHTmfQtqBd1qqb7eV2ulK1zWo0gXhd1tBbL3MaRPa+Vi3BT0vKg8+9JEsfU4+N/XYeAAAAUBjCXyU6khRTqHM8WUUBZqjqZcnchAzu6c96TtoWtJgSo51xKxWtKif1pa8y73HZ68wAAABACRD+MDrMaVChLilvv6lTQSYJaZuRENm/n6qCAAAAQEAVtfm7UupebpeP9Twpux/utfNExtzzgFzYekz2XLtS3tczTFu+yXLwifvl9FWPy4xUs76+9DI+zVL7/G1SdzR7m7/5f/+C/N2namTfTzrkq8OZPDzt3nY2XydLGux8T/tA0+bNnR9hr2kz57aryiTd3kpXC10xo0+tPylLPM8Z3NYlN2wOhDG3vaKd9K4nyNnPfNqv2TZvx7fK0s4s1R7nzJO1iyZkXJ85jrmphnP+/U/td2B/M8wPneP9nn0zz2mUt9fskEnX6/PlHOOBefY5wddK1HO3JnznzXmN7IRXjmMsffvA4HUS8XrmeM3dY1x5rMU5//pceY4347ECAACgpGJa8peQuttV8BMV6FLt+hplxvM3yhi7RGHmS1uzc+vbdNEy8/9wm77IhgbdDkzdaO9NtMiXFzh3/Ks6bfswFT4G1bS+uXaWcx7OjXa/3GWnV27TAUjfsHuXC9zgq/WvUCFA3HVt7Jeaue3+9oQ2BIgKVan1rDkuCzvq7QJeTts8/VpcMCsdyCJNrZcL1CJ7e7O3d1verLaT7JPuiKCjA8iKuSfTx6jOjaj9f9GeMzmyS24w7enqZaE7Twepq8PBT4fIOb12PXZdgw0qlAWO8wL13OMqePUk1TFe3e68XnobiUZpm2oX0vRzTVh01qdfj+mL2uU+7zJ50UHNhmS7byu3ibReX8y6FB00dfDTYc091sf2yxzPcZr2ouo1119GuMus218vS9R++LY5SV2fk3c4x9/QIi9erY9Xnxt1LevXDQAAAMMuttU+B3ue9JTk9UqyV92Fjp9SZPjbIt29OmaJ7Htjtfl/2HlLmlQ42blfpGZGvbTZOcPBV0Kzc0f4xv3cSSooBapm6lAVWVrn7LMumcpelVMFjKF29KJC6UL9u42eQKv26xkVsmrmtqQ7utm51QSvmrnzTXBpWzBfWhO65MwfhLs3d/lLqtS6NuljaWjwdJqTkJrjO1IlbjUJFTxT5yEhk861Pxr+0rnuzTtkbz6hOMBt75jejl7XFhM+W+cVGrBU8L1UPcd3nWn9cldq2rbDVGHfez5WdW41++/bpjqUt7emj1/2bEmXRk5KDOt1CwAAAEdsw98Hh9NVQ7UzD98v2yOrfeZny3dulI6OYa7y6ZGrFKz0gp2oJOXAcfWf98b93eMyqG/68yxpckooc1VJHHpHLyY8Rvyue+Ck+neCnOfZ11RYul6XFOpg4wkpWew9Fg6wvtcoW+clodJKp8OTmskT7HQ+MrV3jHid8pFPaatph6my70Dw2G2w924zcIzh5wAAAGC40eELSkeX8ukqqCYAXidr79SPIQ4hYQJGv2wKti30cYLP4LYdgeDjmD5Zl6DpqojuPtnHoqjSsKQ8+BOnuqxum/dM5HZ19Ur/urxtCUfGBJ21nCqkgX3L1v4zI1uKe/xdO51RlmUSkzxtBQEAADDSCH8osXRbQmdMOh26ig2AbtXDHL13zmkx1TMzVR91SuWCbRrdR7DkUQU73RHJ/n7TjnJFqL2i7QBFd9riWY/TbnIk2eERfO3zPI9CB7y3pbj+6qkFYqgGAACAilLl4a9ZEs3lKZHRvX12dnbKdytppHQ7XuDU2uznIKr6Y25OG7us1TF3qiBiAmD0unUnLGuDHYN4laCjF62Q41veoXu21O3mtso6Hega5vk7tbFVHYd1EPk8j9uv8Oqdzvm/Lt3pjZe9drJ2xrJzf4a2iXlcGwAAACi7Kgp/ffLhKZGa5stspy12iIbxZmKYlb+3z/zYtmPeTk2iuG31CugUxA1J3uqYuudHX1BSTDBT+3EgFMxy9/a5fF5L7o5e3M5csoUx0zmNroqavQRS77+uIul2DOO0/9M9q3qeZ86VPxQ5PYlGH0PhbA+jOTu4CVu1dYcMRpZWRnHPf6aOglQAtuHXHw7r5dHU+p1l3A5yXFHXBgAAAEZeFY3zpzlj/dXaKd2j5+7D7XJxuwTG+WuUga475GCWjjnHPeIdA9Av6rkjMc6ft4dFM5bapB2p8ePSbDVFO6VFjqtmxo/zhgZdTdIJQcHx8Qxd7TGiKqHZDxsqjAzLac6ymcahc/Z7atRYgh7OvukhHPw9ckYJ7Zvm9mbpHn9wf1Nj2KXPR/Bc6d4un5H56f3wvUZ23D2x67XPdV+DrPvkSu1DhND5Db/eWtRr7m47crxGV5brwhW6PgL7ZLbjXpu+4w+cG7s8AAAAhkeVhT8Mh0ICVsmYkCA5tumEhwv2ZA+IlcwXjOw8AAAAYDjQ4QsqUGk6egEAAACQRvhDBUrKg8+9FBhcPILuUCbnOIEAAAAANMIfAAAAAMQAbf4AAAAAIAYIf6PIA3/9ebmofiijbgOV6YYnO2XwwzN2CgAAAMOB8AcAAAAAMUCbPwAAAACIAcIfAAAAAMQA4Q8AAAAAYoDwBwAAAAAxQIcvQ9Istc/fJnXj7aQk5eAT98tAt50sg48W75APL02on5LyX55pkT/+vTMfAAAAALwo+RuSXhn40h2y/Vr16Oqz88qodZMKfqJCX6OM/SbBDwAAAEBmhL9R7D9nzRTZs57QBwAAACAnwt+odbN8NMX+CAAAAAA5VFH4u1LqXn5c6paJjLnnAblY/ew8Vsg4u0Sas2x6mQekts3+yqvtRpnpWy5qXYVYJt/t7JTOf/q6zLdzAAAAAKAcqq7kr7b9cbmw+R15S7fDu/ZJOXiqUWY8f6OMsb+XZStUiGuXj/U86bTVU4+3ekTqbneCo8sEyNtb5YMu26ZPPfb0qXVlCor5WD5HmvT/iT+Vts+aOQAAAABQFtVX7fNUj7z1pRfkjJnolYHuPpHx50vCBLZmFdwaRfq6ZPfDvWYJ7czD31MhUQXHNjckXinntCZkUAXEg6vNDOP9u7tkQBJSd9WVdk6BVu2Uffr/5L9K9y/MHAAAAAAoi6oLf4O9v7bBz9p3VAZVYDtbF7m1XSYTx6tljgZ75uyVZG9ShcQpTvhbNltq1X8fHE4HRMcGOamfOmVauiSxIKvlqx0d0vHfvi1b7JyifWKB/OdEkT958x47AwAAAAAyi2WHL+FQ55osY1NVOpPyoSmmi+CGxJHwie/Lv32zT05fq4LfNxvlT3rsfAAAAADIIpbhL7NjcjqfAdpPHfWXLpbT7/9W/osKfWNfFvl3FQL/vdXOBwAAAIAsqj78jbn8fKmRPjmp2+51/1pO6LZ9s4Nt9pol0ZwQ6dsl7+vJ1btM276Jlzeb36ZdKRMaI6qW5q2EvX3+frP80QkVAGc9bGcAAAAAQGbVHf7abpRPmo5bupxQ53YA09ge6Nnzi1I3PikHX9lg52yQ93qSUtP6RV/PnuMeaZdaFSQPezqLKQi9fQIAAAAYIWc1NDR8ZH/OqampSQ4dOiSnT5+2c4pXynU59Nh9Opz5DXTd4eux09DDPbQ32gmtT/Zcu9IGxDQ93MOFKjym+HoSVfQ4gLe3So2d9Akua+iSv7+UpuT/lf855E5fbpb/+Luvy78d/YGM/R6dvgAAAADIrurCnx6/zzuMQ/Ui/AEAAADIHx2+jFrPyllH7Y8AAAAAkAPhbxQ7ayApMmOx/Mcn7AwAAAAAyIDwN4qdtb5Fzn5N5N++3Cenv7mDEAgAAAAgoypq8wcAAAAAyISSPwAAAACIgaoIf7oUcezYsXYKAAAAABBEyR8AAAAAxADhDwAAAABigPAHAAAAADFA+Bu1mqX2+cfl4pcfl7pldlbV+VA2/XS/9Hkem75sfwUAAACgIIQ/VLzkr8+Txr9oMI+Fz9iZAAAAAApC+Bu1emXgS3fI9mvvkIOr7SwAAAAAyIDwBwAAAAAxcFZDQ8NH9uec9Hh6hw4dktOnT9s5xavUdfm03Sgzb2+VGjsp0id7rl0p79sp15h7HpALWxN2SmSw50nZ/XCvnVKWrZCL2yfLwSful9NXPS4zGu18z/rGPaLnR63/Sql7uV1q+7pk+90b1LRu63eb1I13fiuSNOsd6LaTATn3TTP7l9optVvutrzsftiprNv97Nflhf/xZ1Kz75+l46tDKZbUbf4Oy7m/Pk9avvnHdh4AAACAYlDyl4kNfqLCkq5aaR5PHJVpj1xpF3Do0HZh6zEV2txlekRab5OZ9zTbJVwJqbtdBTxRwcos+6QcPNUoM56/Ucao376/q0/92ygTgp23LJutApcKWq+4YSxd3XN7l35OJk6HMBeqQzj4hF1ePX4nKsC12UUUHQ6dYOou0yUDje1yse84PQHUrmf7tVvk7GXOvgfNv+JPncDcNEeqti8aAAAAYJQh/GXSNEUFmKSceNVTStb9guz2loipgDitUWSgy1Nap5b5XU9SalrbZZyd5dKlbukStV5J9iZFxk9xAtTqXTKg/qudHQiXs9UGTr0jyQwlexkta5e68eHSuTMPr/RMXynntCbUfn3PM2+DHNShsnF+OiS2TZOPqf8GdnlLA9VyX3pBztgpry2/+lcZ1D/s2yk0RwQAAAAqA+Evk31HVYDRpXUP+ErKvMZcfr4KiH1yMpBwzhw+pv6dLGMDz/vgsL+65ZmH75ftqWqeG+Q9FRqlcbYnNF4pE1T2G+z9dWTIyiav0GhLFX0BV7PHfnaTne4+LB+o/2rb8xxW4hfflhs7OoZY5RMAAABAKRH+MtGlfLoKpK2uqcfTu/jlFb7SvDFTdFu6Rplhfud5eNvPFeDMq++o0OWp+mnCWZ8cDrbRy6lZxk5R/x09nDU0jpk2Wf3rPT778LVz1DbIQVNN1QmAznKZQzEAAACAykP4y0qHHtvGzbSv00EvHQDPHE2qf3UnLW47OO8jcycsGXX/Wk7ogGWrfprSu75doQ5mcuuV00fVf1OmRbbJczkllLpqaNT+B4eQ8LQ1fKInZ6koAAAAgMpC+MvX6pU2AKarc2aq3lk8FbC6dXs7XfXTqfLpb2eXPxNMx58viWz7FqzemS9dKmoDYORzdW+fnZ3S+V26ewEAAAAqBeEvA90LZrB9mymJk2Ny2i3RW90lB0/pEjB/ddAhMR2/NMqER2ZL7akeea/IZnNnHt5iq6wGqqresyJdWqdC3GGVNWvbc5TgLVsR6r3Uae+YlA/32Rke9PYJAAAAVB7G+cvCGXvPTmgqjL0V0cNlaDnNO1aeHUdvoCtYlTKau77IMflCYw96hPYvOCZg9DqDYwEagXWFl4ke89BgnD8AAACg4hD+UMEIfwAAAECpUO0TAAAAAGKA8AcAAAAAMUD4Q8VLXHZA+n663zw2fdnOBAAAAFAQ2vwBAAAAQAxQ8gcAAAAAMUD4AwAAAIAYIPxF0NVIx44da6cAAAAAYPQj/AEAAABADBD+AAAAACAGCH8AAAAAEAOEv7JbIN9euF42LlWPhd+Sz9m5AAAAADCcCH9ldsun75ZPy7/Id9YulkWbviE/t/MBAAAAYDgR/srqJrmkTmT3m4Q+AAAAAOVF+Cun8Z+UafZHAAAAACgnwh8AAAAAxADhDwAAAABigPAHAAAAADFA+Cujz9XNknGyR17/vZ0BAAAAAGVC+CuDz13wIzOu31fkSVm09nZ52s4HAAAAgHIh/JXBz9++RoW+xfKPcpsKgU/ILXY+AAAAAJQL4a+Mfn7wTXlfZsgln7AzAAAAAKBMCH8AAAAAEAOEPwAAAACIAcIfAAAAAMQA4a+cTv1ODtsfAQAAAKCcCH9ltUeOnRKZOetb8jk7BwAAAADKgfBXVpvl65sekd/In8vfL10vGxcSAgEAAACUB+Gv7HQAXGzG/Vu06RvyczsXAAAAAIYT4Q8AAAAAYoDwBwAAAAAxQPgbZk1NTTJ27Fg7BQAAAAAjg/AHAAAAADFA+AMAAACAGCD8AQAAAEAMEP5GrWapff5xufjlx6VumZ2Vy7IVavkHpLbNTg+XqbPlxTuvk7U3zZb8NpWQ+25Sy3fU22mRtgXtsvbOebLcTpfDSGwz0px5aj/a5b6pdnoo7Gvx6Bw7XU3MeSrkOgvjOivRdZaFc7zXyYsLEnYOAAAYKYQ/jLyp9XJBIik9W/vtDJRK26xGqUnukHU77QwAAADEFuFv1OqVgS/dIduvvUMOrrazKsWRpBzR/x9PSreZkd3yeS0qoPRJt3kSSqdelsxNyOCe/rxeh1Fn51ZZ+thLsvS5XdV5fJXOLeHPUXrYPXDS/H9kIGn+BwAAI4fwhxFWL3MapHoDykhSJ3a6JOXtN7npRinZatpXi2zaxrUFAMBoclZDQ8NH9uec9Jh1hw4dktOnT9s5xavUdWmVvG9OW7/bpG68nVQ39wefuF8GopJT240y8/ZWqbGTjujl5//9C/J3n6qRfT/pkK+usjPLQLcHWjH3pKx7bKt4N5uev1/m3DlPhRjH4LYuuWGz/4Zzecd1skQFyJT9W2VpZ1QV0np51LMukX7fdqP2JbXu5A5Z6S1h0u2lFqXbKAa3adY1o089JylLcuy/KUG5viX0OvWs6ZIHPaWhweOMXFeKvkFvl9bj0efCOVZPG6zgOTP71Chvq304MM+z3eB5MLKfV/f3svElWVfr3W5wOSV0LsLnIde5LwTXWcT5zUHv68JjzvqdY5GC1wEAAEYGJX+jTrq65/auPjsvgu7cRQW/D7rsslmXny9tzc4tYdNF+fYeUwoJaZuhgsD+/f4A4EpOkIU2NJjqfRv7pWZuu6/zEn3zOafX/l4/1uyQwQZ1w+zpPMYwnVuom2N98+wuq2/4g8t5uDfke/X2PTfkeptrF01QN7zuerbK3qhtJlpkxZ0tctxdLmL/zX6pG/Ij7jHa5YKcfdEhIr3cpsnzM1e3M+0o1b73BtfllNo44cNdl93/UMcpCWm9Xm1X3HOmltPH5D1OU/VvnkxVYcPdr3X7600QCXZoMn2R2u7kHXa5LulJquV821Sh6WqRZ+x6nHXpfQhUK3Sre5p12HlDwXVWkFWdL2X50gEAAFQywl9VapbatkaRvq482wNuke7eQfPTvjfK2IAwV0cviYS5Wb3L7axk5w5zsz/90nRg6N7clf69dmSXbNqv/m9o8IQPFXguVTfMoZKafrkrQ4mRvvF2b8h961cBxbSj27bFU9Kh1qNvpBtaQmFs70ZPicjO/bJX/Te11i35Su+XfxtBCTlvkvovEJJXdWYubcnY0cucFmnV53yNt8TN7r8KEUuCvYL6zpkKn7qan+fcOu01d8gznjCwqlOFFHWeFi7wlCxqulQrta6kdO9Rz0lM8pWQ3RUoVVy1VYUsdfwXzAqsq5S4zgAAQEwQ/qpR22UycbzIwK4NdkZuW75zo3R0lLfKZ+6OXvplp+9mNSkHjqv/fIEhbO+xdBAxMpaCRTtP3ZDrqonhG3IlUzu6d4+bkDLpXDttBPc/IO/9sscdVeoTKXNHL8ub9fNPyoHgOQ8FBkdw35zOOybIeSZ8ZGqveVL39SM1kyfYaUdR7TrdzoOGFdcZAACIB8IfRogTHPa+Fmw/ll3ohlut51HT42D64WvLpp07SWrUjfTxd+10VvXSap4fvXxbrQ40TnVI7zZ1lTp/W6rS0lXtVppSN12t0NlmxnHTTHDol02ZquYlj5ugFyUY2LKamhCdAXUVQ9+5uLNdWjPsWi6mqqNvXd62cwUyVTC961KPPMcEjOt1NpRzBgAAKh/hDyOibUGLCShZSywiTJ+sbphT4cV2rKGrE7rtmNTDhCSvyNKSTHS7Ot2WLKKtmeKUfOlqk562U57HcFar01UPne04bd106AoHQLeKX4Z2lDkMHnO65c+LLZXTnYsEz4N5ZKjqmIkOfm5JWHo9ugppkVJtAz2PUGc10WJ7nQ3hnAEAgMpH+KtG3YflA/Xfx6Y1O9OGbQeYge7ts7OzU74b7KVjWOTo6CUjp7QwNX6gKeHKo/TQhpTppspjPpLy4HM6dOgb80DHJQXd4Odg98tf1dKGt6z0/tkAGCypy1HFb5Wen2iUtkDYyFjNMMBUG01V1Y2u3lkce01EtVMsO64zAABQnQh/VWmDnOxTN+Wt7TLOzhn3yG1Sp242nW5dgsrc26fb6Uimjl4yWN6hqwD2yzq3RMncIPtvtnXPiaHqePo5tsqkv6SsXh7N2IauX+7SPTqqZXw9UtqOPqYvyj6wdX76dVM7qZnbku5ApaNdWkOvk9rPYNU7G/KCJXVuBywZA5TpzESFjau961Pr18MJ7N+RsQMZY848p3OSVAhS4eU19VqEzmsx3HZ2nmBqexItutpnkeJ7nQEAgGrHOH8RKnqcv8ix+6xTPfLWl16QM2bCPx7gYM+TsvvVy9Rzz5cTIzzOn+naftKOiPHiPKLGJNPV7oLP0W2UPOOg6SqIz6gwGxxHzQgsa27WPcs41Q4Dz0s9J2rZwM2/Z/8i16VDgAozeliEdFf5CWc8PrsqMz7bm/WpMfZSYSzifET1EBlefxT/NrXQuHCFjAmXc9no/Qqfo+B+6XPujL/nfa47NEKUyM5TsuE6819neYjcJ1fUuQMAABWD8BehosPfqOfcmOox1YazfVwsmQAh4TBSDBuKfEMgAAAAYFSj2ifKqtiOXpCLbcNVZEcvAAAAqH6EP5SV02NlCUqmEKA7D3mp4B42AQAAEB+EPwAAAACIAcIfgLAju+SG4RxPDgAAAGVH+AMAAACAGCD8AQAAAEAMEP6G2b59+xjmAQAAAMCII/wBAAAAQAwQ/gAAAAAgBgh/AAAAABADhL+yuEmeWrpeNurHp2+y8wAAAACgfAh/ZfGc3Lp2sSxa2ym76zoIgAAAAADKjvBXVs/JD98aFEl8Uj5n5wAAAABAORD+RsL4yXK+/REAAAAAyoHwBwAAAAAxQPgDAAAAgBgg/JXZz5OH7U8AAAAAUD6Ev3I7dUzelxnyFxcssDMAAAAAYPgR/srt1Ddk6drF8tPE3Wbcv7WEQAAAAABlQPgrt/HfkrUq9F1yQI/7t1iWvr3Z/gIAAAAAhg/hr8w+VzdLxskeef33dgYAAAAAlAHhDwAAAABigPAHAAAAADFA+AMAAACAGCD8AQAAAEAMEP7K6ib56wtrRA6+Lk/bOQAAAABQDoS/srhJnlq6XjYu7ZCZp/5FvvOb5+x8AAAAACiPsxoaGj6yP+fU1NQkhw4dktOnT9s5xavUdWmlXh8AAAAAjDRK/gAAAAAgBgh/AAAAABADhD8AAAAAiAHCHwAAAADEAOEPAAAAAGKA8Fd2C+TbC/WwD+qx8FvyOTsXAAAAAIYT4a/Mbvn03fJp+Rf5ztrFsmjTN+Tndj4AAAAADCfCX1ndJJfUiex+k9AHAAAAoLwIf+U0/pMyzf4IAAAAAOVE+AMAAACAGCD8AQAAAEAMEP4AAAAAIAYIf2X0ubpZMk72yOu/tzMAAAAAoEwIf2XwuQt+ZMb1+4o8KYvW3i5P2/kAAAAAUC6EvzL4+dvXqNC3WP5RblMh8Am5xc4HAAAAgHIh/JXRzw++Ke/LDLnkE3YGAAAAAJQJ4Q8AAAAAYoDwBwAAAAAxQPgDAAAAgBgg/JXTqd/JYfsjAAAAAJQT4a+s9sixUyIzZ31LPmfnAAAAAEA5EP7KarN8fdMj8hv5c/n7petl40JCIAAAAIDyIPyVnQ6Ai824f4s2fUN+bucCAAAAwHAi/AEAAABADBD+AAAAACAGCH/DrKmpScaOHWunAAAAAGBkEP4AAAAAIAYIfwAAAAAQA4Q/AAAAAIgBwt+o1Sy1zz8uF7/8uNQts7NyWbZCLf+A1LbZ6eEydba8eOd1svam2ZLfphJy301q+Y56Oy3StqBd1t45T5bb6XIYiW1GmjNP7Ue73DfVTg+FfS0enWOnq4k5T4VcZ2FcZyW6zrJwjvc6eXFBws4BAAAjhfCHkTe1Xi5IJKVna7+dgVJpm9UoNckdsm6nnQEAAIDYIvyNWr0y8KU7ZPu1d8jB1XZWpTiSlCP6/+NJ6TYzsls+r0UFlD7pNk9C6dTLkrkJGdzTn9frMOrs3CpLH3tJlj63qzqPr4K5pXmpR5bS1+6Bk+b/IwNJ8z8AABg5hD+MsHqZ0yDVG1BGkjqx0yUpb7/JTTdKRwe/FTP6ZKUO3uaxVfYmWmTFEKrfAgCA8jiroaHhI/tzTnrMukOHDsnp06ftnOJV6rq0St43p63fbVI33k6qm/uDT9wvA1HJqe1GmXl7q9TYSUf08vP//gX5u0/VyL6fdMhXV9mZZWBuJOeelHXqBtK72fT8/TLnznkqxDgGt3XJDZv9YWZ5x3WyRAXIlP1bZWlnVBXSennUsy6Rft92o/Ylte7kDlnpLWHS7aUWpdsoBreZukF+LilLcuy/aZd3fUvodepZ0yUPekpDg8cZua4U3Y6yXVqPR58L51g9bbCC58zsU6O8rfbhwDzPdoPnwch+Xt3fy8aXZF2td7vB5ZTQuQifh1znvhBcZxHntwjOMUlJ1gUAAIYPJX+jTrq65/auPjsvgu7cRQW/D7rsslmXny9tzc4tYdNF+fYeUwoJaZuhgsD+/f4A4EpOkIU2NJgSho39UjO33dd5ib7pnNPrlkCox5odMtigbpg9nccYpnMLdXOsb55TJRbqhj+4nId7Q75Xb99zQ663uXbRBHWj665nq+yN2qYuDbmzRY67y0Xsv9kvdUN+xD1Gu1yQsy86RKSX2zR5fubOOkw7SrXvvcF1OZ3rOOHDXZfd/1DJTUJar1fbFfec2RIe73GaDmXmyVQVNtz9Wre/3gSRYIcm0xep7U7eYZfrkp6kWs63TRWarhZ5xq7HWZfeh0CnJG51T7MOO28ouM4AAEBMEP6qUrPUtjWK9HXl2R5wi3T3Dpqf9r1RxgaEuTp6SSTMzepdbmclO3eYm/3pl6YDQ/fmrvTvtSO7ZNN+9X9Dgyd8qMBzqbphDpXU9MtdGUqM9I23e0PuW78KKKYd3bYtnhIOtR59I93QEgpjezd6SkJ27pe96r+ptW7JV3q//NsISsh5k9R/gZC8qjNzKUvGjl7mtEirPudrvCVudv9ViFgS7BXUd85U+NymXgDPuXXaa+6QZzylTKs6VUhR52nhAk/JoqZLtVLrSkr3HvWcxCRfCdldgVLFVVtVyFLHf8GswLpKietsyKZP1ts6KQcyXI8AAKAyEP6qUdtlMnG8yMCuDXZGblu+c6N0dJS3ymfujl76ZafvZjUpB46r/3yBIWzvsXQQMTKWgkU7T92Q66qJ4RtyJVM7unePm5Ay6Vw7bQT3PyDv/bLHHVXqEylzRy/Lm/XzI27SQ4HBEdw3p/OOCXKeCR+Z2mue1H39SM3kCXbaUVS7TrfzoGHFdTYkc+aZAJuxBB8AAFQMwh9GiBMc9r4WbD+WXeiGW63nUW+vg+rha8umnTtJatSN9PF37XRW9dJqnh+9fFutDjROdUjvNnWVOn9bqtJa1fmSrDSlbrpaobPNjOOmmeDQL5sytQdMHjdBL0owsGU1NSE6A+oqhr5zcWe7tGbYtVxMVUffurxt5wpkqmB616UeeXZKEtfrrOBzppfXbRJ9pboAAKBSEf4wItoWtJiAkrXEIoKpXpYKL7ZjDX3j6bZjUg8TkrwiS0sy0e3qdFuyiLZmilPypatNetpOeR7DVa1O01UPne04bd106AoHQLeKX3GlMIPHnG7582JL5XTnIsHzYB4FhgEd/NySsPR6dBXSIqXaBnoeoc5qosX2OivknOn2nqYzGnUseZ5XAAAwsgh/1aj7sHyg/vvYtGZn2rDtADPQvX12dnbKd4O9dAyLHB29ZOSUFqbGDzQlXHmUHtqQMt1UecxHUh58TocOfWMe6LikoBv8HOx++ata2vCWld4/GwCDJXU5qvit0vMTjdIWCBsZqxkGmGqjqaq60dU7i2OvCRWwRn5Aeq6znFI9h+oQG+ixFQAAVCzCX1XaICf71E15a7uMs3PGPXKb1KmbTadbl6Ay9/bpdjqSqaOXDJZ36CqA6mbTLVEyN8j+m23dc2KoOp5+jq0y6S8pq5dHM7ah65e7dI+Oahlfj5S2o4/pi8KlNYXr103tpGZuS7oDlY52aQ29Tmo/g1XvbMgLltS5HbBkDFCmMxMVNq72rk+tX5fg7N+RsQMZw7btSocgFV5eU69F6LwWw21n5wmmtifRoqt9Fim+11meCH4AAIxajPMXoaLH+Yscu8861SNvfekFOWMm/OMBDvY8KbtfvUw993w5McLj/Jmu7SftiBgvziN1g+mhq90Fn+O2ObJ0FcRnVJgNjqNmBJY1N+ueZZxqh4HnpZ4TtWzg5t+zf5Hr0iFAhRk9LEJ6DLaEMx6fXZUZn+3NenXszhh7qTAWcT6ieogMrz+Kf5taaFy4qPOvwkLkOG45l43er/A5Cu6XPufO+Hve57pDI0SJ7DwlG64z/3WWh2znP/LcAQCAikH4i1DR4W/Uc25M9Zhqw9k+LpZMgJBwGCmGDUW+IRAAAAAwqlHtE2VVbEcvyMW24aK7fQAAAGRA+ENZOT1WlqBkCgG685CXCu5hEwAAAPFB+AMAAACAGCD8AQg7sktuGM7x5AAAAFB2hD8AAAAAiAHCHwAAAADEAOFvmO3bt49hHgAAAACMOMIfAAAAAMQA4Q8AAAAAYoDwBwAAAAAxQPgri5vkqaXrZaN+fPomOw8AAAAAyofwVxbPya1rF8uitZ2yu66DAAgAAACg7Ah/ZfWc/PCtQZHEJ+Vzdg4AAAAAlAPhbySMnyzn2x8BAAAAoBwIfwAAAAAQA4Q/AAAAAIgBwl+Z/Tx52P4EAAAAAOVD+Cu3U8fkfZkhf3HBAjsDAAAAAIYf4a/cTn1Dlq5dLD9N3G3G/VtLCAQAAABQBoS/chv/LVmrQt8lB/S4f4tl6dub7S8AAAAAYPgQ/srsc3WzZJzskdd/b2cAAAAAQBkQ/gAAAAAgBgh/AAAAABADhD8AAAAAiAHCHwAAAADEAOGvrG6Sv76wRuTg6/K0nQMAAAAA5UD4K4ub5Kml62Xj0g6Zeepf5Du/ec7OBwAAAIDyOKuhoeEj+3NOTU1NcujQITl9+rSdU7xKXZdW6vUBAAAAwEij5A8AAAAAYoDwBwAAAAAxQPiLsG/fPqp8AgAAAKgqhD8AAAAAiAHCHwAAAADEAOEPAAAAAGKA8JfFw0/ul76feh5Pfmh/AwAAAACjC+Evi3tua5DGv9CP8+RXSTsTAAAAAEYhwh8AAAAAxADhDwAAAABigPAHAAAAADFA+AMAAACAGCD8AQAAAEAMEP4AAAAAIAYIfwAAAAAQA4Q/AAAAAIgBwh8AAAAAxADhDwAAAABigPAHAAAAADFA+AMAAACAGCD8AQAAAEAMEP4AAAAAIAYIf1k8/OR+6fupfhyQKxJ2JgAAAACMQmc1NDR8ZH/OqampSQ4dOiSnT5+2c4pXqesCAAAAgGpEyR8AAAAAxEBVhL99+/ZR6gcAAAAAWVDyBwAAAAAxQPgDAAAAgBgg/AEAAABADFRV+Pto8Q45/c0+9dgh//EJOxMAAAAAUF3h76z1LTL2m41y9msi//ZlAiAAAAAAuKqy2udZ69fLn0hCPvqvdgYAAAAAxFxVt/n76Nyb7U8AAAAAEG90+AIAAAAAMUD4AwAAAIAYqNLwt1vOOmF/BAAAAABUa/h7Vs46KvIfl35B/tPOAQAAAIA4q9pqn3/0vUYZ+8y78h9m3L9NhEAAAAAAsVa14e8/v6hC37Uif/JNFQK/uZDGjQAAAABirUoz0cPynzNE/vhfN8tZdg4AAAAAxBkFYgAAAAAQA4Q/AAAAAIgBwh8AAAAAxADhDwAAAABioCrD30eLF8u/S1L+aPuzdg4AAAAAxFtVhb+PFu+Q09/skw8vTcif/KRF/vj39hcAAAAAEHNnNTQ0fGR/zqmpqUkOHTokp0+ftnOKV8p1AQAAAACyo80fAAAAAMQA4Q8AAAAAYmDEwt++ffuo8gkAAAAAZULJHwAAAADEAOEPAAAAAGKA8AcAAAAAMTDi4e+WT6+XjUv14wm5xc4DAAAAAJTWiIe/p3+zWBatXSw/OjhDriEAAgAAAMCwqJhqn0+/9S/yvkyTT463MwAAAAAAJVNhbf5qZDLhDwAAAABKjg5fAAAAACAGCH8AAAAAEAOVE/5O/U4O2x8BAAAAAKVVQSV/e+TYKZGZs74ln7NzAAAAAAClcVZDQ8NH9uecmpqa5NChQ3L69Gk7Zxh84gnZeOkMkVP/It/Z9A35uZ0NAAAAACheBZX8LZBvL1wvG8973Yz7t4jgBwAAAAAlUznhb/wCmTVeZPeB5+wMAAAAAECp0NsnAAAAAMQA4Q8AAAAAYoDwBwAAAAAxQPgDAAAAgBiomPB3y4V/LuNkj7z+ezsDAAAAAFAyIx7+bvn0etm4dL1cUzcov9l0uzxt5wMAAAAASqfyBnkHAAAAAJQcbf4AAAAAIAYIfwAAAAAQA4Q/AAAAAIgBwh8AAAAAxADhDwAAAABigPAHAAAAADFQgeGvWWqff1wufuRKOz3ajPb9z+QmeWqpMyaj+3jqE/ZXAAAAACoeJX8oyPtvPSKL1i42j1t/b2cCAAAAqHiEvwoz5p4H5OKXH08/qq4EEQAAAMBIIPxVDKe66IWtx2TPtXfIdvPokoHGdrn4+RtljF0KAAAAAIpxVkNDw0f255yamprk0KFDcvr0aTunNMY98rjMaLQTrr4u2X73BjuhXSl1L7dLrZ1SC6iQtFLet1Pu76XrDnlv2gMqRCXs/OBymg5at0ndeDspSTn4xP0y0G0nFbNPovbhlWky8/ZWqbHzB9T6D662E1Zx+x/Y5rIVcnH75NB+SNuNZvvS86TsfrjXTp8vJ9Ryp6/ybPdUj7z1pRfkjJ1M+ezX5YX/8WdSs++fpeOrgR0viG7z1yHT3npElr692c4DAAAAMFqMcMmfU9o1Y4oKLqnSrifl4Cn7a5cOPCo4fUwFIGeZO2RPX6PMeHmFjLOLuGrbH5cLm9+x69PrUsv5Ss50CFPB76gKZ3Zdb/WI1N3+gNS22UVcutTt9ilyOLVcUq3fu1ye++8GPx0IU8ttkbOXuful1tOmUtypdyTpDX5a96/lhFpfTfNlnmNIqP19XKYddc9HlwyMb5ULI6qIzr/iT53g2jRHlpk5AAAAAOJoZMPfsnapG5+Ug6sjSqw8xl3VKjWneuR3uuTLev9uFXikUabd02znWL4SsF4Z6O4TGX++JGxgG3PPfKnVpYGeUrkzD39PBTYVqK4KhiddOpcuNTzz6jsyqILX2U12Rp77L23T5GPqv4Fd3pLADXIwtZ+NcvZ4kcHeX0esp1dOH7U/eqkgaUoCjQ1yUh2mTJkWqh665Vf/qvZZ2bdThlLuBwAAAGB0G9HwN252htIunytlglosHIz65ENdIjbFX98ytNy+o57A1iyJ5oR66q5ANVAbsILhKce+5bf/Svdh+UD9p0sl64otfhs/xbdv/iCZxS++LTd2dAyxyicAAACA0a7yO3yxpWY1rbf5e8HUVTdTbfby5ZSwmeqcvnVFtNkrqQ1y0FYH1QHQ2WZENdNsTh3NXroIAAAAAFlUfvizpWaDnvZ+voevU5VcnNJC0xlL1LqiOkwpmV4Z+JLdzhM9pjQy3c4wuhTT0Sxjp6j/jh4m/AEAAAAo2oiGvzNHk6HqjE47OvuzkS0Y5Tbm8vOlRq3jpKn1mKF6Z5Hy2/8I3S/IbhsAneqovZLsVetqnB8uDWy7TCaq9eVdzTNI9/bZ2Smd36W7FwAAACDORjb8mQ5UPJ226F492yfLoC6dS7GdtjS2y8xg5y65qPV9sjUhgz1dqTZ+77+iQleGnjELld/+K8tWhPbdCaVJ+XCfM33m4S0yoEsDUz2AaldKnR5moq8rNLxEvujtEwAAAIA28uP8mfHt3FI9Z0w+ccfY81bpNOPbpcfbc3jHyguOo+eIGpcvn2XN2H16CAdvVVC7Dx9415nn/o+5xzv2oJbP+INOddd0r55K1D4okfurMc4fAAAAAKUiBnkvDSfQ6bEAfWEJJUL4AwAAAEazyu/wBQAAAAAwZIQ/AAAAAIgBwh8KMu7Cu2Xj0vXm8dQn7EwAAAAAFa+K2vwBAAAAADKh5A8AAAAAYoDwBwAAAAAxMGLhT1chHTt2rJ0CAAAAAAwnSv4AAAAAIAYIfwAAAAAQA4Q/AAAAAIgBwl8Fmvv0Prn/Z/vkKw/ebOcAAAAAwNAQ/gAAAAAgBkZskHcGjB+qm2Xxj78mn5ogcuLVf5B/vO9ZOx8AAAAAwij5G4WmPbhd7v/Z7SIbfyUn7DwAAAAAyKbqSv50MLr58oSdUnb/QB645V47YX8/6w159q/6ZdHPviCNdn506dlD8kXPMmpl8srnF8k2OyWL1shX7r1Idj90sRy+Zp9cNdPOP/krtf7r5bCdNMyyV8hEOymSlN+q563faCcV3dYvtQ6l70dN8r2n7ITr1o1y/6J3nfXbdQolfwAAAAByqKKSP10Ncp8Kfu+qgNYkD5jHD6Rv5hfk/h+vkWl2KWPCFXKzCnWiwpVZ7ke7ZeLlX5Mv3mp/r+lgpZaZqIKVs64meWX3TLnqZxtlrl3EkZBP3btP5r3nLqe2qdf/9EP295oKkWrdP7Trcdaln7ddFi+yiyjbbrG/fyhLid5Ti+SBYLAEAAAAgByqJ/zdeq18aoIuTfOUzMm98j0V7HTYW+QNdoqvVO2pl+W3J0UaL0kHtrnXXCETT/5KfugpUdt2iwp2MlPmBXvh3P0DT8nbvfKG2qScU+8JnGo/AoFt2490wEvIzM/SoycAAACA4Vc14W/uJbq+5Lty2FON0niqRwU2kYl13pC1W97wVad8Vg6/p/5LBbaH5CK1uhNv/p9ACdseGVAhceI5M+y0o+/1dLXSvG3sp70eAAAAgLKprg5fTr4rh+yPQcHAltWietM2T1cF1ePtpR9O75rFcDpp8a7L25YQAAAAAIZXbHr7PPHeHvtTHmypnO4Exm2j53t4OpDJh9sJja5qml6PrkIKAAAAAOVRNeFv2+u6bd9FMtfTgYpxa6s0SlJ2/yJbb5jBap7R1TuLc7PMnZUwPYBuDPbcCQAAAABlUj0lf6bTloR86lZvz54PyRevUalu93rfkApBc5/WVTB3y9ZUpy3PquVVmJz5BflKsHOXgtn2hN5gansSpdonAAAAgHKpsnH+9HAP/nZ5wfH7QuMAalHj8mmhsfk0z/h89vcnAuPxmfH6zvGuM7hferzAHrnIDiXh7F9wTEEvz/iCkfvkCo8dCAAAAABa1Q3ynosT/vRYgN4hIQAAAACgusWmwxcAAAAAiDPCHwAAAADEAOEPAAAAAGIgdm3+AAAAACCOKPkDAAAAgBgg/AEAAABADBD+AAAAACAGCH8AAAAAEAOEPwAAAACIAcJfBZr79D65/2f75CsP3mznAAAAAMDQEP4AAAAAIAYY5280WrRGvnLvFTLRTook5bcPXSzrN9pJAAAAAAig5G+0McHvItn9UJM88Hnn8cruhHzq3u2yeJFdBgAAAAACqq7kb9qD2+XmyxN2Stn9A3nglnvthP39rDfk2b/ql0U/+4I02vknXv0H+cf7nrVTrofki55l1Mrklc8vkm12Kh3ELpbD1+yTq2ba+Sd/pdZ/vRy2k0YepXW6rV9qHUrfj5rke0/ZiWzsuiXyGAAAAACgqkr+bpbFP96ngt+7KqC5pWI/kL6ZX5D7f7xGptmljAlXyM0q1IkKV2a5H+2WiZd/Tb54q/29pgOVWmaiClTpEraZctXPNspcu4hDl7rtk3nvucupber1P/2Q/b2mQqRa9w/tepx1hUvrtt1if//Qr+SEnQcAAAAApVA94e/Wa+VTE3RpmqdkTu6V76lgp8PeIm+wU3ylak+9LL89KdJ4STqwzb3mCpl48lfyQ09J2rZbVLCTmTIv2Avn7h94StzulTfUJuWcek/gVPsRKAnc9iMd8BIy87Ml6NFz5rmmRPHEQUr9AAAAAESrmvA39xJdX/JdORzs9OSpHhXYRCbWeUPWbnnDV53yWTn8nvovFdgekovU6k68+X/8VTdljwyokDjxnBl22tH3erpaad429peodO8h+eI1+tiDxwQAAAAAadXV4cvJd+WQ/TEoGNiyWlRvStJ0VVA93l768TX51ARnkULptob+dXnbEhbLbZMYLPEEAAAAAL/Y9PZ54r099qc82FI53QmM20bP9/B0IJMPtxMaXdU0vR5dhXQodBtHJ0D2/YhhHgAAAABkVzXhb9vrum3fRTI3ONzBra2mZGz3L7K1hwtW84yu3lmcm2XurITpAXRjyapl6uDnlELm3SMoAAAAgFirnpI/02lLQj51q7dnT9sebvf6rCVjc5/WJWi7ZWuq05Zn1fIqTM78gnwl2LlLwWx7Qm8wtT2JFlftk+AHAAAAoHBVNs5fOhi5guP3hcYB1KLG5dNCY/NpnvH57O9PBEKYGa/vHO86g/ulxwvskYvsUBLO/gXHFPTyjC9460a533TwEiU8diAAAAAAaFU3yHsuTvjTYwHSQQoAAACA+IhNhy8AAAAAEGeEPwAAAACIAcIfAAAAAMRA7Nr8AQAAAEAcUfIHAAAAADFA+AMAAACAGBix8Ldv3z6qfAIAAABAmVDyBwAAAAAxQPgDAAAAgBgg/AEAAABADIzYUA8p478laxf+uYyzkyKD8ptN18jXT9lJAAAAAMCQjXzJ36lvyNK1i2WRfry2x84EAAAAAJQS1T4BAAAAIAYIfwAAAAAQA4Q/AAAAAIgBwh8AAAAAxADhDwAAAABigPAHAAAAADFA+AMAAACAGCD8AQAAAEAMEP4AAAAAIAYIfwAAAAAQA4Q/AAAAAIgBwh8AAAAAxADhDwAAAABigPAHAAAAADEw8uFv/Ldk7dL1slE/Lp1hZwIAAAAASumshoaGj+zPOTU1NcmhQ4fk9OnTdg4AAAAAYDSg2icAAAAAxADhDwAAAABioKBqnwAAAACA0YmSPwAAAACIAcIfAAAAAMQA4Q8AAAAAYqCI8PehbPrpfunTjyc/tPMAAAAAAJVsCB2+6BB4WGbumSaNt51t5wEAAAAAKtEQqn2eLT/49cdFzvl3udnOAQAAAABUpqG3+Uv8u8y0PwIAAAAAKhMdvgAAAABADBD+AAAAACAGhhT+nv39GPsTAAAAAKCSDa3kb8+fSFJOyOJv/oedAQAAAACoREMLfz+rkZa/aJD15xww4/7tIAQCAAAAQEUawjh/yucHZcf/OyDv/rhBFj5j5wEAAAAAKs6QSv5unv8HSchE6SH4AQAAAEBFo7dPAAAAAIgBwh8AAAAAxADhDwAAAABigPAHAAAAADEwhPD3oXzhsj+I7Bkr99g5AAAAAIDKVET4+1A2/XS/9P30sMxM1sq3bzvbzgcAAAAAVKqhjfMHAAAAABgVaPMHAAAAADFA+AMAAACAGCD8AQAAAEAMEP4AAAAAIAYIfwAAAAAQA4Q/AAAAAIgBwh8AAAAAxADhDwAAAACqnsj/D5ot+Oq6HUgoAAAAAElFTkSuQmCC;" vertex="1" parent="1">
          <mxGeometry x="510" y="650" width="236.2" height="147" as="geometry" />
        </mxCell>
        <mxCell id="8jyKJ8MEoaGuotIZUo8H-26" value="" style="group" vertex="1" connectable="0" parent="1">
          <mxGeometry x="820" y="140" width="100" height="100" as="geometry" />
        </mxCell>
        <mxCell id="8jyKJ8MEoaGuotIZUo8H-23" value="&lt;b&gt;&lt;br&gt;&lt;/b&gt;" style="rounded=0;whiteSpace=wrap;html=1;fillColor=#f5f5f5;fontColor=#333333;strokeColor=#666666;verticalAlign=top;" vertex="1" parent="8jyKJ8MEoaGuotIZUo8H-26">
          <mxGeometry width="100" height="100" as="geometry" />
        </mxCell>
        <mxCell id="8jyKJ8MEoaGuotIZUo8H-9" value="OpenAI #1" style="image;aspect=fixed;html=1;points=[];align=center;fontSize=12;image=img/lib/azure2/ai_machine_learning/Cognitive_Services.svg;" vertex="1" parent="8jyKJ8MEoaGuotIZUo8H-26">
          <mxGeometry x="20" y="16" width="68" height="48" as="geometry" />
        </mxCell>
        <mxCell id="8jyKJ8MEoaGuotIZUo8H-27" value="" style="group" vertex="1" connectable="0" parent="1">
          <mxGeometry x="820" y="260" width="100" height="100" as="geometry" />
        </mxCell>
        <mxCell id="8jyKJ8MEoaGuotIZUo8H-24" value="&lt;b&gt;&lt;br&gt;&lt;/b&gt;" style="rounded=0;whiteSpace=wrap;html=1;fillColor=#f5f5f5;fontColor=#333333;strokeColor=#666666;verticalAlign=top;" vertex="1" parent="8jyKJ8MEoaGuotIZUo8H-27">
          <mxGeometry width="100" height="100" as="geometry" />
        </mxCell>
        <mxCell id="8jyKJ8MEoaGuotIZUo8H-10" value="OpenAI #2" style="image;aspect=fixed;html=1;points=[];align=center;fontSize=12;image=img/lib/azure2/ai_machine_learning/Cognitive_Services.svg;" vertex="1" parent="8jyKJ8MEoaGuotIZUo8H-27">
          <mxGeometry x="16" y="26" width="68" height="48" as="geometry" />
        </mxCell>
        <mxCell id="8jyKJ8MEoaGuotIZUo8H-28" value="" style="group" vertex="1" connectable="0" parent="1">
          <mxGeometry x="510" y="200" width="130" height="110" as="geometry" />
        </mxCell>
        <mxCell id="8jyKJ8MEoaGuotIZUo8H-25" value="&lt;b&gt;&lt;br&gt;&lt;/b&gt;" style="rounded=0;whiteSpace=wrap;html=1;fillColor=#f5f5f5;fontColor=#333333;strokeColor=#666666;verticalAlign=top;" vertex="1" parent="8jyKJ8MEoaGuotIZUo8H-28">
          <mxGeometry width="130" height="110" as="geometry" />
        </mxCell>
        <mxCell id="8jyKJ8MEoaGuotIZUo8H-11" value="API Management" style="image;aspect=fixed;html=1;points=[];align=center;fontSize=12;image=img/lib/azure2/app_services/API_Management_Services.svg;imageBackground=none;fillStyle=hatch;" vertex="1" parent="8jyKJ8MEoaGuotIZUo8H-28">
          <mxGeometry x="28.694545454545427" y="20" width="65" height="60" as="geometry" />
        </mxCell>
        <mxCell id="8jyKJ8MEoaGuotIZUo8H-29" value="" style="image;sketch=0;aspect=fixed;html=1;points=[];align=center;fontSize=12;image=img/lib/mscae/Load_Balancer_feature.svg;" vertex="1" parent="1">
          <mxGeometry x="616.1999999999999" y="230" width="50" height="50" as="geometry" />
        </mxCell>
        <mxCell id="8jyKJ8MEoaGuotIZUo8H-32" style="edgeStyle=orthogonalEdgeStyle;rounded=0;orthogonalLoop=1;jettySize=auto;html=1;" edge="1" parent="1" source="8jyKJ8MEoaGuotIZUo8H-31" target="8jyKJ8MEoaGuotIZUo8H-25">
          <mxGeometry relative="1" as="geometry">
            <mxPoint x="480.25" y="261.24" as="targetPoint" />
          </mxGeometry>
        </mxCell>
        <mxCell id="8jyKJ8MEoaGuotIZUo8H-31" value="API Request" style="image;aspect=fixed;perimeter=ellipsePerimeter;html=1;align=center;shadow=0;dashed=0;spacingTop=3;image=img/lib/active_directory/laptop_client.svg;" vertex="1" parent="1">
          <mxGeometry x="350" y="230" width="45" height="50" as="geometry" />
        </mxCell>
        <mxCell id="8jyKJ8MEoaGuotIZUo8H-35" style="edgeStyle=orthogonalEdgeStyle;rounded=0;orthogonalLoop=1;jettySize=auto;html=1;entryX=0.25;entryY=0;entryDx=0;entryDy=0;" edge="1" parent="1" source="8jyKJ8MEoaGuotIZUo8H-34" target="8jyKJ8MEoaGuotIZUo8H-25">
          <mxGeometry relative="1" as="geometry" />
        </mxCell>
        <mxCell id="8jyKJ8MEoaGuotIZUo8H-34" value="&amp;lt;Managed Identity&amp;gt;&lt;br&gt;apim1" style="image;aspect=fixed;html=1;points=[];align=center;fontSize=10;image=img/lib/azure2/identity/Managed_Identities.svg;" vertex="1" parent="1">
          <mxGeometry x="519" y="100" width="47.39" height="46" as="geometry" />
        </mxCell>
        <mxCell id="8jyKJ8MEoaGuotIZUo8H-37" style="edgeStyle=orthogonalEdgeStyle;rounded=0;orthogonalLoop=1;jettySize=auto;html=1;entryX=1;entryY=0.25;entryDx=0;entryDy=0;" edge="1" parent="1" source="8jyKJ8MEoaGuotIZUo8H-36" target="8jyKJ8MEoaGuotIZUo8H-23">
          <mxGeometry relative="1" as="geometry" />
        </mxCell>
        <mxCell id="8jyKJ8MEoaGuotIZUo8H-36" value="&amp;lt;Managed Identity&amp;gt;&lt;br&gt;apim1&lt;br&gt;&amp;lt;&lt;i&gt;Cognitive Services OpenAI User&lt;/i&gt;&amp;gt;" style="image;aspect=fixed;html=1;points=[];align=center;fontSize=10;image=img/lib/azure2/identity/Managed_Identities.svg;" vertex="1" parent="1">
          <mxGeometry x="1010" y="142" width="47.39" height="46" as="geometry" />
        </mxCell>
        <mxCell id="8jyKJ8MEoaGuotIZUo8H-39" style="edgeStyle=orthogonalEdgeStyle;rounded=0;orthogonalLoop=1;jettySize=auto;html=1;entryX=1;entryY=0.25;entryDx=0;entryDy=0;" edge="1" parent="1" source="8jyKJ8MEoaGuotIZUo8H-38" target="8jyKJ8MEoaGuotIZUo8H-24">
          <mxGeometry relative="1" as="geometry" />
        </mxCell>
        <mxCell id="8jyKJ8MEoaGuotIZUo8H-38" value="&amp;lt;Managed Identity&amp;gt;&lt;br&gt;apim1&lt;br&gt;&amp;lt;&lt;i&gt;Cognitive Services OpenAI User&lt;/i&gt;&amp;gt;" style="image;aspect=fixed;html=1;points=[];align=center;fontSize=10;image=img/lib/azure2/identity/Managed_Identities.svg;" vertex="1" parent="1">
          <mxGeometry x="1010" y="262" width="47.39" height="46" as="geometry" />
        </mxCell>
        <mxCell id="8jyKJ8MEoaGuotIZUo8H-41" style="edgeStyle=orthogonalEdgeStyle;rounded=0;orthogonalLoop=1;jettySize=auto;html=1;" edge="1" parent="1" source="8jyKJ8MEoaGuotIZUo8H-40" target="8jyKJ8MEoaGuotIZUo8H-16">
          <mxGeometry relative="1" as="geometry" />
        </mxCell>
        <mxCell id="8jyKJ8MEoaGuotIZUo8H-40" value="Load balancer policy does simple Round-Robin distribution" style="shape=note;whiteSpace=wrap;html=1;backgroundOutline=1;darkOpacity=0.05;size=10;fillColor=#fff2cc;strokeColor=#d6b656;spacing=10;" vertex="1" parent="1">
          <mxGeometry x="330" y="676" width="100" height="95" as="geometry" />
        </mxCell>
        <mxCell id="8jyKJ8MEoaGuotIZUo8H-43" value="" style="edgeStyle=orthogonalEdgeStyle;rounded=0;orthogonalLoop=1;jettySize=auto;html=1;" edge="1" parent="1" source="8jyKJ8MEoaGuotIZUo8H-42" target="8jyKJ8MEoaGuotIZUo8H-15">
          <mxGeometry relative="1" as="geometry" />
        </mxCell>
        <mxCell id="8jyKJ8MEoaGuotIZUo8H-42" value="Circuit Breaker policy removes Backend from the Load Balancer for a set period of time" style="shape=note;whiteSpace=wrap;html=1;backgroundOutline=1;darkOpacity=0.05;size=10;fillColor=#fff2cc;strokeColor=#d6b656;spacing=10;" vertex="1" parent="1">
          <mxGeometry x="1020" y="678" width="130" height="95" as="geometry" />
        </mxCell>
        <mxCell id="8jyKJ8MEoaGuotIZUo8H-44" value="&lt;a href=&quot;https://techcommunity.microsoft.com/t5/fasttrack-for-azure/smart-load-balancing-for-openai-endpoints-and-azure-api/ba-p/3991616&quot; style=&quot;font-size: 24px;&quot;&gt;🚀 Smart load balancing for OpenAI endpoints and Azure API Management - Microsoft Community Hub&lt;/a&gt;" style="text;whiteSpace=wrap;html=1;fontSize=24;" vertex="1" parent="1">
          <mxGeometry x="430" y="990" width="580" height="50" as="geometry" />
        </mxCell>
      </root>
    </mxGraphModel>
  </diagram>
</mxfile>
